<mxfile host="app.diagrams.net" modified="2021-05-28T18:41:04.497Z" agent="5.0 (Windows NT 10.0; Win64; x64) AppleWebKit/537.36 (KHTML, like Gecko) Chrome/90.0.4430.212 Safari/537.36 Edg/90.0.818.66" etag="pra7Ivi-7NHN_PW3xFAR" version="14.7.2" type="github">
  <diagram id="MCMQruVbRT4ZtPlTQheB" name="Page-1">
    <mxGraphModel dx="1673" dy="896" grid="1" gridSize="10" guides="1" tooltips="1" connect="1" arrows="1" fold="1" page="1" pageScale="1" pageWidth="850" pageHeight="1100" math="0" shadow="0">
      <root>
        <mxCell id="0" />
        <mxCell id="1" parent="0" />
        <mxCell id="0Ma6VZtYf2KCyxoi-4m5-35" value="" style="group" vertex="1" connectable="0" parent="1">
          <mxGeometry x="270" y="290" width="135" height="150" as="geometry" />
        </mxCell>
        <mxCell id="0Ma6VZtYf2KCyxoi-4m5-73" value="" style="ellipse;whiteSpace=wrap;html=1;fontSize=10;" vertex="1" parent="0Ma6VZtYf2KCyxoi-4m5-35">
          <mxGeometry width="130" height="130" as="geometry" />
        </mxCell>
        <mxCell id="0Ma6VZtYf2KCyxoi-4m5-25" value="" style="dashed=0;outlineConnect=0;html=1;align=center;labelPosition=center;verticalLabelPosition=bottom;verticalAlign=top;shape=mxgraph.weblogos.github;fontSize=16;" vertex="1" parent="0Ma6VZtYf2KCyxoi-4m5-35">
          <mxGeometry width="130" height="130" as="geometry" />
        </mxCell>
        <mxCell id="0Ma6VZtYf2KCyxoi-4m5-34" value="GITHUB" style="text;html=1;strokeColor=none;fillColor=none;align=center;verticalAlign=middle;whiteSpace=wrap;rounded=0;fontSize=16;" vertex="1" parent="0Ma6VZtYf2KCyxoi-4m5-35">
          <mxGeometry x="25" y="130" width="80" height="20" as="geometry" />
        </mxCell>
        <mxCell id="0Ma6VZtYf2KCyxoi-4m5-60" value="" style="rounded=1;whiteSpace=wrap;html=1;fontSize=16;" vertex="1" parent="1">
          <mxGeometry x="370" y="510" width="120" height="130" as="geometry" />
        </mxCell>
        <mxCell id="0Ma6VZtYf2KCyxoi-4m5-29" value="" style="rounded=1;whiteSpace=wrap;html=1;fontSize=16;" vertex="1" parent="1">
          <mxGeometry x="510" y="199" width="220" height="102" as="geometry" />
        </mxCell>
        <mxCell id="0Ma6VZtYf2KCyxoi-4m5-26" value="" style="image;image=img/lib/atlassian/Trello_Logo.svg;fontSize=16;" vertex="1" parent="1">
          <mxGeometry x="550" y="220" width="60" height="60" as="geometry" />
        </mxCell>
        <mxCell id="0Ma6VZtYf2KCyxoi-4m5-27" value="" style="dashed=0;outlineConnect=0;html=1;align=center;labelPosition=center;verticalLabelPosition=bottom;verticalAlign=top;shape=mxgraph.weblogos.google_drive;fontSize=16;" vertex="1" parent="1">
          <mxGeometry x="630" y="220" width="66.4" height="58" as="geometry" />
        </mxCell>
        <mxCell id="0Ma6VZtYf2KCyxoi-4m5-30" value="Documentação&lt;br style=&quot;font-size: 16px;&quot;&gt;Team management" style="text;html=1;strokeColor=none;fillColor=none;align=left;verticalAlign=middle;whiteSpace=wrap;rounded=0;fontSize=16;rotation=0;" vertex="1" parent="1">
          <mxGeometry x="530" y="160" width="150" height="39" as="geometry" />
        </mxCell>
        <mxCell id="0Ma6VZtYf2KCyxoi-4m5-32" value="" style="group" vertex="1" connectable="0" parent="1">
          <mxGeometry x="510" y="330" width="220" height="320" as="geometry" />
        </mxCell>
        <mxCell id="0Ma6VZtYf2KCyxoi-4m5-28" value="Cloud" style="text;html=1;strokeColor=none;fillColor=none;align=center;verticalAlign=middle;whiteSpace=wrap;rounded=0;fontSize=16;" vertex="1" parent="0Ma6VZtYf2KCyxoi-4m5-32">
          <mxGeometry x="22" width="44" height="20" as="geometry" />
        </mxCell>
        <mxCell id="0Ma6VZtYf2KCyxoi-4m5-31" value="" style="group" vertex="1" connectable="0" parent="0Ma6VZtYf2KCyxoi-4m5-32">
          <mxGeometry y="20" width="220.00000000000003" height="300" as="geometry" />
        </mxCell>
        <mxCell id="0Ma6VZtYf2KCyxoi-4m5-22" value="" style="rounded=1;whiteSpace=wrap;html=1;fontSize=16;" vertex="1" parent="0Ma6VZtYf2KCyxoi-4m5-31">
          <mxGeometry width="220.00000000000003" height="300" as="geometry" />
        </mxCell>
        <mxCell id="0Ma6VZtYf2KCyxoi-4m5-9" value="" style="pointerEvents=1;shadow=0;dashed=0;html=1;strokeColor=none;fillColor=#505050;labelPosition=center;verticalLabelPosition=bottom;outlineConnect=0;verticalAlign=top;align=center;shape=mxgraph.office.clouds.cloud;" vertex="1" parent="0Ma6VZtYf2KCyxoi-4m5-31">
          <mxGeometry x="11.979000000000017" y="10" width="196.053" height="90" as="geometry" />
        </mxCell>
        <mxCell id="0Ma6VZtYf2KCyxoi-4m5-13" value="AWS EC2" style="text;html=1;strokeColor=none;fillColor=none;align=center;verticalAlign=middle;whiteSpace=wrap;rounded=0;fontStyle=1;fontSize=16;" vertex="1" parent="0Ma6VZtYf2KCyxoi-4m5-31">
          <mxGeometry x="46.101" y="40" width="127.79800000000002" height="50" as="geometry" />
        </mxCell>
        <mxCell id="0Ma6VZtYf2KCyxoi-4m5-19" value="" style="group" vertex="1" connectable="0" parent="0Ma6VZtYf2KCyxoi-4m5-31">
          <mxGeometry x="22" y="120" width="176" height="173" as="geometry" />
        </mxCell>
        <mxCell id="0Ma6VZtYf2KCyxoi-4m5-20" value="" style="outlineConnect=0;dashed=0;verticalLabelPosition=bottom;verticalAlign=top;align=center;html=1;shape=mxgraph.aws3.ec2;fillColor=#F58534;gradientColor=none;" vertex="1" parent="0Ma6VZtYf2KCyxoi-4m5-19">
          <mxGeometry width="156.54100000000003" height="173" as="geometry" />
        </mxCell>
        <mxCell id="0Ma6VZtYf2KCyxoi-4m5-21" value="LOCAL&lt;br&gt;H2" style="shape=datastore;whiteSpace=wrap;html=1;" vertex="1" parent="0Ma6VZtYf2KCyxoi-4m5-19">
          <mxGeometry x="110.00000000000001" y="110" width="66" height="60" as="geometry" />
        </mxCell>
        <mxCell id="0Ma6VZtYf2KCyxoi-4m5-11" value="" style="group" vertex="1" connectable="0" parent="0Ma6VZtYf2KCyxoi-4m5-19">
          <mxGeometry x="110.00000000000001" y="47" width="66" height="63" as="geometry" />
        </mxCell>
        <mxCell id="0Ma6VZtYf2KCyxoi-4m5-7" value="" style="outlineConnect=0;dashed=0;verticalLabelPosition=bottom;verticalAlign=top;align=center;html=1;shape=mxgraph.aws3.cache_node;fillColor=#2E73B8;gradientColor=none;" vertex="1" parent="0Ma6VZtYf2KCyxoi-4m5-11">
          <mxGeometry y="-1" width="66" height="63" as="geometry" />
        </mxCell>
        <mxCell id="0Ma6VZtYf2KCyxoi-4m5-8" value="&lt;font color=&quot;#ffffff&quot;&gt;&lt;span style=&quot;font-size: 11px&quot;&gt;1 GB&lt;/span&gt;&lt;/font&gt;" style="text;html=1;strokeColor=none;fillColor=none;align=center;verticalAlign=middle;whiteSpace=wrap;rounded=0;" vertex="1" parent="0Ma6VZtYf2KCyxoi-4m5-11">
          <mxGeometry x="11" y="17.25" width="44" height="28.5" as="geometry" />
        </mxCell>
        <mxCell id="0Ma6VZtYf2KCyxoi-4m5-24" value="" style="pointerEvents=1;shadow=0;dashed=0;html=1;strokeColor=none;fillColor=#DF8C42;labelPosition=center;verticalLabelPosition=bottom;verticalAlign=top;align=center;outlineConnect=0;shape=mxgraph.veeam2.linux;fontSize=16;" vertex="1" parent="0Ma6VZtYf2KCyxoi-4m5-31">
          <mxGeometry x="160.60000000000002" y="110" width="37.400000000000006" height="34" as="geometry" />
        </mxCell>
        <mxCell id="0Ma6VZtYf2KCyxoi-4m5-33" value="Distribuição do código fonte" style="text;html=1;strokeColor=none;fillColor=none;align=center;verticalAlign=middle;whiteSpace=wrap;rounded=0;fontSize=16;" vertex="1" parent="1">
          <mxGeometry x="170" y="290" width="130" height="20" as="geometry" />
        </mxCell>
        <mxCell id="0Ma6VZtYf2KCyxoi-4m5-36" value="" style="endArrow=classic;html=1;fontSize=16;exitX=0;exitY=0.5;exitDx=0;exitDy=0;edgeStyle=orthogonalEdgeStyle;" edge="1" parent="1" source="0Ma6VZtYf2KCyxoi-4m5-29" target="0Ma6VZtYf2KCyxoi-4m5-25">
          <mxGeometry width="50" height="50" relative="1" as="geometry">
            <mxPoint x="390" y="440" as="sourcePoint" />
            <mxPoint x="440" y="390" as="targetPoint" />
            <Array as="points">
              <mxPoint x="335" y="250" />
            </Array>
          </mxGeometry>
        </mxCell>
        <mxCell id="0Ma6VZtYf2KCyxoi-4m5-52" value="Paralelo" style="text;html=1;strokeColor=none;fillColor=none;align=center;verticalAlign=middle;whiteSpace=wrap;rounded=0;fontSize=10;rotation=270;" vertex="1" parent="1">
          <mxGeometry x="332.5" y="540" width="63" height="20" as="geometry" />
        </mxCell>
        <mxCell id="0Ma6VZtYf2KCyxoi-4m5-59" value="" style="shape=image;verticalLabelPosition=bottom;labelBackgroundColor=#ffffff;verticalAlign=top;aspect=fixed;imageAspect=0;image=data:image/png,iVBORw0KGgoAAAANSUhEUgAAAQAAAAEACAYAAABccqhmAAAZnElEQVR42uydC5RdVXnH/+feOzNJmElIQsggcQkIiXmBgDSiEqlNhNYkSiIP2wawrdoWSqS20kVZVWAtsHVRHlkWymu1i1aIUl01oNBIWiCRKhBINcYQLAGiIYYhyYQ8ZuY+uvb127d7ztx35nHv5Pdb66w7j3P2edzz/fe3v/3tvRMCgCMWBAAAAQAABAAAEAAAQAAAAAEAAAQAABAAAEAAAAABAAAEAAAQAABAAAAAAQAABAAAEAAAQAAAAAEAAAQAABAAAEAAAAABAAAEAAAQAABAAAAAAQAABAAAEAAAQAAAAAEAAAQAABAAAEAAAAABAAAEAAAQAABAAAAQAB4BAAIAAAgAACAAAIAAAAACAAAIAAAgAACAAAAAAgAACAAAIAAAgAAAAAIAAAgAACAAAIAAAAACAAAIAAAgAACAAAAAAgAACAAAIAAAgAAAAAIAAAgAACAAAIAAAAACAAAIAAAgAACAAAAAAgAACAAAIAAAgAAAIAAAgAAAAAIAAAgAACAAAIAAAAACAAAIAAAgAACAAAAAAgAACAAAIAAAgAAAAAIAAAgAADQaqQrikLPNcaakj0maL2mGpGMkjeERAjQEPZJ+KemHklZJ+nezXV/JZ4sdFJUoLCkpYz9/QtKVZvgtPGeApuAZSTdJeqSITZcVAOcVpCXNlHS7pIXB/zJ2TFRGPABgZPAee2if35X0eUlbA9suKQB+h4sk3SNpfKAaSZ4vQNOQNTFwdrtb0h9K+nZcBJJFjP9zkv5ZUpsZf5JgIUDTEZndOps+StLFkrZLet5sPRt6AL598ElJ3wxcfQwfYHR5A0vNE8jbfBRE+0+W9IKksXYQxg8wukTAsV/S6ZL+11XyiSB4cLe5CjmMH2DU4Sv6Dkn/6Lv3fRNgkaTV1l5IVSgoF6gJQgGN2v6F4ngb/5ik7/oH9Z+SPmyGnaxg/DxcgOYlYxX3f0n6iDPmuRYZbKmi5o/s8+uWafSLUhlGACPE0RbIbqfCKkufpDNS5v63BF1+pYxf1p94kaTv8/ygQRkXT3aBol6As/lFTgDOqeIAHxhcbsbfWiytEGCE2/0+yEWtXx3nOAE4xX5JlFGLpLUZHrUAQi/PDhpUAGiSVsbb+nT3w6Qqan/H4ygrwKhiUqKKbj/PnkAMAKD5SSVqdLEAYBS2BQAAAQCAI6oNMArvKT6KcTR3Vw7XvYb5IVliQQjAUL7Q8dmGcrG5CSuRGyajTwbXmRkhoxiueyXno94XOooKW78vLpcrbEe6AERmTNkqahdvdMUMzs9p8GFJf2l/e1vSZyTtC/qJB+uaMyPcdHPP6mxJf21/Oyjps5atORj36ssYZyNFj7a/32bJYEmEocSXk0jkt2w2m98qGXkqlcrvk8lkjjgB8C+RT92cLOl4SRPt2nqs+/FXtmUqvLCOE2ykk6+5rhgi41sg6fclvSTp7+1aNUyegL/Xdwb36rhqCM7VImlZMAP0d2LXAEFt7wzfGbIzfEdHR4eOP/54TZkyRe3t7Uomkzp48KC6urq0Y8cO7dy5U+l0up+34I8d7QLgjb9D0qX2kp1qIhBnr6TXJG2QtEbSf0jaVaKm6w2EYvcgG6Q3/ndJ+l7w/JyRXF9s0sUhJrzXt4dIfHL2HI+133tGU03tjO3cc8/V7bffnjdEZ6CuNnaG+Oabb2rx4sV5g3W/l6vJ3XHO8N124oknaunSpTr//PM1Z84cTZ06dUATwNHd3a2tW7fqySef1MMPP6xnnnkmfw5f1nCxN0ihzBXZ+uzzTwZRNHxQydVeL5c4b7ntLUnvC4wyvK7fje03aRBrLH/dH7XyuyUdkvRYkWDZUIun44LgXl0zp3MQ79WXMV7SzuA8lzdw/MgxJUhay5Z7j5LJZP7zggsuyBVjz549uaOOOiq/TxRFFcuZMmVKbuXKlbl9+/YNKCuTyeTS6XR+cz8X47HHHsudddZZ/cocos0/l72JEaz5f8/mLH93UGvmbKqi/5a0zqYo216kVnW//3wYXW7FzuXP3WGTp76IW9y8uJrfeQJ9fX35T+/C79+/v/LLbLX1/Pnz9eyzz+rKK6/Mu/quTPd3H+iLBwP939153L7u5/POO0/r16/XihUr8se6skdbE8C70DMk3R8E/tx1rJR0r6QtMTdznLV1z7A1CpbYeO/dI+ByZ+0enABcaFMtb7EFGCKCYs3ddndG6D/936ox/oULF2r16tVqa2srNCNSqV+blvu/LyveDCi2r/v5tttu09FHH63rr78+/7uPEYwWAXB380UbUtxr7edLJT0Qc+ciM7gDZmRue9BcPA2CwUV1ehBZO/Zh2wbLdc01gPucG+LyNVpyCHz84JRTTsm3353xewP2NbwXCUdXV5d27dqV32fChAmaNm1aYV9XjivPxx+cJ/LlL39ZL730kh588MEhjQkkhvklS5vh/5a9CK22cskDJgSJIsM6fbJL0rZdtuXqeJmSJnpRbBUV//dEDU2BNtvG1PgcIztXMigrF1xfchiaElHsXPFrSB3mNSRK3GO9z7thueeeezR+/PhCbe6N37v7q1at0oIFCzR9+nTNmjUrHxScMWOGTj31VN1www3au3dvQUy8N+LKcb9/7WtfU2dnZ0Egmj0I6O/gHTY1sT/fVcELU+3LG5XxZooFARNFjkmUCNolhyF4FzLGhKQWcT6cIGCxcttKLPSarDEIGJW4x1abbj7ViEHAJUuW5INw6XQ6/5nNZvOfO3bsKBoEjB/X19dXCOS5Y1057m/Lly+vGJCbOXNmbuvWrYVAoceXeeutt+b3S6VSQxIETI1QEDAR1AY9Ndbk9dT63pv4bUmLrbvxGDu/M5xXLej4bUnbyiTSREHt/1c271xkq7E+G8Q4ygU/O2xxhvMlvSdIsNkt6acWGP2WNY8GO9kmGSz6ssQWfp1rIhmZ4Wwxr+xha36pymuIgszEkyR9XNKHJJ0oaUKQ19FlMZQfSXpS0sZmq/W9e79ixYpCbV9oH2az+Rrc/e+BBx5QS0tLISEo7h24JsDmzZu1ZMmSfABx7Nixhf/75sBll12W9xR2795dsSuy0T2AsFspdOG/Yn9vGaR4RugB7LGX3hn801UoY7ek64KaMipzD73BcX9c4dn4WvFCe/krXcf/SDq3jNdQjwfgj3mvpB9UcQ0/DRaG3VbBA4iCps1XgpyEamqi5yx563CbpMPiASQSifznCSeckOvp6em3vz/+ueeeK9Ta5boP3dbS0pL/vPnmmwd4E768Sy65ZLC9gBHpBvTzCnbbSqX+Yj5pLmLfELiIv7TU4CetNpL127saf5PlIOwPrs/VzjdKuiUI9pW6l10W00hbGm6lWvdaSd+w2tHzhnUh/thqRs9cS7ddVmGy1lqaX66cD9izONuet+z6X7Yu159ZhSBbHfp7JjKvVGF8CeuducYWmPFlb7N7fNHKORg7bnKZpK6GDP455s+fr9bW1kKUP/QM7rzzzgHeQin88ffee696e3sLNb+CrsKFCxcO6T0NZyKQP3aFlXnIPh8K2sFRnYGwuAfgXvgdtuVMdK6wORDHWfmtltV3ldUa2aBJ8sEiNbC/po5Yu/jTJZ6NP/Yy28+X/UNLgjo62PdYK2eHXUfGns/cIrVjLR5AwrZOE5zwud8taY49B1/u8dYrs8n22R+IXTEPwH9+Nig7a2MG5tizDmMNJ9p1/4NNK/9Hg9QjNSwegK+FV65c2a/G9sc4r8B5B6G3UGnzZT///PP9YgH+c8OGDRWTker1AIZbALyr2B5kAPqX8XlrF8cNKFmnAPQF9/CMtfnLcY4ZaK89i389TAHwTYh3mnH661kdGFwxplvZfv8niwz7rUUA/L73x573n1d4Hk6c1hd5D+IC4K9rfTBI6/Yqv7PxJQKgDd8EePzxx/sd4411y5YtNWfxeVG57777iorKrl27cuPHjx9MERixTEAf+HvbXP837QXosUSf71lb/dNmsJkgAFWPG5w1w/iUnas1MMwoMKxWO+83LRYRmZvcGgTN6nG7c+YS+2DhLywDsjc4T/gCt9ngomvNwJzRzbdrydbxDLzrf4KdN23nWG0DmFpisY4o8Iz22GCn/WVGafpcjVbzHPz79C0ru7XIPSaCbsDuZhtb4IN5U6dOLXTbha7+66+/nnfr6+m2e+WV4i2tCRMmaPLkyf3O14x5AKFRJqxNeI7Vzr4W6LO2+v0WhPonG3WnOpYs90sgfcvaoS1B7R5XQ39NjwZCdVwwACaqM+dhgq3L7o33NnvpW4IaNRTHXruOb1hMIGV/X1bndSQCT6E1uOcbA+MNjTsXXEfK2uzfCYSk3HfaF/w+x34vNrdDNhgBGjVT+rQ3PtdOb29vL9ozsHv37roNtaurq+j5WlpaBpyvmQVAgUH8zETgCmujtwQvyhRrO6+xNvOngheolprw0SoCTL7c7bH++Y7DfK4fCJoeaeviS8WaN+Hm2+v7LTDoDeQ3guemOrpMf9N+brFn/nyV3XtRIIpRifKTdm+bgvv8G/NaegJxLRbXyTVjZmAqlSpk8cXp6empWwB6e3tLdjk6ERhNAhDW0BkLCL3X2u+PxiLFaTOAr0taK2lWlZFxX3v+rIYFI/oG6fn4b/+soPdjm11L2s6TKbGl7VpfDco73ow3W0ONGQXPaUZw3I+qFNFs0B1YTRPsq8F5j7WFZG6z3oRsEB9INnsGYNivP6DLJ8gGrJVig3+8kAzVHAEjPaQzG7j1ByzX/0EbIfhJi0bP8gJpNdl6S2J5ukLiTcKE5M1YbTicnBwY4jHW9o6qMNys5S745zPWPJK+Oq5hQjB+QhZ8rcV7+JU9xzEVhNx9L5+TdFfwbq2wHInHJf2LfXYHgtJU8wt6o+7r69OBAweKGmpHR0fd5ceP9UlBzvjj5xstAqCgyy4KAmc/l/S3km61NvSXTBR6LDr9b2YgOytk7fWMUJDJX8/kWFR9UZ3ltdXpheSsT35s4Ip31VjOAdvGVtGku9u8nJuCbtQ2E2y3vW6B1vsCzyLRTMt5+bx93173ouAFoLOzs64a2x0/bdq0ov/bv3+/9uzZU7dn0ahNgFJCkA3GBvTaQKH3WdPA9xhMsW6s3DBOwlGPAISG22P98NVufhq0XUH/fT3Eu1J762iqZavcz53nKQvkLrIl5MPm3Dvte9tgYtEZfN9NIwCObdu2FRWAk046SRMnThyQIlypSeH2nz17dr+yfNlvvPHGgADhaBSAeI3io8Qt1iV1oU0W4qPZnzCRaMQx+FHM2JIWyJxhTZr3VLFNt+0USfNiGYu1kI49o9ZhiOv44Kv7jk6ziUs3B/u12GStz5q4Z5stLvDiiy8OqMGdITvjP+OMM6qaT8Af5wx9woQJOvPMM/uJjBeAzZs3FyYIGc0eQKmatM9emIPWjvTG5fylqUGQrREFoCvWFu+2QT97a9z21WH4fv+3TTwSRZol1TY/2moUbwXBvq3WJDhd0iVW+yfMI5pmXsLkIEekKeIATz/99IDAnXf7L7300sLkItUE/ty+ixcv1qRJk4qmFj/11FP9PIMjSQDClzkKAlhZeymPavDrfino6jrJouNRkWSkarZ6myHd1pTwnFKjiE22RKZMnU2HRDAScJV5M18NmnPvkPQHDdyc639TZqDOA9iyZUs/w/fj+C+++GLNnTs3Hyws133n93f7XHvttQOaDe7/6XRajzzySF1xhdEkAAoy1Px191YYhNMIMYBngqSgjiAwlqgjfbPe9n82yOuXdakmqjBoL1Izg5mcDrc555tsX7TBTm12XefU2bwZEbxh3n///f2m8fbG29bWlp/J59hjj82LgB/6G27h9OF33323Zs6c2W/iDy80TzzxRF5owklDRoMApGoc8OMjxfODv71hvQCN+OL4b+oHNiLR12yfD7yZqMr7Tg1CU2SN/dxncYh5wfdQ7ticjeuv5hlX6t/PmRCkbFsTnKe9mQTAG6cz3J07dxZqcgW9BLNnz9a6deu0aNGi/N+cYISb2+e0007L1+6XX375gElAvft/4403Dpn7rxHsBkzHXpxic9JFgTH1WlLNRcFL9P0hmjRjsDyAlHWf3SXpBnN3nYBdbd2bUZCsVMxoM0Gq7uEE5WTt7FusLz+yVOAFwYSs2dj5k/Zsp1s+RqaKdyUTOz7uvYRjL3psVKB/Vm/G7r3h4wDOWPfs2ZOf+OOhhx7KG7Wf6COcL3D16tXatGlTfsKP1157Lb9fZ2dn3vjPPvvswr6h8fumw1133ZWfJXio1wkYrtGA4dDY2y1VdFyVx14QrAzUZ9vM2NiAw1kXwF/b+2PPYnbMU6plNKC/tvZg/gM/HPi6KqPxrr3+Z7ZSUnj+ekYDfiU2GvDWCuc+2SYmqTQaUBak/QsL9FXDPHvvfJmfG4QKadimBIsff8sttxRG8YXTermfS60BEJ/0w5+3t7c3//O6detyY8aMyZ9jEIcBj+iUYP4LOs7G319lq/24l+wnNvBkl0WsW+yLnCXpI5LODFznhGWXbW7w9enCkY8XWWqsn0noRhOqh21GnF/Z/uOtr3yutdXPsHbyqsNsjiTsnB+zgTqHrDlylvXHb7Bg4VibH+GjloU5xeIHWTuuFH2W9fd3NrXaWks5fiUwxg4LhP6OzQHQGgw4+nozTqvua+4vfOEL+Zr/6quv/rV7m04X1gdUidRh7yn4XgA/o7Cr+deuXatly5bp0KFDQzYN2Eh4AP6464Kkn1qVq9sixioSMfblfyqYqWdXjR7AvCBXPx2kIRfzAH4ZnKfcRJnJIPhWzypImSKjEn2ZnwiuYU+ZKcH89Z9gGXjx5582oeqJnfs1O+aO4DyXlbjX10q8O3vt2g4V+f92GwMyGPGouj2AxYsX52vinp6ewoSe7nP79u0VVwZyf/dzBCxfvjx/TLyGd+X5MsPf3ea9DcfBgwdzN910U2F+gGonFGmWCUF8VPn91n7vruGCd1pb+uQSxh9e12Wxa59cgwB8MHbeuSUEYLy17/1+n63wbHz5Ey3FeUeVX9KPLYmmrYRbf2HsmOPK3Ku/h0n2LMvN23fQauV32TFfCv73mdi9+rb9NVabV/N97pZ0jw1yGqxgdN0CsHTp0qLu+b59+3Lt7e1VTcThy5o8eXLummuuyW3cuLGfcZfj1Vdfzd1xxx25WbNmDZglaKgFIDIBGF8mEcMH3f5U0p2DuBrPNDOw95jbO8ViAn6s/Fv2Qr1g7mRX8PJnykStp1l2mReA71eR/uqPnRjraVhbYmnxlAXRvGFusBqw3LDjMOd9oqXLvs+CYeOD6bfesJl5n7MZc7Nlrve4YKhw2u61p4reFNl5F1i7faqV2WWi80QwvDdhffVn2u8vlLnXcbbf6TZ2Y4o1K3yM4nW7p/XmQWkQxwJEwTDyrZZ4VTa5yLvXnZ2dmjdv3oB++J6eHq1Zs6bqAFwYrHPlzJkzJ5/dN2PGjPwKwe3t7Xm3/8CBA/neg5dfflkbN27UCy+8UFiGzPcoDLHb759Lt0ZgcdBEnYqfHAULSUR1JLukRugaEjVG5ZN1fJ/REMSYqvYAhmJzNXc9s/c6D2IIXf6GWhcgG3vBSi0bFXYNZmsIEMVnDcrU+BIlYteaq+KFr3ZYa3zkY7z7MypSZnqQ7zUX5OwnSpw/W6RrMFHhXsvdV/zeMo0U8CuXt19r95urueNdgvG+fcUG/PgFSUeCkRwOnB1C9yYzDMdmRugaB6ucWnIMcjWKS1Pho/CDXaY37kam6ddmAwAEAACGWAByPC5oFq+eR1B9DKDaLr2JzTSFMxxx+HezrcL0ZfD/pBPW317Ngz0PZYUGxg9A+pCJQIYKqyJdKZu04uQyU0X7MeUftqW1VwdTVAM0SlO2zwz/umaZXWgE8bbubD+/zn0uWPyxVOJA1lI4P8rzgwbkGFt4pd5xJkfS5m39mshGeW2oYn3+UFUfsiWjtuMJwAjiR1B+wIZkT2vGCUZHCOcxne4Neq2kc6tYMQbXChrdtcX4y+OzQJ3NL/CZgLfYqjuViGLLbCEG0EiGj/FXR2Q2X8jdztoIsI9Uue4eADQf4XR6C53th8txvduGevppulBTgNHlJUU2LPt0G2ofJQL36WWbTCNRw2q6ANAcxu89/uW2wlbe9r2r72ex3WQTNXw8mM8eTwCgud1+P/fCp21+ycKSevEx7SmbieYnlvk3LuhTRQgAmqvW9zb9ls2VuSqe/p8sclDSPIFvW4bg9MD4w0HT9AAANBa5oK3ve0UekbTMVqkaMPanlBGH8+4tkXSFpQK38YwBmoJ1km6W9N0iNl1VLZ6IrezyXptXfr5N5HlMsNIMwEgQMUCtwCFJv7Bl6FfZmB3FpnIDAOhfywMAAgAACAAAIAAAgAAAAAIAAAgAACAAAIAAAAACAAAIAAAgAACAAAAAAgAACAAAIAAAgAAAAAIAAAgAACAAAIAAAAACAAAIAAAgAACAAAAAAgAACAAAIAAAgAAAAAIAAAgAACAAAIAAAAACAAAIAAAgAACAAAAgAACAAAAAAgAACAAAIAAAgAAAAAIAAAgAACAAAIAAAAACAAAIAAAgAACAAAAAAgAACAAAIAAAgAAAAAIAAAgAACAAAIAAAAACAAAIAAAgAACAAAAAAgAACAAAIAAAgAAAAAIAAAgAACAAAIAAAAACAAAIAAAgAAAIAAAgAACAAAAAAgAACAAAIAAAgAAAAAIAAAgAACAAAIAAAAACAAAIAAAgAACAAAAAAgAAjcT/BQAA//8DnlsmLIONkwAAAABJRU5ErkJggg==;" vertex="1" parent="1">
          <mxGeometry x="380" y="512" width="100" height="100" as="geometry" />
        </mxCell>
        <mxCell id="0Ma6VZtYf2KCyxoi-4m5-65" value="" style="endArrow=classic;html=1;labelBackgroundColor=#000000;fontSize=14;strokeColor=#404040;fillColor=#404040;gradientColor=none;entryX=0.5;entryY=0;entryDx=0;entryDy=0;exitX=0.5;exitY=1;exitDx=0;exitDy=0;edgeStyle=orthogonalEdgeStyle;" edge="1" parent="1" source="0Ma6VZtYf2KCyxoi-4m5-34" target="0Ma6VZtYf2KCyxoi-4m5-51">
          <mxGeometry width="50" height="50" relative="1" as="geometry">
            <mxPoint x="310" y="430" as="sourcePoint" />
            <mxPoint x="360" y="380" as="targetPoint" />
            <Array as="points">
              <mxPoint x="335" y="470" />
              <mxPoint x="230" y="470" />
            </Array>
          </mxGeometry>
        </mxCell>
        <mxCell id="0Ma6VZtYf2KCyxoi-4m5-66" value="AWS STATUS&lt;br&gt;CHECK" style="text;html=1;strokeColor=none;fillColor=none;align=center;verticalAlign=middle;whiteSpace=wrap;rounded=0;fontSize=14;" vertex="1" parent="1">
          <mxGeometry x="375" y="602" width="110" height="30" as="geometry" />
        </mxCell>
        <mxCell id="0Ma6VZtYf2KCyxoi-4m5-51" value="" style="rounded=1;whiteSpace=wrap;html=1;fontSize=16;" vertex="1" parent="1">
          <mxGeometry x="120" y="510" width="220" height="130" as="geometry" />
        </mxCell>
        <mxCell id="0Ma6VZtYf2KCyxoi-4m5-53" value="" style="shape=image;verticalLabelPosition=bottom;labelBackgroundColor=#ffffff;verticalAlign=top;aspect=fixed;imageAspect=0;image=data:image/png,iVBORw0KGgoAAAANSUhEUgAAAfUAAAHxCAYAAAB02SUHAABoRElEQVR4Ae29B5ddV33/zUvQS5gX8C8qtlUtj7ply9bIFsbCSIx7gShDsx5kTMa4QEzxxPmDYosy4Fg0+8lQ0tukL0oeJoV0k0ERoH/GkgeDJJt2H33W8s4ajnPv7HN/Z9/f2ft+WeubgKS5c885++zP/vXXDM9/9B/9R//5n6suW3FRo69o7KIml2j6oma7aP6iOl202OPnZiq/Y2LJ7195Ua+RJKk5FXQxkiRVYD21BK6dlmvule85/cp3H3/lWkZKfl6SJKhLkgToRivWdadkBehXgK+1IEmCuiRlZ3lPYHWXDm8D7IOLn3u1QmtGEtQlqS2SBT4OwIGVgN235l8B/YQs+kFJEtQlSVr5CngA0KJgnFSzsuablCSoS5I00j6IC/Jal7GSBHVJksZIZgslYVIrtfjKQWtc2fZIEtQlSarGxWcEy6yT76aGuI5eEtQlSW710pLbNmzevLh7z675uiow6U6AlwR1SRLI26MA3DvvOnDyPQ/cPf/Iw28+/VtffF/nT/9oCnX+9Zuf6PzwzP+bRKe/feK/fg/6yIfvPct3QHuu3X2K77X60vXnBfhBShLUJUkia3q8jfXi6zddfhY43nvvLacAdgAoUM1JHC743k8cO3IB6B94/djJLdu3nm4x4BWDlwR1KUOpAcx0G2CCRYt1C/BOPPVL5x3A7Qp8vAscWloGe7w14yqVa7cEdUmSe30Si8wb4ECsu4tcCi59QgvkAThn0U+rTK49EtQlSRr1ylzH8gRMWOACuC2Gj0UfYvaO7nlZ75KgLjlJsfKJQVvlxMHf9KabSFgDRAJyYmsejweQ97DeFXsfjCRBXZKLfYqNd1DudGLBssTbYcmTVMjBapBd7OSalwR1Sco48Q1oHD16+0J7E9okDljE5LHiB+mat69jSRLUJcE8eTna9p3bF4DEN756LEPIyYrHk4JHZUBwn6gXd5ckQV2SxoD5IEAut7oA32fcfbI33CVJUJekcayh1K51gXx4AL9339WnBw93SRLUJbnZ51Ilu1F2NtwxcsXgH/3lw4vUxAvukqAuSRnGzHdcueMMlppKz6pSqRyHvIRwn9B7LQ0b1CVpZQqYY5VTRx6T8CbJPU9Ohc16V7a8JKhLqjOfTjFy1GKVS7LeEyXXzanOXRLUpVI7wE023TSGJKgmY+WSYu8kUiYYKzvbpUOdJAnqkjLacbGnzGCX5JonsS5B9zol00mCuqS4eYiXs9EOEuaSRFin4bj7Ym7xdklQl+Rqn2oa5oXFyyXBfZaDb9vfZ0lQl9QJbl4wl0rVZ0880AHupbvkJUFdUlb7jGAuyXLvS/NtyZKXBHVJmmgqq10wl4Yc7jOy2gV1SXK0zokLKptdkp44duQCXqaGEunGctsPJEFdknVOnXlx3d8klcLJapeGCuqSrHPclSU3jZHUxOaN4/sXZLVLgrrU9iYyi9YkONyUw7K5S2o/y9z+BuA+LatdUJekJuvOZ5qIm7clCQ6X/2998X0CT8H62JPvLC3ePm+ta5cEdUkatdadY6m0zNXOAUPgK1xHjtyKG7xV8XYOtg3Vtb9GEtQlqa4mLZvPqkvXnSNpqI0uUTZ8ga9o4Ylp5XNm/TVQAjcrd7ygLkmxWmFNhrtu/56Ftpao7bhyh1zvQ6KLA1k6LV2HTWTJL6phzXIS1CVp1JIMt/qy9ReIH7a5xSffUw1uhkOEWQ69cX9rvx+5HYSn5I5vnQR1Se52SnhaDkusdMXTveVwiDPkdDhY7XLHO0pQl5TdTlYvrTIz2eAds6Ilh3pxnrmDte5itS8qO15QlyQ2gTmH2LmLlc53VjvaoRJr1MFa97Pah3dWu6AuSWOW+Dmx88zcsIB9yKAmPfTgPTz7nMIuWO3WDPlp7W+CuqT4eXTduaFfu6eVPqSlbOrqxrPPzUtDfsrhwwfPGMA+pzj7cEBdUvx8ut+Ngk2GzSbXTf3Lzz40hGCTePa5HurIV+nWjU5d6AR1SUCf6zcZ7ksz7z2X44ZOklS4jv/4++PRPzf12FszkBRjfR98wz5fa92e8Ie36Yzq2YMEdUla2W+7VzaTXJPLCBOE69h33dWdF/79U3WsuwwkxSTAPfmrbwv/noNAth6Ho0dvX1ACnaAuSQB90d/d7tP/O1zLA+++fUihLqh/9Y8+FP49XeayDiXgjqcFsxrVCOqSxqXWkr323D/RaOn1fOHE/UMKdUGd575u46bwM1RDZA32UNM+fJnxgrokoHfqilIaNo0SRm8uva5vzx3rnP3WJ4cU6oL6XXfcsLS/Qu7rm0MrXRz7BfuMMuMFdan8kjXi577u9gRlbGjfvqs6Z/7142gIoS6on31uuvPBR+75uZ8r4eAamtWUXfImqEvSdL/x8xJrk9ED9906xFAX1HnufzjzEP/ev7wtYdmbwC6oSwJ62vi5f4JciKcPN9QFdcS/d0yYSx9nX7N2w0t9gn1Ee6egLhUAdE73MbPFccmjHBPkQjxdUBfU33DTGD+TY8JcVH09a58Q2hAOgxHUJQGd2eeRcUVqe3OBOht1pa3tNjb0JFB/bNtVnQ/vvjaRpC2r1jUK9WpcPaN+8OEdNLSXFdgFdakAoNsT4sgix5rPbSpX0DsmDv481J9/tjGof23N7oSSXrt6Y6NQJwwTfi6zDnPAus4I2WEBu6AuCeiMS40FOpY8G0lu87OX6ompiZ+D+ounPzecUBfUCcNUfj6v+fp4obDY6yTQCeyCulQC0O0Z7iE+ByhzrU1HZD0PMdQFdZ730udPOKZyyM1ulkG4ZoFdUJcE9FpzqBH/PVfXO1q6oQvqgjpNaHJ1wSOul8M2h+46P0NSrMAuqEuFAP2JY0cu1N04KPlh48jZ9U62s6COBPVqslymLnhEgl/dAzehtPzALqhLArq9Bj243Ynd5dwWttp0Juj73/3MEENdUA9NaPxd8PYDLNc+ALDPq0GNoC7lCXQEzIOVnr3r/enjR14N9VMnhhjqgnpIlvN3wdsbLHH47qdJDeWsvp3nJEFdmrQDPd4CAOw5Wi5VfeX3Hx1yqAvqPO/KGiBZLnsXvOVd5Wcpa/UBuySoS+N2oEdn1gYrPXPXezVJTlAX1Hsny7H2c2yHzPsa7WWwd5+b034sqEuZAJ0GM3Yr3S9xqHofxsZ2/7dQX/yPp4cc6oJ6NVkuCNDlaK2H4TR2sKecxy4J6tLKAQEd8XJnY6VHALjaSS6I2dpDDnVBvZosF8TBNkNrPeo+COyCuuQP9MVBAR33da5WevAwVIQ11jqoz27f1/mDq65Pqvjv4/DdHKC+ePLXX7UGvvmXv1L9HJPF62ytG8IHJrCPx+1lkqAukYwyPyig80JjoWdqpVOvW70fCGvMAep2SBlltYqTygPqPO/qGkDrNm6qflbIJs8x/BRxLwzlbiawS4K6gD6XHOiVErZcrZQQNuD7dx23WtHZ56YFdUE9jGGtCrhl9w5wD+Lr7ePBbm9OIwnq0vQAgR6s9EqdbvalbFhhbNzdJKgL6jQm4uezL22r9mlg6IsD2Ee0dwvq0qs1ZejlbrLSXcp5EsxOr7aHFdQFdTwzPPOqmN5X/Sz/Geumd8EQQjCDXTXsgrpU0bgB6GYr3Z7165v52609rKAuqIdnHpkBzzvBz2WpJt/nL82891zN5zsTs9dJgroy3RMAPWS820/2/vH0+Mz3+KEugnr5UA8Z8KXE1UPSqN3zZhrbOqX9XFBXYlwNoFN2goXdJBD9y9js8fSozHdBXVCviJ8vKa7OO1G9L1Yx4VEZ8fES1KXoTPftO7cvAPSGY9EhQa6Y+nSEFSaoC+rVYS6xGfD+cXV7wlyT14B3UBnxgnqDUmIcSSu4BJt+8c1uOn9XY1zP94q+/51PC+qCeugBn0G9uv+B/Y3j+xc0rlVQb0hKjAPoTde0hvKXzC2S6J7vNYe6tA5S/Lk31HuFajKAekwP+Ow9WHjzwjVw8DV8lrXrnBLnBHUlxsXXotszxrPsIBcBkVDOJqgL6t//7md6rgPm7fMZefSB93/H+ayas9gntd8L6uoYt0T333/Hi6lO8fl1kIsAXETmO3rh208J6uVDPQxzqV3WZrdy3fNNknnj8BquunRdnXK30YvS3i+oq2McMawUc8cLsES4DhvU6f9uhzrQqaW1q9aWCnWH+2WHOq2Ew+f4z1dPU7NebR3rUOq2qPh6qVCXxu2la/YytswbbAT3YkQ5mxnqDioA6g73K3pCW3xZGyrmHUlRd3/06O11Eudmtf+XCnXF0e2Z7ga3WdX1XlqSHPrK7z+67EaOBPXyoR76vvcQiZWlNaEJLvjkoYT9N1z7guLrgrri6MuI9oyJTu65uN4twI0AuqAuqPesVS/lPcEjl9Qzhzdxw+bN0Um/ql8fOqirHv3RXz68mPgFR7yMBSTJGaH+/LOCeuFQP/tvn1h2HTAnIOJ6s56zbj+g2BPnVL9eCtSlsdjNCVdWQldcEd2yQnMNSzlbtaucoF4u1GPWAYmVhSbL8a7UD7nZE+dUvy6oq687LqyE1jMgL6HhDAIsZqgL6oJ6pVa9qM5ylRLWBB46cyvZMfEhR6hLM4aOcSlebHunLH9hPXEdESNXba1iBfWsoB7fTS6+Vh3xWQUklaY/0LPPMJ+iRpnbiBhRJNRVvsYUpPQuuCIsD8Q1xNSom7vKCeqCevj8QjxbhtCbIb6uMrcCoC5xAl00NJhJ5noPpS2lZr4/MTURDfXF/3h6uYQ8D2HxtB/qGdyvF7/32fCsTbXqwbotJLG08vfu8fUJ8SIHqEuzMQuaHspsSAMoaymhRCcCbNXGM/YGNP7KB+r+iu8mV5H3NRe3BxBflxu+FKhLEwa3Yaqs9xJK2cL1NA51QV1Q375zG9dX3Gz1qrfOngVvr1+XG75IqMvtTovFQbeKDD2gS818R9/8y19hk46VoF4A1A2NZyoNaBzK2hxmJWC1+69XueELgrrc7mSIeiSVlRBP55AS33hGUI+XoF5yBjwJbB7tb2mmJTd86VBXkxleKI8XOcTSCipns0P9B//5eUE9b6ibuskFvWPiYPVaSwpbIbfniBEjN3yxUFeTGU6uHi63sDGVlPBTEXHR2lCn7ElQLxLqddYBpZAll7WFA7FLKA7jQk1pcoO6NO3qdo9Ijgn16WVYG/ZuctUGNIJ6WVD/wcIzdqiX5eXi2bkd8j/4gYmXNHs9F6hLo15u9wgAljJqFdEJr3GokyEtqBcHdTwwBqgXWdbGwcT1oHLlVTtj4+tTgrqnpHlvt3sEAHDF8+eF1ajbof7Ct58S1AuAuqXxTOgqVzrUQ7voqMRZfzf8qKDuIWnS3+0e52oDCIVYGta+7w616oK6Q426AepllrWFapj4uLprNvycoC61tiadE6p3ljh/Vk5M0N73PYgMaUG9PKjTAlhQ755n45k8i5Gj2vVsoa4JbPfff8eL3gllnMgFdf9adUHdqUbdDnWqLop8hzwSADFylDTXNqhLo/4z0uNfGk7nhVgZBqg71KoL6m46+9x0rTVAJ8Llrp3PLSOE5f886agZCfZpQX0QkuZiFiQvkFtLyPQvrntIwQ51/1p1Qd2/Rj2ofKiHChL/sALGzpq1G2LL3FYK6ikljTuMVLW0UgUGQwH1L5y4n825qLI2Qd1Qo26HeonvUWsOK1+aea/mrgvqeXSOW3XpunOciL0zXIP4LiVuRnET2uxz1asS1HOuURfUORw7J/IGke+z4NlpTlCXJj1q0g21qIg/F9QdytoEdR/RJTAF1P/kDz7E5xc3FOmzJx7wDgfEaF5Ql5rWSGxynP/GXydmJqiTVCWolwN1wikpoH78I+8oMgPee3ojFUKtLXET1NXfnTiR8wtbZOY7LkI71P3L2gR1r3I2O9Q/9L43F5kB733wx7u4+rL1FwZZ4iaoSytjNtO9+64+3QLXmtMm7A+0AHXPDHhB3V9nv/XJNFD/5V8o9V1y/04nnvql85HW+qSgLjWhWf/OcdGJJ33EywT173/3M4J6IVDneaaA+mMf+MVSQlnue5eh0xzW+oigLqVuNIOb+3QLX1ZAIKg7lLUJ6i6ikVDfa4CBQMu848VAnQ55nj01DOsbTQvqUlIrffWl68+TxdnGuDPfq7A4oB3qDhnwgrrDdDY71ItNOuVa/J+rqcRtRFDvR9KoqYTNH3z8eZEZu3ao+2fAC+r+me+Ceru8EBgh7ta6oC4rnezNFoIPF5ugHi9BvQCoMx9fUI9/n9p4bYQy3ax1QV1W+hPHjlxoaVMJXlRBPbMMeEHdIfNdUA9evaKtdUFdmvVtNGN3qQnq9UQnMkE9b6hbnv/2ndv8oe4YqrN7HF0a0owI6lJjVjq1lW3OaKVTlKBeTg94Qd2e+W4oaSOJq5T3ibXU6koZDhiENv2sdUFdVrq/jBuwoO6fAS+oW0SvgZRQR4VBvdU9LUhA9rfWBXVZ6f7lbIK6QYJ6tlDH0yKoJzACZK0L6rLSXTd8Q0MJQR0XrqDuBnWHnu+CehCJtuHvZK0L6rLSvfWxJ99pj5EJ6r7tYgV1hyQ5Qb2SCFiUtS6oSzNGK90feoJ6fslygrpDkpygvuPKHVkkAmKt9zPBTVCXRvytdFON+tBD/YOP3GPe2KlzFtTzgzoeFkHdVgJrvz73uvVJQX2ppOmY7nF6QdMBixI8rgMBD1xv6aHunywnqPsnyX177lhtqJOzEtYrh2r+N2tWUHfoMlex1gV1acVAe7wL6py+KaHhZaW+vmtdMJtkeqj7d5YT1N06ySFCN3WgDsR7Nqkhx4WKlMygznfO3VofF9SRNOnf492kHFyFwRoPM9+jFMBuh7r7GFZB3SFJLgHUA9CjxIGVf88BlnXccqizxnK31ucFdSQtm4hx9OjtCywsQb1Bazwe7GyMBqgna0IjqPsLz8pAoE5iWViHlrXMPXS2iAMk/aGeZt76mKA+3BqPWSgASlC3W+MJxUCORqB+9t/8n7Wgbh+3aod6Wjlb8TzL7BpW7d13dYy1PiuoD7fmllskd9514GSOncacrXFPqOfahEZQd2g6g/DyeK7dOCteUCcZ0diMRlBXs5mqS0pQ58WyW+P+UPee2CaoO8TT/aFusOIFdUSvkL6b0QjqKmPbvnP7wqA27I98+N6zD0ze9VIlc9Yd6ljjfKcQg2urGJ3JBu0XVxfUHeLpDlAvw4rn86ytYtkXOOBTGcT6HEQYgX2y7/I2QV1lbDSbSQVw3Ppbtm89/UoSzhn+DIA25ZJqwhoPXadSaN3GTZ13TLyhOsfaJPsG71avLqg71KcH3XXHDY2twQfuu7UzNrZ7IFY8+4Ud6vZWsXyXA68fOxkqhW543bXPPfLwm08H0Du1jh0X1F8llbE1sQAB5L333nJq955d89XPJ6ue03eCbmsttMZxke/tPDE10fnK7z3aOfMvH0P8WSuh/uL3PusJLEE9fX16EKGbxtZgWNvf/IupztNP3tu56/YbOMCmtOI5gLM+XKBe3e8wTvBwVg4iZzFinpq+/3n2O5W3CeopNJ+ijA04Yt2zgFnIfE5VnGgBfeIWqq2wxrHCsca/8PT9nW9/41gAOUoC9a/8/qNNQR0rsG2lOg5Qj5XDcJDnn23sWR9sEOp/OPNgdY0j/nwQVjzAC1a8HeoGAW/20KpVHQwa9kEOAPw7+6jprhoV1IdDYw2VsXEyXRbiITbPAja4osxQ97PGe6vXJlf9O/tQl3idfW7aE+qCevp+70G1wbmDkFE81KsKVjwHXgcr3gB1QzgvuOeDrJAnZBmdMCeoK0GOeshemzAnUOLhy7nvcRMZ3E1mqLtZ4/Hq+dkL33yCz47+Lhwm2KQzKW0T1A164dtPNfKM8e7EXte+fVd1/uq3HukcfMM+E9Sr4gD8wYfvHqgVX903EPtE6lGqgHu5DPa1Gzc9j6GEwdTNEOLv+kqYE9SVIBdc6pwkAXXMgaCyGD2g3hJr3A519IGH7q6TqJSLC15QN4gmQdbn+4UT92MpRwP937/2q6xHO9S7i4Ox3Yo3aJA5IoA75jvh6STxDgOpxIQ5gdmmiZgEORYPiygkfCynkPQ26M5zLOz41pVe1rgd6ujXf+3t0d8Xi+ebf/kr/i54QT2JSGK0PlsOf7HXw9oPQLdD3duKt4cdPaz3qhWPFzIyYW5OUB+2DnIGAf1Bz1jnwEFsnI3TyRp3gTr6/WcmozvXYeVgiTm74AX1BFo8+ev9Pk8Oe7UA+cDRW8P6c4G63Yq3x+L9rXezRgT1MrXStjDssXJDWRwWeerYONZLhDXuB3VETBNXaLyVdZB52Q4ueEE9UdZ73673p48fiYYhh0e8Q6w5f6j7x+IxJLDiPa13g6YE9TI1ZVkYLLCQwT5AqzxpT3VqaLHGycaN20j8oY5whdIwxN5C1sUFL6g7ZL2zzuMbI13O4ZG15gD1dlvxWPCmZ2jInDdoXlAvT7hf+jr1saAc+r9zWgXoqaxxwwbiDvW+EujIcvZvRCOoOw1wiQYdNeshfu4PdZsVz0GmyT4QQYDWY5Rzte69piYE9TIy3ceJo/frYmchZTCRyMca94d6iLNjWaUsd6N8yhXqV6/a0PmDq66PUr9Qn92+L+rzj4zucoP6Dxaesdeix8fPs4Z61YrnIN9QW2bc8W77YugN0qdrnp+ZIhSbH9Q1fW3a28XuUKrmYI37Qx393ewHl+0KxtAOQ8IcQPGCOlZ0gK+7Prz7WheoG3q9k1OxrLt95lP3sZYcoJ6fFU8iXVtGsXafsR6VFT+O8Seot9cqx70ynyCL3UUkxqW3xv3Vwy0KrNlEo3X3Ha+Lh7pPwpyg7pAgR6fBbt91x65twd3uAPV8rfg27ZXkHoXytj6t92msd0G9PRnt0/3GyznltXReOhtj66xxksZwRQM4xl6++H8/33Uk5uKpT/Pvq59Rp/c7rvVamy2ZwImgDlAAiw/UBXVm3PMcmoY6gGbtDBTq5AW8+N1P8550fX8Q7xn/9gyHGQcr3qGe3Rp3t8AdzWK9C+p+/dtn+3141EJGwNxVMZOgkkP83z8ZAG6ZeQ3cBwF1/n2SDPig75864QR1QZ01ZOgc5w318D71GcYhn+BZMv95H/mcRO98/LvZ5v2T8Ckz3g1JdXh8JwfjmhfUx/t1saP45Df/RdnrOhK9xFgFAeJpenX7Q93RWhfUHax0hJemV1vhulDHZd/t87qFwJIkW/KepoR8r7kL1K3nsI8Cd3KljK75EUG9+Xj5JDe4AJibN3oaTTRpieMmD2701OL3JYQ6tcU9O8x59IMX1B1i6fFQ5+9qQz3iwG0Huj/kCWclmK3vI0PGfFCAu6AumDdbzgYE+31Jic2xweDGc7guXI8WqNs3XOfpbYK6IePdoDd0r4yga1xSqPPO4To33AOLuz54yPoSzWyaesaCu6BeNswN5Wy4C2u+nPTKTmSN293wPQZrYCnU3XBp2BPXgMYgwhSCenqoc3hq4Hnh3TIcHE1QxxPWiveuD8CTHxDzjAV3QV0x8+VEK8ZeoIt1rZNh27Zr43AR6+LDNdpsEtNDdkjEJs0J6na3+7c+2ciz4js1VDbJv68D9WRWusGCZ1/AgxBT7uZQ1pZVQh2asibUFdswxjJBjdI0+4CVLMrZKGNbDuYRiW6+Sgn1d7zlYHxZm02x91lQt09iM01lszc4ik3G3Ft9F9v8HsbA3QHqfnA3gJ2fnSwO6oae7DP93swt27c61Jn7Qr1aMuPq6jP07w7fucegjYuAPsRG2lStOkNgmoQ6CVzm+LqgHpXt7lDOZoc6B5Mc3kfyFrrsKT0b0tgNqeLq3OcxUIcZ6hP9xs1xlzh0gHOoUY8vmQkx8wzE4aMStxvIpktslY3eE+yCun0KmyHz3X5ofOrY26Oh7pOQarDai6lVt3vPDO1nEYbqimGC+kqLq51JPaE3e6mqWTJjdgM7xNUNUDfGPNnsE4C9OslNUHdyuVeEd6bJREwOCbH5LvZ4utthO4gW1F2v97MnHih6H8ZwXH3Z+gsGl/z4MEB9QnHzZV1AtaBun/ftG1fH82CPecZnwIdkuQQCSpTtNQ71LavWAdNW6NCG0cahHroOpngm9CeIz3y3Q72U99JYq15UvB1DMqXVnnPN+Wy/rvYnjh25UMACsW7yuMKSx9Ed4upNQx0LP22yXMSoVuLCwGo5/cnvBc9COTp06PrlrhvPBrFcM8wNSXIMcml0bVHX7R9PNycoCupdhsYw+MtgtY+WBPXRfmPnbxzf39vVLqhXLcMcY3i9rCm6xDkkyxlkHDZSgEJLXnc9ffxIr+lsrJUEfd/zC4lVvSbVBjT2uerlCANz1aXrzhnK37KH+mQ/F08c40sz7z03bAsGEafqMWK1BNd76C6XrKscP2NvF2uUoO6ud0x0L2+k9NEe2uk+aCnnPcjcgKb8ECkz5RcMk+BW5Ar1kX4uev8N175QtHVu6CaHBepbMpNg8tYyyTi/9tgv1t54cavys/bOcgYJ6u6iHMveHrZ+Nzl7r3f30Fgk1K/n3w+r+q9tr9S0F50UVy92Lqj7l8yYs22TNKBB+/Zd1X2dTU0I6oVDnXh6fCc5uweIA0R4LwktFfBeIrwPXa9533VXR3xe+bH2PtrNzmYK9fimMtyUkNk+7HrsAxO+JTMOLnjidk2WtaEHjt7qCx1B3VMc3BqPp//Gp45G5btk/l4SV8+7q5xDhvwtt95QF+wrcoT6opLh6uueuw7EZNfS3rGI68UF393FhzVwFRtqo1YV+vbcMUG9XKiTENl0PH25uewluN6DBPU+k+hqvCdjuUF9ZcyF3X//HS9qMfy8IrNrK5PC8nb1MTjCXtZWL6mJzGhBvUyoc2Dr8f2wuPtaT3ff+brlvGiExEo5bMdB/fnglZBC9VLkgJjJ3KA+vswFseGe1SJ4ldgQY6BOjW8R14urkutpuEkIwiJrfWkbsV8swJLkfWDi99vr02vlafBuluI9Q3gcoqD+6k6K0nseuHs+Pq6eD9SnlruoPdfuPqUF8KpYVizU+bdFbSDEJJvOVObn2uuClxxc71jb/Xp+lp3JUKlGKSZZrtc8+n/6+kcqPyv91hffF9uQJh+ox3SP4zSjBfCqaUmxUCfJrKjDDDHJXvFKNlV7aZtzFrzkkPVuPyBG9D4o8Z2M6iPxR198OP5z1UCsqpGcoN5ZTo88/ObTWgCVONa3PhkN9dKu/emPHmk8Ax7dfcfr7FPbpGyE+z+B651+Cb0y3ys5LkWExWKgTk7Iqw8zUq1kuUKazlTH9kkknCw3gIKEMl6ys//+yeKu/6///PEUyXKhDMlhwIvk2HAmPuvdnp9BklxJ4bCgaKgz56Cv3yGoT+YC9VFBve850jEdq7AKhu5FoAd8iix4WokKhmWIBLkUWe9oR4/Dwhc+80slvo8YD1FQf3UZn7Rl+9bTkRPcXlNMv3fVpr8qWSwa6iHzvTQdOnSdvV1svUY0iDisoFiACF3Vbzhjz8345785XuqeFAN17r1K2yravWdXdAZ8Vpnv8U0LpLP/9oloqIda2NL00IP3JMlapiUon5GrtU6WPpunp+yVAr71/h946O4UIRzc/SUn7sZCXaVtFd1514GTMRzMBeqzgnot8ULwYsRCnfjd0JWC4EIPm6y9cYjNWq8CD5GgVRVZ+1iP3RTyJwoS19TzmrkvVVGFUL2fDN0xW+n2BDnUszLjnnteX3JIMBrq8eV8qlXPEepzy1wErgmVsy0RL0QdqJOZWmgPZVtc3dA2ltpmAIPVvhRCIfFK8hfVCkufDbANB4NlPDFhHTTedOZjT76z5L4Z0VA/22/jHUF9NLNytnioy/UeD/WC7wVzimt3lsO9zt8hYu9ho8c6pxwOCYrDK7w8YR2wJsL6YK2EdcMa6qfpTMGDqDAeYqEuF3xFH/nwvWeHG+rKeo+FOj2Zw88OW1wdi4vSoqSglqSwvlhrvbwAO67cUfr+VAvqyoLvqwHNZBHlbCQRLLkBynqPg3pxNepYOSx+XJjMkX/Tm24KlrqUheQBOPTG/axdxFpGJVX2YEREQ11Z8AVDXS1i4+eJVxN+iBv26CiXVULKv37zEx0W92dPPBCgzSYY6sYlqWSx1qvQz81djxFRB+r1K3ME9em2Q31MUI8WnZjqZPEC9dbVqGOVLLW22cRkbUtST+G6510h3MS7wzvEITi3YUtVqNPqWlCvB/XZvBvPCOpV11ZtqDM9yRveR47cyoaUaMOTJFn4vGMckp1hjxGB97BWKah/ya2fBHXVpteF+kBemOAyx4qQu1yS2gV7DtYDit0D9d55PtU9TDXrIV8o9rnOCeqFiP7t3lCvWt9ym0vZSW58clWw6mne1LRVz35TF+oocnKbhrqgAlrECuq8KN1eBpqgdLtvTz95r6nxzBKAsxm0bIOSFZa7WndflZVvsOhNUC9oPoWgPiuoR1rp9edBM+KxTuZ5cKEvscCVmFRVSFZiA+wiLCA2x+WkIUX28sZlFRIyuyhUWFSk5E3Wf3Dd18nA/96/13a/hw5zw1zeJqjLSrdDnRcViBdghWNpxIC3CtvaSUWSFEJQS8W6qq413quCDgm8Y8FtzzX3k/BFqLDnXvb9U8N9yBXUZaUjhlt0vW/3vn28YonHQtzfOg7ZvNVGHaiQVpuSMp6DQm+GoBzCFHy3YMkboK7YuqCujPfoEZJAMkC8TZBmA5OlLEm2g0DlEBA8Aq6WPO95jyFIy+1n1LkPrQdIUC9cxJeoS4+Huo+7uwpqpM1XklrToRFVcwg8DvqECrvsY6pb5xkJ6oWLbNCYF+ALJ+5PBu1gXQNsub2lYqUcgZAXQC5KMoufAUvfnju23J6GMTM8SXOCutzuvBRPHz8SStn6FS9tsLSJiwnay0qSBH0O+tYGU3ScIxcodJcbwoY0gvq9995yapiGtoR56VWLHJD3YXGHTHDFsCVJStFNsjLHwQD4koa9COqap47LiQEHS+PluKzWbdzk2xJSkiSDBPsIyx6jBS8k3sihi68L6gUDnRMrCSXbd27rCXCsb14aucwlKSPJlR8S9rom62HEYMx85fcf7eC1/MF/fr74e3PiqV86L6gX5nL/oy89Etzr1dg3FrgALklSkaAP8fpQk191zz/90SOd7/xr2SNayRsbKqhv2b71dKkP8zOfevfPWeX7rt+DFc5ClwtdkoZSct1XIY/1/qFHf6Fzer7te6KgPh17IcXB/Kl3d3bs2k6s6aIlfguWuCCOJEmqSJDH0MHgCZ0y//WbHxfUcx69ikqC+cFD13UefM/dcqdLkiTVbKhDMvChi3voY+//xWIs9z3X7j41bFDnYWZfe/7lZx/q/MkffKiBz5MkSRLgjx+7t/NP33gy+2Y15I1FsnCxGKjn2n6UxUa9ZZJFJ0mSJGE0ZZ0lT95YJAtn2w71ieKgLhmkeeDE1lBVb33b+HOc5nvpYn7G2bZM8GKT6vVdcTd2u9aPfPjes9wLjcmVNKEtP6iPxl7MIw+/uXUZ8JJgDICWAunOuw6crAJs1aXrzqWBp8RBpnq/q4eEL82891x4Xq6NmSRJUE/f/10SnNn0l0IAK9LJ+pUcFJ41OvD6sZNhHWBItOgwIKmbHJpsO9RHYi+GjVYLIEaC9OO/8rbvhI35htdd+1xKi1mShwDvTFhvdAbTIWCYJaijjrrKdZOyW6ugZriPrOhcJW8Ah8zqAUD5QsMtPEI11tJ4MVBHWgDlwZoFXY1FCwLSsGr1pevPh/eAAyzvxlPT9z8v+JcrnnONNTKaA9RnB1mrzmdcfe2V57mRasUqWEu5S+7/YPkDf7n+0+xreFUOHrr+ewyicaxRRyuLgjqLtan464bNmxeXlt8AeR7cq7u8Kd5TBTUKG0p8faUkSR6qJgFWDgAVY0kDZkJVy223v+7flob4Dh8+eCbF78Q7U+N5vgZoFtOAhhvd5MN74/j+hV51tiTnVetmS7CiQ4y6WgMti1qS5P7v1ksAo6eEaoAAbjy1S/N0usGVBNsnjh250IJytsXioM7Nb/qGUs4UrPY6Wrtx0/PVxd+9gYZdYQGiqjiBqzZakqS29QzAYGCPqgqjwrAfRjVughdGY4XR1wsYRC3JfJ/NBeqj3hnwnNwe/eXDi+GkJkmSJA2vMPQwpFJ7DQiD1Phe07lAfaSOayjFjRXcJUmSpE1XXPEiYYaWZr5P5gJ11GnTtDbgzoMNbnlJ8tZlq9Z23rp6c+ddq6/oqqdWb3fTE6u3dfh++1dtzO7eShIhzPicKbfM97GcoD4Xe2G4RAad/U1Zlqz38nTVqg1AqKoAz1ZAanTVus4jq7d0/mTNlZ2vrdndGv32ml2dqdVbuUfcxyLXB/c+rAn+e3nXqBwAPLOe2f81v/PKnKA+7d8DPs5650Q3+AUoVcGLIq1VABQFKv4tAD20ehObuDtQgGbbIH7X6suHAnB4RmIOUs+u2fHfei2q6zIcEJfI6TAkkB89evtCC0qX8TrX/f6vyQnqkzn1gAfweAyw4NWqtJ41XHUhA9HKpjgQqxRIsfm2zdLku7QB5jyDcH+G0Erl2t0OT9X3oXpA4NC59J3iANL9WqTtO7cvJAO5QRiJNa5jLjeoj/ony9ma2VDChhXP9yvRaulmIQPleCD7CYuK79pSS5P7yv1zvUcBILlakJeuv3x+7cbNp3dcdfX8zqv3nH7dwZs6aPvuq16s8zmsEdf1al/rXb0GXNvSd7lUaxyDC2higBXSHnY6N6ivcEiWSwr5t7/95pcvWbfh5TbHCiuWMxtAUjg7QByrpmLJCOYVl7rzPYrX/1q99jzgvnzr9pOA+/oDN3aA9u1vvrOrrj/wunN13w3Xte/gkSkN7jQOA+oYWh7Jb4mS5CZygzqKvsBqyYG3QltBFhILqi3grljS7dlMBCgsJr6zx2HH2RqPh/fWXVeeunps7Czgvvmu24B0Lb3+5kN8Vh3PGfdnWIDOIX5oXPdY73hSaXXt0g3PniQ3miPUZ2IvEHgK4N1d5WzaQ2BhsClFuNMF83Cf2riBr7p0/eL6zVtO4i6vwtsiPmfNuk0Ldb4LB+Ahsc5ZD0qaewX0obtdi2eoo9fkCPWJOg9jkNN5iH3kMLgEKzU9MPxd6r3dhYI5m3bwWrTpHqy8ZP1ZXOfB+ga+qbRxdOtCzXdnGICOx66xQzDPE09Iia776nAv5xnqc7lCfdQ7rh4mkZFhn1PCGy8p1pis8UJgXgDI2ewv27D5lN0Cr69d11yzqDj6q9cH+TNNPV8OTUufKc+YHAdyHTi4ET4pBfRhtkeTo7r5zBrfYSpXqKPOoOLqHAoY5uJvhdvEi1rQhgQAQ4Jb7nX1eBYcQO5rhe997f7zxLITQtuQGGeMoyt2zmHtHM+4ThgE4OOdAfgc9FgrpVjzcKSfkuiav3MsZ6jPpoqrB1d6KbXlJDolSn5T8pbRa8JzKR3kqy9Z//0A8UO335wC0MbEOMXROSA3uU7WbrpiobFnXbHuyatYs3bj6XxL6OIhj8Vf83esyBnqk6nq1WnUX4o7CAAWAHKHxib5Jih6g/zSS9afG926/TtuEI+wCEm6K6ke3SAOK41a53v27bswyMPZUtjnZNmvWbvhpYbr00M83QHqDnH1OokM3MgSrHNgKJDbhVWw+rIN55qKm6cIgWDxe2Wtr1697iejl285c9Ft+kI8xP2Afsm6TWdqvktFxtFZM1xbW61zq2XPoZJSR2L2bUzSI5t+ORbV9BRP5Q51FH3apvVfLNRxeWRsBRrdhAI5EGczwAIAAtuu3L3QQlc7LlO3+7Vx7aZzO3ft/r4pM91BV2zfeabu+9Q7eVFlav97zdoL8bFzP3HgYL2SkNkGq55y52Uak5ni6blCfcZa2mZPTrAnDf3vNetebirhig1IIK//DJZCfOkmgFXXphBIiJN75BRsvXzL4tj+/S+5WmMG9XM4K60RE2uRg0qqzPYcFZLzyPtIH6uP9x4DfUs8PVeoj6cqbSNrMQU8OCFSRsNCYnO0W4H2JB6vrHUvkOOKWy5xi78jPmj5Pdet2vBjrrVB9/pA79O6Szb8eMeW7S9w2Ml50w7Ps4B3ypRn0eT7Rk5ChJdGoDfkeTFcpsZnzsLEEqA+Ynd3pImrA/Be3a9I8ODFKD927m9hIspjeEm57wYXbZTWrFr7shUI4fCDZcVmPECQ/2jXrt0vVu9TkUAvPzGOw2CjDZg46GKUlAfyeNDbXfehIqvRUasTpUAdzcVeOFntqVrzkYwRXLhYf4aGF0VltlP3Sia2Vy101aXeXc2428dWbbgAjDO6Z8THL1wzNvYDf7d6stK1czUPykWUqAWYN+lqL2uN2JMuQ+Y9RoOpd4rd9T5SEtQnEmXBx35mrUVAhmjp1nmIkw86E5v+3XhG+rEyOYVbMmRXr1r7EtZ5Llb5hrWbzu/ZO/Z9/03avxa9oI5xrKMQppGr3UEkDVpDwSH8ayll84O6gwueLPiG2/NxWovqXsUDb7YrnNzruMJwiVngRF2t5TvsWLX+PJtp22Pl69duenHP2NiiHeRFAp1D6JLDsmDO/YuuOZdYc4akbVPW+0RpUEdz5gQFQyN93O7mrNuIDcc/E9cPSlWQEye1Zt3y89b4+TtXX/FSnweggVjll1yy/ofbr9z9fAExctPUtfgWsII5IkRY7/2SMC4M8XRLPtdIiVCfMMczDCcmsiNTxWjDVChA0CarfJDZ61gMIT7u1oSkoo2r1p0DAv1swKnDEitXr31587YdpzMCufdz5ZAlmF8U66Y/T46EsRFxj+mD0rOcGsPT7HovAOor6izcvfuuPh1prcfeYDYTQ4zWoZGMo1VuB7ndTWYJhdy0etOPONhYM5ATeDAq90tAL6x0DW9CxDvo0Q1Oit3ve0xvw+Csy4zxUqGOZlLUrNPKL+bzcAfbs9v9k+G8Y+WAKV13Knv9OQBok4sdNzNuv3CoFNCzKl1zPxiu3bj5tJLg7OIexk5ta7g/yoqSoT5W52a86U03VW6urbQAq7Kp7HaS4drg3gsZ7P4xcr965aDLV617mUNWZBZ70vuGRUAeR/nudQE9/mAomDuK1rNRMCZe3lAZNZqGfSVDHc0brHVTXJ26aGszGUBAjbJ3XbndIoi3MHH5OfT8trjb7TFOw0Zs92II6M616A4Hw9Qwl6hTt8bTCQvXfJ6jwwD1SYO1boirO/RtzzDxDQuTSoB4C9Mf6GyunvHycM8aPfwI6Kz5UitJBHMHxT6HBq30eZg3DFBf0XRTfUQJQikzzx1c7CGBy2fTX3/5Yp9ek5/htYjwaLha5RyQ2Ky7ifwOOl7FaMMVW79HZ8RBi9BV7HfEuxOuzR/o/jkrgrm/2NtingV9T7plvPdhpY8PC9TRdO3BG/v3LHBSMmQkWtztRWaxE4oICVyeVpwhSdEe4zTcuyr47J8rtQnorK9qeaNK0/IU+S0xz4S+J1WYP/rLhxf78AQvwrqyoW7oMFctdQPu9ub6cRvMoN3tACm1q9heH+0LdO4PG78d5pKj/Nu/OkwnVKjGR/QpqeMVhid0NjWEdSedoO5vrVvgXm1QQ2s/y2f6ZbenBxJJb/bsdX+gV7OhgYA9YUlylX/7V94/GkiV6RVTXkd0J1OgTh6X8Xljpa8YRqiPNDL0YvPmReDeUFydzSV95yo7kPytcgegY0EJ5gJ6g1UkybsH/u81617OoTe74ukGGaz00qCOppocaH/lVTsX/ZvJeMLc3yoISWF4BUiaIpYVYs4cMqwHLcFcQG9iOqFHmIb1H94F3gveD94T3pd0B2+JJM8BPud5rPRhhjoXH0Bsl3/vdtc6aTLYU2bREgf874BNvCr1pi+YC+guIHdQN/ArDt+f6E9ify72jHd/qHsNenEQsPCHuX/iTbCysfLZTDgkWCzspqbeCebKcre71stRsPh5P0MJoaz9robIIJ/NLEwT1BE3wwkavPw5whwXe93EN/7tUksbt1QEtN02/cj6fElA5/NCstvQr5kAfd7vpZZ++Ul6xrbT9uS4EUH95zVet4VsS+PnwNyt61QAN8k5wdrOsIZaMBfQo9zqeHHqNYWR2A9omRqsfLNrX/H0qRBHF9Sd4B7i5+4wNzSqCBa3P7ila/Zc9UJVN96wb/HoW++8gKp6+L7DP5p+/IHOcvqrLz3ZOv3a++/72ZrLNrzsAXTeL6zxdG51Kbj1S7Hw8VoktMwn46xzQT1oLIVbHpduTjDfsHnLBWLmJM005yqXANNSCL/+ddf9sArfKmQ/d/y9gG1odd9b7/op987cXyDepU54rEVJbnLpsw8x7SwH654cg0TZ7ZP9WeaCetCotVFNEKf89DCXPLVp8+h/QflDD779Z3bLV/rDz/+fznVj17ycGujBEgfiHi71HTt2/CAc8uK9EVKI37cN9oQWGrzOuWpmu6Bu17S9dEYwLxnmQFwQblQchvBq/CjBQZp3koZCvEtulvjGy68495Z7bv7xl5/6YNd7gIcmHAwfuu/wT8OhcezaPf91CGjfOyHYE0Zo4DrgzmhKtgnojv3bcQdiReiFFczlbq/XmRGABys8zDbw0s6dO88D5xThFA4H1QPAxD03vxTgf7FJ1kvmayjEjR9i9omgbnWxTwQXe2oJ6IbBH+k6wCk+DVwF8zIEmK7ctetlY+6KAeDpQB4scm8F+B979L5OsPzJ6wD8GzZt/sGw7SE0sMKyDla9NTmPz/C1yuMloNvjeHUkmC+JNWJxLI1VszGFmCsuWsE8fz109PDPSrEmgSRrhfXpf2/t4A8WP+/jMOw7dILrF/T8TLusckF9hQXoxOn8p6blI+KKS6HNJsJmErsZYtUNwhuAO1jgTQcQkuFyX8esYdbvsDw3O/TLBD11+JGfOebNu2EB+pxXhjttSUtsZrG0bAs35FJL26I7b7npJ4OAuZO1pdh5Bta4q1s9A0sfb8VS936poCfbPYA+/uf9mSeg9+4TbsloJ/6XvZs8gDu4yFPCkN+R8nrIShbM01p5hDNyW+PNWOMqUywX+IZe7Q4S0JstWSMJjvh7lq5ys8VtEJnDqWKvd9z8+pfTXpMsuDcc2P+jXNb77eOvPz/42LiAz/4SSvd4DgVCfVJQdwC6oWQt64x2LBJepiVWd6te+s1XbGk8/rpv757z6bu2ydXOYSwHiLfvYCfxfuIlCdZ95vH7UUG9fUAHzlknwbGJBXjzsuQAtYMH9v+k6Yx2/0OLXO3e7nRBXLAfoBbTMU1QHxTQibkTN3ftNc4G5m95tyOOThnc8JSnydXOO8CGf9/b7vrx8BziBHve8eDGb1EN/oygnkbT6WvQfePmlHsVYoEAiMbi6OVntMvVvtQDJStcCmJdtADqE4J6pkBPHTen5SHdkHqVkpXyMhLztt4vrMayNni52rHAY0NIktTLNb920xVhImXqUdIrBfXMgI6rvem4OfAOPYsZ6xcaHfC/e214pVh91tipXK7pExipHEjd74BEtuBC53eW5CqmjJK1qiz8dOq1vq4/cOOrxqeyvwbQlxZPRwJ6RL35odWbGtvENm/bQeciU5/hEjY7ixVH61GP7632rvbKC5eySQfPBl4oNUQaTAiv172NGfAC6Pfs23eBCXDBS1pT04J6c5q0A30wrva1GzefDtb4cmKkYK/PAoo5W38Mw+i33rz5jU8Ko0BDa1CsyKZgHizx4Eov3buCZW5J9Py199+nA2vNA1Sve9rnABeMrzpwHxfUm9G4HejpXe2rLl2/yGmxwTF/LOQCNj2VqHk1AcHV7V0mxMGB71BI4hv3trFe97RKjvu9Ep6fXmNZ+4U6Vvsy7vbOEo0I6k5Ap558kK72S9ZtOtPvomJBdvtcFnKJp+qqcP/ilmxq0yV+ibWP9YhVVO2oB1xKs8BZK8CzvvXtB3q+c5sOcQ5DiPi8CK+UxKGwV9Jxv/vvMvH2yVf6oYw100VOUF+ZYtIaf293tQ9mUbGQc7RkAkhjhNXThPXGZwBy4pZuo1gdIB6uN3cRi8ez4Bpysg8hEtgdytmwthMYVWixuRI2QR2gLzbocqfHe4Ipanb3D1OCek2Syu3lo/Qs1jonScs7w96/H4C9zW5p4sDVtpgzazXlNXO4Fbz7K2fbcdXVfRtVNWanjwvq/WtFk0CngcxbV29O9DLaEzVYkKXUqrMRD9I6x6oDyk3US+MGLsr1W4BYI/k2T1KM3aGcLV7V6qN4uI8K6oZ+7lagP7F6W1OJcIvLZeCHjPe6YpZvryzZArrGJbHOAXrTrmfc8fkkCqUXZT+Eh3o1Sko9QrcN9z4+Mc4uo4dC5Wzx4jBgGb26UlCP06wV6ME6bzARbiZkPRoWVvG16mx8g7DOEYluTQM9HDraGtOlPLBJWF+2YfMpvEQ7r95zmjWIbr7rtuh1y78NP8fBlM8ilNQk/Emoyy3p0yoO8oqv13kGdi+pQdMYooJ6d01bgJ4gEW6u4mpBXRcBG1s/CwsL3+6C9I832q1zu4Ve6KbKGug71yPAG6sk3ptkFz0Y+J0B9isvWX+2n2vgeefS4vjgLXd2fvXJTyy+477Ji9e919QSWTB3KGeLUHwynaA+UfdmYolXy9SYpNaUqz3Ck2BI1iijVj1ANt46t8NtENneb7hx/0s5TrjDTU5bTGAKVAcF8DrWfQA9h42YayIjvu0dER96/2MXTn//3Pkz53/UWaqv/u0/LMTD3f+9Vzmb1QgMLnlBfcw6PjVY50262isaXS40gDViL6uwx3ld3MIG69yeKFZ+bJMqiG7fEws4hH5yFN+dxk3dro/15XTfo/rhY5kD8G4C9vFg979ulbOZNbB69mJK1wLQo6xze1YjgJ9VrXp817hgnfsPhrGXVeGGb3vmL5Y5ayhnEddvYwgKr9By7vauQK9Y7HkmbqqczWC1rxhGqHPRddwfWOMAvWnrPHQNqsJ8ug216vTTziF5Jco6dxgMg7CU2IBRHaupkS539qRAUzlPBiLWb4Cbz31HX/zdPzwNtGOUm7WucjYHsBcA9bmaQKeBTIR1bipLWAHke3sPVKuOBYslG2+d+8xj33fDTZ2v//0/vWrj5c/4u5j6dW9rnUOd+SCZgQgjxDVh8r/vQX/7L9+aj4Q6B8qMYusqZ9t77Z6FtoM9+0x3gB6s80TZiuP1YZ6+Vp2ynra2ywzWuYPFFAV04pm9Yp38m7a7QDlY2PM4nGWflsVB0vG+26H+xtvvDnkR8XLx1KmcbdeuXfPf/fqznd95+rGLRtXV1hLNqfKgbh/SwmjUpqzzmcrJCY3W8RoMe606CWTx1rlfctzJ/zx7drmNdv7/nln0c4Haww57X7s/K0vdYDlxuGtd1vs3/vFfTyWw1J0PNCpnu+H6sZNAPehjj737/PqNmy0G30g5ULcPaaEjXFPW+VjV1V71GNhUfq06m8sVo1t/inXe5sYf/8+7HwwW+rK6+xffZq+VdhpfG5rFlCI2aX+LtVpCaF9nHDDz6XSocrZ3ve3u+QD0oH/50xOdB995eHHVJevOtcVaz7anO0rQ9WfC8l2GtVb9waOHOWA4lXLF6/inTkS7Rfm3Du1KzVm/a9ZtWsgH2PaEUdzhg7rvjOeNXWv/8K2TZ5ZbY296y73xIHDPKVA5G5Z5FepB3/jdj3duunH/Qn2j0h/q/i1g05SprbB/D9WqD8gr0Pdz+LOvfeNkk1AHrs4JQnavUAYinNAGjwnJqdHv/OVbe4Ida96wpziE4FTORiwdgPfS55585NzF/gp1nu1oaVCfHDDQpwC4oSZec9UzHmBy7OOfii414t8aJoZ5XX/yjnGEhMj1WCL+LHnHuRZ4TPoO+fzl//e3z5E8h048+8VTllaxbjkFKmfD1Q64l9Wf/caxTg13/GRJUB/zsM5TAJ1MyIu1yy917+617vl+NzTaZioD1l7GFjLfI6HOv7XFNR3cjpR/NdHJDcs49GbnUFmnwxb/lp/hZ/kMPquJznaEFbw9Jp7jZtMf7FXONnbDa3t9LsCOFnH2+DBwGVAfAaaO1nkjsXwyH4NLhv+vWnUv13u8/vAvvrKwHNB/70/+ctFQWuR2/duu3L1gscADOFOIlq8Wi56wQrzHxCk500Ec8gb3DqqcLVZY6/F9UcqA+pyjdR40YxjFeYGkiWqiRAq3KK0yY2rV9TLHxzppz9kN6H/1jb9/gX8T+3lYiW3JvrZYxPFAt4HdMN2t52cTligA6oqrO5azbbhi6/ciytliFc2pEqA+5ZDZbi6hC8Kt0i22ornqacVkrqbWCLFO6olpNoNIouszeSn3LnKhdDKx7O1rCS94Wayh2ZGv/PM6VM4Wr9iEudyhPhpxgea68xSd62gPiDXe6yGu23D5WXtDkHpQ54VWGYuvyL7262ZmL+PBbd/4fXH4noQnPEDioASlrSpn4+cjytmihcu+KKgbYtjmrnARWqzjaqdMIfYhaq56OhFu8Nk4/TOQec6pLOA1azeeTn6f7EmjHHANSYvlQt0+W17lbFRY1C9nE9RnElrnEym8BTQTiC1jQAduuO57gz5BAhSVsfhnIHs3PmFTMsSqByrc/f7d5SxQVwa8ytkE9YmEY+xGUnwXytTqPkTiLqpVT1bGUijU7V4KysdSZZWzpnE9Yqn0slbC3/Nv+ZlUWfocjj26y3lDXZ3l/MvZBPX0zV0mUybqPXP8fbUf4uMPH7lQr4bYXquOBafMd/+yIsdBIoA5ydoiR4R13Y+u2r276+fi7ncY8FII1P1LW1XOJqjPpS9Vs7eltbtbhrVWXVDnGXh3kUsRR3zHL9y20C/UH3vwHWc9vjOHXEHdWypnC4nTJUJ90iEZzgB1m7uFhgPpatX966R9JKgz5jXFABcqMppMDorr22D3LhBuGHTvBmAiqKuczVCnXgTUVzokwxmgbnQ7qlZdUHfoIseBL0V8mhrb7uvcbqmsu3z0uVR5AIQrtP4cpXI2VGRHubkGk+FWpp8KZ4+hIDbDFLXqXvW5vtKmSpmWRyb5rYcOnLRCHfe9Q8Z+gu5ygrrK2QT1yfSd4doDddWqC+oOs+NNyZccFO2JorZwFIfcFG1tCVc4zB1Q9rvK2Yrt/b6yIXf7uNf89tEtW0/3u5GRVKFa9aYkqHt1Z6tuZBbPlcP3p/QpSUc/1amrnM2QNJ3tlLY5D3e7f6KcatUdyrpKhjqHNYc+6pVsX6Nw43v0qydsUVCb4swO9SpnA+qlzFOf9He3+0KdUh7VqidRQVC3D3BBqYDIGm4K6rjx61tX9oMJLmmvDHgNdFE5W+CAI9T93e6G7HYHqKtW3aDi3J8cqkrqIlcZXGQSbnyH7nKouK6G9vwBu1TOZvfYVjTWZqjPGuLnFne73ZtgiCmqVl1T2h6+7/CPEoQbXJLMtm7bXqPhjD3PBGvbrbtcAWuQgx+H+qXikOnrklc5Wwg7RWg0KdQdervPRrnbHaCOxe1fqx6/gQ0D1Nmsyhh9aZ8dTxmObxe5eB3/4LueT1WWx8/bB7zYSwzbKDxb9731rp+aSl5Vzpa67/tIG6E+0mdv96nwGblA3Z7xS3LT686pVj1N4piTiuoih6ep9/pWd7nrxq4xhIF8XPSGhjwqZ8uoRSzyGamaoFzNMHrVnCxkr1W3nyixFhVXL6NGmNitBwRDJ8UUwq3vcUhJATOej9s6NFjtScCucjZL45n5NkJ9LGH83AHq9gQJxNjWbp+7Zeeu51SrbrOSSne9k+Xr4a4OXeRSaPLeN532CCe85Z6bf5yoxNIB7H5JdSpnc2g84wB1YuHzNevPQ/zcUyPhOxk2OJdadUZWDmOtOnHM0FmtTdq3d8/5jLrI4aJM3kXOq7ucRxIp1iOHTE/rOyTG8f5zsAd+S8Wf8XcA3Vq/r3I2exlnRZNtg/qUfbqamzopW8U++M7DXXMMVl+24Tv20ovhqFW/mOTT2bR59MIQuTPJjfAqATNAOz7O6FCiB3yzPnRyMCHzGzjzu4A166SfQ8gH3/N2/3db5WxJy7jNLmx7GzwHRXgYSHZrW6361l1XnhqGWnU2LWA+jPFJLCuPZi3BKkmpw3eOP9fD2jpnbaZjH/BiP5AFy/gNN+5/iXcyRgA7WNtLLO48m8qonI13ya2czQL1OYeTSLYNaOLjh2pAQwx0mDOJKcNK31bVvoEZ3JIJ2976DzyRVM7G7JDI/WRFW6A+6Z7hbteUatXbJaycO2+56SdtnoSFBeWZ3W+xSGheZCzdyWDAi3/Jp6RytvikcVjkD/WRTDLc7c1ybNaLwyLMG+oHD+z/SUxSUErdeMO+RdyfQUAcq9w/w9e/i5xfdzn7u5FvgpiEaKDjUc6WY+Y7atptPe8HdP+yNtWq219aGobggiYOWj8hqNzQgyFsQ2viyJ4M6cVBOVW5HuGJBN3lJMfJjCFrP5dyNta3d/M1g3XrWLJm14qYG3/V7t2n+t28+Nlun0vCmyGxoyio8+JeunbjT+64+fVZNccoYICLvYtcggEvhAlSZPfj6REo89FDRw//bPWl66ttoVtfzoYh6B2ergPBRYeStZRaTJAB71qrTr/wHKFepjWuLnIu3eXUdTH33Jpatf+7rrlm0becLd6Yq2jUG+ozLiVr/hnwWBaNd9ACzJaFmFkDGsneRQ4XeiYDXOyzprlW5+5ykoN+7f33/eyiR+VHkVDE6KoA3b+cDUMwvue7H9RHU3fEKWOwi3+tOrWc5b3sqsPlEJhHFzn/AS+Xbdh8KvWAF8m/8gWgh/wLv3K2+HVd0Zwj1EMr2PQxAQeNxzwALG7Vqtsl+XeRs4eX1F1O8m80xftQ3T/9y9lCHwb/hmz91HMvhnhA5loZ8wCu33ftc6pVl1K3GfXICA/zDTyE298h0z+6u5zkX6pW1f9es/ZCxOhqt3K2t9xzy6k2NGWLh16lBr0QdezJcqpVl9INcGEjM1ojDl3k7J4s3g9LMmnmk8pUqlbRxtGtBuvcWs5mL2OuaNQL6nOGkrWikuWIlbSkVh1LpKARrNrcsBwp3XHoshbhYiyzuxxhql+8e/zc0gEp3uWUKlXrPhNgz759EQdb/3K22GtKzbXYJLLZAoGOphJ0lnOtVUe4tZxeWili2Ec1Kc6jHzoz/z2BjnD/e/S5X05AP4w0DeDXgJXBlqqhS9ZfvhhVCeFfzobnyT1JLqhbK9hFj5I1B43FPAhiJc3FWOy16mR+LvedeYH8NyFZ4XQy69VUxt4ty95Fzkufe/KRc6km0nEoSD3HnMOZfbKaStXs9ef2fgZWIy6UaUZoygPqs2WUrNl72QcxdcdQq9441Ddv2xE1BQg3l1fPa1nhdtmzwM0hJYfucgmy/h3EQQ7wky/BuqAxFNBfrvWxStU2vLhMYqipjI3YvKmM2T5udXzQUB8vqGTNPls9cYmDZXHWsUTecGD/jxw2ElnhRmFRmOu17YdU/wEv9iqReDmAn3UE+MO8A6RStWaF1wcPp3mvtzedGUkP9UorWO+SNQfNmJrQGOIsKV1IVeH+8t4sZIXH64rtO8/wnIvoIufQXQ5dsm7TGT4jZzFHPIC/kthXVKmaIXfEljhZ0U037l8wTGYzjFtNA/Vp/5I1F02kmtjGic8eM7SfPqutMj2sdlnh8Vq76QosFvuBz3+Ai2t3Oe4h9zJnqPsn9vmXqlkSJsPI4RitumTduX7CUk9+4F2xh8eZQUIdy3wuuAaGTCsTTmxLCfWwcWHV1bJIePGcTvqywrvkV1ANgbUSYZlaBriQZ3HBHeYVEQ7o9n0JIzTlfkVMgaOclHvEfQ8VAgXIkNjnU6oWwkspRBkcv6cO0EncrLt2T331Gaz7l72bzlShvsJ/ypq7OhEybFgRtepG0WkJN1bEdTiWvskKByIABQvUcKjLoIucQ3c54+E4gJ/3EnGgAPzhfhYne2Iff0fXzR/X9USlKlXjc+t6Z/Zeu2ehHwsdoP/173y8c9n6TbG/a+WgoC7FNaEh8c2hAY3N3Zhn6Zus8JIGuFhjkgaLrnFgAH3uMe8uz5Xni9yA7JjYB/jbVKqGYRN3ALOXds7/1WcBOoaCQzw9BurSZKp6dX6mvmvR7nrCvcXvyKn0TVa4XYDG4m0qasCLg4jj8uw5iCwFf2hdO6witu1aqlYRM/37zS35tz//dOcrXz7OvtN58OjhjkM8PQLq0miqenUS7HpBwCFJJIPSN1nhli5yhvaXGXSXy19AH3H4A/zU1BcIfv9StQTVH//wx0/93F50/b69HYd4eiTUpU6CGkbcnYbJQ3bh7nIofZMV7mMltnSAi/09qZQ8FS0AWEJiH3sb1+BdqhaEN6if0mR08iufx90eMTLZEE8X1H3q1T/6oXobI4vI4TTrXfomK9xBAKCVXeTslSKVWQlSAD/r0yGxL6tStVB/jkFmss4rYp8yx9MFdf969dvHb/ph3Vr19Rs3RwEV8NrjTv6lb7LCfcRG1yuG6A9ue3c5yZbYB/gNiX3Zlaqhw3eOP9dXG+M/O9H52m99tOvedcfNN9nj6YK6f7065Qt/9wefNAyucMgQdS19kxVul32Ay4PvPLzYdqgTHuh1DeHAK3kn9vmXqlkz3A0wD6pTyjYuqLe8DzzWZV2w333rwVpWMi0uDS+IR+mbrHC7Cu4iZ+/ASHhBIG5XYh/vF/+b9edWqmZv8U1GO3t6yGqvyOR6RyOCup+mYx7S0bfexYNlEdCAIHrTevzhIxfoXFTHlYW7iYXd9tI3WeF+cVVgx+baK0GI9ZeDCBP0KosSZHOUvVTNIhLc2KuJjS8Vf/aN3/1EBMRNrvc52CKo+2k85kHt3n1leLgsGDIja/W63rZ9+5mMk04ofSNDXla4g6sUiwjLqOIeNfdXyGXAC9fPsy7FFS/Zk3sj9mqDzK73KUHdVytiF8tSVzQum3/6k6drbV7EOCufmUPpm4NkhZPcZHE/2rvIeXWXi18X3KOQBc764N75rhHJXqpmFxa1CeB21/toJlBXy1g6CVUeNskVJFnU2sDIjM+1kYO/FS4rPKKiwrU23d5dzi4ORIB/7cbNp4E+B6UQJ7a8S5K/17D+Pm3XwQOvdShlE9QtmrC6dbDcideQfFF1zSP+DPjzb/74mQ93Ju65pfL5/qVvDla4rPAEOnDDdd/LDeqECzwOkaxBDpKAH89VAL+AW5F/qRru76hubk2X5OKhrfE9pwX1dmikvgu+GZcOCzWX4Qj+Vris8CDXrHeH7nJe4tkBfp4j4Gf9Kr4/8FI1YM7eGwX1pq30mgbYmKDeHs15uHbIIMe108bSN4NkhTsA6Jo9V5/2A7pdISyVm1jrYb0DfiX2NWs4sOdGJqvhTWVPbXJ/5nc6uN4FdWcXvF0sXBZPy0rffhhnha97Xlb4YEXcnG5sk/e+6XRETW4uCXOUUAaXbDECYvUT+1Sqxl671JVO9U2Nn8VYohQZjyifkzqWjqYFdbngq7EbpsK1qt8yiUbdrHBO3bLCByI2KdyA5+nAlr6fu28zGkrcmHR41e7dp3bt2jXPAcYFyA7g53Dsntjnn4zLWq/ujwDafJ+DKx+RJc9ndlFw9btmvQvqds3VXHAO8RtD6ZutnzQaingfVviWnbue87LC8dgEK2Pp9LxQZTGsotLkU7/6HiyvpRsvcgGxd2Jf8IyhUkrVMGq6TYxs+XOehyF5Ql0ueDbdZFBnQQ9uhrEUrPB1l48+52yFdz74nrfjrelaXRE6GQ6zqC5Zrk0x7xD3EuhzX4EB9zjhM1Rin71UjYNsr3h42+/9ZOZQlwueTYOF5ty5yF765i1Z4TFa0uhIwmNhPTgj8lh4DrhhLeBXYp+9VI391N78xVUrBPX2aibWTWQGuL3HsL30zUeywuO1ZJCQ9PGpX3qJuPu3/vIzuONTzfcP4Af6iIMY4O+S86LEPmOpmmFPdJBDgpygbtOYp7XOhhIfV7eXvpVmhWN9ZGSFC+j12yyH/004giEdEVO20oG/Gt9HrINhS+xDdQ/O3LMU3ksHjQjq7df8gKx1YoAcDgC5wf3nVfrmb4WzqbTSCrcLYAnmr2TE7712z0K36XPAHZf83/z+dAKAm6pZloKftVJsYp+hVM3Qd12x9HioSxMNDQ/gRF+N4SWI3zmUvskKTyZGQ87/1WcF9Iv63JOPnFtau37roQMne/17AE8y3d//0aeYptgiyCuxD3F9lWS4nF3vc/AiH6hrcttiDifeZKVvssLZTNhsg1WRUmF2QDTMpx+fLN46v+nG/a+Kz1KnX/23BUC++MQ+DsWVw3Durvd5OJEX1KXJTNxYhAFspW+ywtkkgxUeLInkItEL2ACdutBjaAsu6RIb0Tz+8JEL1YYziD8D9pbPdoZ8MYl9xlK13F3v06mALqjLWiduxwvjOfVNVni8AAnlaWb3OhYr17LqknXnSCArAea/+dSHftir/3vcdQry/ol91VK15JVAQBYjbBaXeCKrfIawrFdSnKDuEFt3Ei45z6lvssIj3OokcJHIBUCadE8vvU5gGFzTuYne9QyjqT67pq30ILwb/E7Efy8L8v6JfZVSNZMuW7fxZxG/b2WPviOjBnX53NyhLs223QVfOZHzQllL32SF293q1FInhSEDXbjmXOHO96S/e/UamrLSATa5B6GPPAl3PSpZTr/jF25bEOSjE/uq8X3uIf+7sVLf4x+63709a7lQV5e5xba74FNMfZMVHi+scdzqJ7/y+YFauNV7UoV71br1FtAE0JSmReeAbN9+Jvazicdz2Amf34cA0+ku9w3Ic1ij3JAqhUTrSeL+UukQ8bymxChBvR+NOkJ7sc8BM5yqOUGbSt9khXe3xslWx4rz7Mke47bGAvWcsw4gOWAA235GzALrbp/7zPH3sflXIG4XVn3sSFtBvtH3ivsZwksxGhOfBHUL2JNb7JWkDGI6K4xNcLBka5e+MQhCVvirk9zYvNtUQw6sY+8p4BsU4AExI1QBuWVmPN+1er3MkN+6bXsod0uqfkIZrA+8Nnhv4rvdSYQ4wgGZ+x5n8IhNgrrdFT/d4KYxuyRzcxSA99mPnuSW5WpdPcpb/K1we+14RJKbfwlYP8AEuIA3WKTWUACfVbWarUC3W+N23X3rwar7vzbkWUOspe796mWdVz1QHj3XBXVZ7hOvAHkKQFeE+PNJxL/lZ/ocpD8eUwsaU9ZSLRGRFT5YaxxIAcCqEAldiC5q3f5Nt88FPNbnQrLYrl27+A7/pW7f8S333HKKf5sKtG++440/qFr5niKu31B+AnkXSr5bEjvnwFzx8hTvehfUpRX9JsxVVS1987fCy7fGU1maAcJkdgPaNZdteCndc5SIsxtCF9Fx+WFw2XOY6XZwJpFSrndBXSNha049CqVv5VvhPrFxrDrc0aGZSjmSCHeY1kd8XL40lz0HFq6r57Vz+JXrXVAfBo2nmBoXSt9KtMK9YuMk+YQ2p2VKItwxwHLBUC+fdZY9iYOEHiLKNGM0KiaUAHVp0ZgwZy19C1Y4v8fXCo+YdBbasQ4yEz1kZZcviTi7V+/9qjXf4tg83y26ERNhKjWcEdSHRxGZ9/v2XvNyny8fsF4K99AhCmve1wqP7+LmVjce4oB5SNq/amPnqlUbOk1k6dOz3gvs3RrjYBXzTji/k3jHarc+zqjhzIigPhCpCc5ffvEJ0wtNwl0OsblqFzevDmlYbAJluwH+rtVXdJ5avb3z22t2db62Zvd/aWr11s5lq9aaf4frUJ2ITPsBJuHxOypZ7XEiByXyfo+0YB8mx2lWUG9C0nxMm0teKF6skjJp2ZS4puDK8xalZ4qdtxvigHs5PbtmRyNgZ/57fJzdF/QpLHo+px+YB0Umlc45ViCNV/bflYK6NLA572wu4QUm5pZp2YuLS91gVUgOGl21rvPW1Zs7T6zeBqT70p+subIRdzw5FfayNxcBetzlwaqPhn2YQphqjkFF4w4udvbcxVTZ94K6NNKPO5AXlhe15XHxkKXu6VIPim30Ijno0OpNnUdWb6m40+26a/XljcTZ8eJkAfN4yz648YPqH7btCXKAdcUAXezTrQkBCOqqWadRRrfTOPAUxPurPd977R6H7HYJ9zjAxRrHqm4Q5ChJnJ0++z3Wk1S/g9z0gEqH5wb9PQR1adw6jAKQAlVBPB7oJMQ1GPcNCjHgpar+vSFbO1txvbjViXkD20GK34lb33oNHAJDnF2yV46sTBgvx8U+7+YtENSlmAVI4slyLxSATVTjyucaIF4e0LH+AHYTliafQSIYwg3N5+KSBv7BypRb3XyPuZ/ma+I97B5nlyKTTedaMqBrUnXqkmvC3PTjk7FJMgDYUsZCzN4Qaysb6BaYG6CPKxlrNwL2vm51vmfU/XEQ988cZ79k3blXe84k7olDghzx8tnq78jCShfUlTDHCMO6DSyo/QbQvdzoAeBY4d27tgnouJCr7mNHYQETlw4u/iyz1R3Ed00QZ5fwYgxweEu1JA3lZaUL6uowhyzzsrHgg2rBW0AHXDkAi0MHLm9c34ArVXycg4TtgON/n8x5DeGgrTh7rTK2yQbi5daOj/ODsNIFdWnUYK2nkYAOGLHssoYXAAZgbY+PO8TZuS6HMa7liX3J3kHOHi9vW328oC7NNWutS9ShG1zLQLEkiBHvjrHi+Xv+XSU+XqQ49DQCi8bj7CpjGw0lvwa5DpAR1KVxWeutADqWbekwwwMBuJceYkh08/NMFBBnZ80N23tGK+uGR6yOVZPfcrbSBXVpXta6XY8/fOSCoe7cAeiuFnwZHgl74mEjcXbCPa+Ks8tKn02Y/Gb4DuklqEuTstYTlNbECUt1eMEmccBhDTQfZ5eVPtYj+W0iwDyxRgV1yWuC0KKs9f7ERkodsYBukERSYHNxdlnp84ZMdjcrXVCXZK37Z7qHWlkB3SqJhj9NxdmLdMdTpx8fx14O5rLSBXU1o5G1XtHOnTsX+yzXSg4ISXF23lU8SYUcoGNbws47wLyVQ1sEdWk6the1gN7LalCWu+Q/xrUqgLhr1675q3bvPvWut909j545/j4O6bi1SxrcMukA81aOVhXUpRHF7QyJcQK6lGCMqx0wNvAz271i8bta6XbJShfU7ZK1rsQ4YqV1u6NJEqV/rRumA/jRrYcOnAT8k/e+6TTgD/B3zHhvg0YE9eFq9DJBrKcEax132DAmxm3dtn2hD6Bb6rIllb1lOQ9/3YbLz1YPANVDwHIiRJDRNU+xjwrqw1U6Nv9KrGcKgOZsreMOi8uwVRwdN6rgJPnH2aXIQzjqa7SqoK4hKgB0ZfutdbWoJLZY7LQ1SXF2CZDTl58wGf/dYbRqrlCXZro0Khhr0Xecil3MZM4Og9udjl19tH8ViJJIcXb65gvEzc3op/lPSGIF7E1Z6YK6Orjhnh/Pqcvc3mv3LJQOda6xn40iZaa7pDg7h0ZB2QTzamjMwUovBerSWMTJbxK4tr3LHMI1rUEtP69BJMZJEuEdAdoAc3vewnzYpwV1abZG3eNIm611StxKTJojtNBH+RquPAFnkFKc3Vb2JpgHK900WlVQl0Zqdj2acegnPF6vxE1ud7WAlTwEkJjRTjwY6x3XfJx7XjA3WemVPVNQlyb6WKRzAz4dzjskzWXpdsdaUhxdamlyHQNjgBvgB2BAP9S/lyiurQpzWekDgbo01+einTc0szGU4ZWbNEejC5pk9NmSkk1TAMlamhKHCB9lavFjlfO9I3JaZKWng7q0MmIBeSfVzZSYNEceAH3c40GuenRJbn7AH1z9S6x+5GKN8/uxyPlufR5mHEarCuqaZ+6aVBffkIZ6bmDZdpDfcP3YyYjrsZWvSZIsfwT8UcUDEC9+Jvw8n9dkdUkfh5FZ9kVBXTLHrp2T6qIPHrRTbVsW+2MPvuNsfN/28t3ukiTJShfUXWLX8UrcqW5FjYMHwxjcp6lxuNh8xZbvGO5fUW53SZJkpQvqDu1ZLTJ0qjM2zfGvXQ+JbkyHSglyud0lSVa6oC7ZrWG75htIqps1uOFTxcfNiW52t7skSbLSBXXJYA03kDE/Ymia4+KGD/Hxq3bvPtXPtcvtLkkS2ft9vPcjgrqUtITMMWN+Irkb3iE+riYzkjQU6mfK3TR7n6AuJe+77pgxP5fIDY9bPaYRjEtNLI05KvWw5UuSNJN+RFCXvNzwCTLm7U1zcMPHuNWr9ePeopc7m4Asc0mSlS6oS/5u+LQZ85OWpjTBrT66ZevptkAc17pALkmukpUuqGuSm2PGfLQb/qYb9y+00a0OyGk1SfKMNj5JcpesdEFdk9y8MuYrbvjcBj+oLE2SZKX32vNWCOoGSbbacMeM+clMRjHSOzqmb7QkSbLSJ7NlhqAuN7wB7qMt/n40mFDGuiQNt9gDZKWXAXW54YkX+8NViW6SJLmIfYB9QVZ6EVCXG564MYALrqcixbUp0U2SpIoQITdZ6WVBXW74kAzG/w/9jv2l+LgkSbLSBXVpwjhNDLhj2eYGctzqio9LkiQrXVCXGx4gVhY8cIyDu3/9+JJDiSRJkqx0QV1ueODYbfFzog0vgLtbnTwAudWHU+obIMlKF9TlhrdPFwtwx72Nu15udcmrlthrrK0kK308fy4I6nLDd1HKjHk+V251qSK8M2GNsP4G+bslWenzuXJAUJcbHqu4ljuUjPnU2eqSVM3v0FqRZKUL6hrRGumGj3d195UxH5LcYpvASBJrprqGBHZJVrqgrhGtse1T41+UiIx5JblJCYZtsKZ0KJRkpQvqw6YVfbjhOdFaXh5+PrRktSS5SRLryHIAlSRZ6YK63PCKW0reCt6f5dYp3qFlPkfSOpKVXhzUpem6UM/BvSlpgpYy4qWIREtZ6UVCXW74+bpgd64LllSbbm2gJKlpEetDVnqRUJdGKwu3iM1S0masjHipS34PB0NZ6UVDXZoydJuTJAeXqaUkU1KSpaz08qEuzRnK3CTJIUHOkAsiKdtdVnrhUJdWsoAN3eYkyWFDFtgNUm+DOI2KD7lCXZrIoMxNUge5ONlL3SQBfUZcENSHbegLSSeygCSHTTkp2CWtHRp0jYgJRUNdQ1+0UUoOwnVuALmhO2LWkii/NayTCfGgVKir21xOzT4k1RRrvapszTQtUm53QV3d5vxrgiWVsQnsEj00rPkXZLuvEANKhLq6zc3lmmEsqYxt+Bopaa0YrfMQR1+p/V9QV5mb4utS+2KiQ+JhEszjvTkqXxPUpYlc3JqSZl1v3bZ9QWAfDvG8+oO5usYJ6tKMNkmp7aVItx46cPLPfuNYZ9Wl68+XC3Yd9FgX9moIAV1QV3x9UfF1qa3T2NDvPP1Y57tff7ZTHNjlXgfklZ7tArqgLrlMc+NF7ONFlpTBXNvtDtCDALslxq7DqPvzJ58iWOSJpKQ4QV2aHECjD0mqncX8scfefT4APYg/y6NPvFzqtSFu11zoFicJ6mojq7IhKXECVJ21tW7D5WcDyLMBu9zpJLmFEMugNR1Thy4J6oqvK1YpOTSbefCdhxcBuMA+BO50u7t9LGKPkwR1xdc9Br9IajZDQty//OkJ4N1Td9968Mxgwa7WvoTdqmEUR03JOu8tQV2a0AbpLVnpd9x80+ml8BbYBfGKZuOT4SRBXZpRxznJK5aOvvG7HwfY0dq9+8p+XfF4mhRCcoC4AebqDieoS/30hxfYJY/xqjdcP3YSUON+p0Y96Jnj7+u86213z6Nr9lx9eteuXfO46ZtqKQvQBPHWakYwt0tQV3/4RYHdIglg+ANBZZqVErMcIB6mqk02V6ImCerSmHH0paR2sLkJ4JHYV0JyoiE73TWTfVpWeToJ6tKkwG6Q4uhZCnf8I6u3qE58cA1jpgYHcklQl6blzqwj1S4DRU9QjG7Zenr9xs2L1s8Bji2NtXNw4uBBy+YcIc6eMu5XjiYJ6lIlcU4xdsnf5U6yHIl1JM/RjCYMfwmJdtu2bz/TkEuew4p3UluAuOHQ5JaxjiU+lgfEBXVJGfECu/p8m2ZgH7jhuu8B5l4K0A7gjhFg37f3mhcaghMWMd4nXN3ZZ6bLnS4J6hJZqItq9CFV4GNKxMKaBsAG2RrUGNYzSWhcP+u6oaS2HCE+n687XRLUpZVGsBfU6EPWORCyAIE689BoJrXe8Qu3LaSEG1Y8QMa6RkAa4FcU/h7PBv8eV3q2EFe5maAuCexsYgVkxqv+vAEYVVzp6YULf9Ul687Ffj9JEBfUJYE9Ps6elzteljkwt2daV2alD1p/9hvHOlu3bTdY7YK4JKhLArv6bmfcxAQ3u90y9wV6JYEugTteEJcEdUlgR0CjXVa7rHJCJKYEuHig+wn3f6hnHyLNpS4xkwR1SWDHanesBZZCM5NU2dckxX3uyUfOAdO26cF3Hl40DIcpsk5cEtQlgX2uoUYfg+viJYgPpK0o1jCx7AjAurrkmeNeCMQnXevEJUFdUoOaioBNQ00+VEeOK50kN7qRDXq4x0037l8AmIAzB1FiR7wdy10QlwR1SWBf2itelrsLvLln3v3AKR17/OEjF9xBbbDcif9fzJR/vsUJbmODeK8lQV2SJhI098BdTBLXUIObvIO2Ny/BOrc3lfHT/F99tvNPf/L0Rav9E52/+tKTnS8/9cHOg0cPd3bvvrIt93hy0PFxSVCXpNGQQNewcCNjlZYGeOLcYXBHcJdn1TaU2Lm5oYyDTn31mc6//fmnO3/3B5/sfO23PgrIu+oPP/9/Osceva8zcc8tnev37XVwtfuWnUmCuiR3/GzCTQ7wAcEs6t2rrUIDtP2tbTvMcVXnBvG//6NPdf76dz4OrE363PH3dqYffyClNT+nmLkkqEttc8cnrwcGjoASYALPQSba8buWxrXDcI70iWmCeYw7/V/+7ASWeIB4k8I9j+XOHPcUcfPxNr7TkqAuSSMGq92cbIeChQx4q4M2urnCUdXCRnyev5XtI2aYP3P8fa0FOFb4P/zxU8TEO1/58vHGIR7c8B98z9tTWeaLgrkkqEuy2pNJWrfh8rM0aWlLAtzJr3y+862//AzwxgIPSW1BSUF+8MBrU93nRSXBSYK6pNK3JJJwJ7/lnlt+/MVPfgB44sIGpAB1YNAOVjfxb8BdcZ+XAHI0L5hLgrokl3zjksjoJuGL5K9lgIdrG9AGAV4AXEfhZxMA25b4xj3oL7tdMXNJUJekUR+4yxLHAgVgZG8DtCFUKFOjTWxIdkutWcFcEtSlYdDKZG55ARxoAe+hBnil1nzQDWWmVZomCerSsLrlJ3FPCsiNwx2YESemFMsBqn7udLslbomXq2mMJKhLEhrDwlHGfFoX/NG33oUFjxWbM8BDExh7xze7ZtSbXRLUJUmAn31Fk07eCkAPEAE9Fj2gbJvlXYU337ktQ1YmZJVLgrrUnxR/n8AiygjyixVoo1EUca1TAfDe2fEB+IjYNIBtwsonHBA+i8NE+B3hd162flNbp6VN8YyaXd+SJKhLgvw4oASaTgCce+V3T73yPcYBtn3D9we81eoPsgJaIJckQV1SuRyaeAW0U4C3qm5u8Iqm+YwKsJG3t2IuOcikuUGCXJIEdUlSl75xDh6qGmgsVDLDPVWMPD9JgrokKedACrkOssYlQV2SpJbX/gdLXu76EBfnwDNRQkMYSRLUJUkKuQaAfnYIAI4VPqbBKZIkqEvSMLntRwHgEtgvZljjPy4LXJIEdUmSlgd+KB1Es0EpLe0uFQijSJb3oCQJ6pIk6RAQL0Fakhz0/wNl4I+jy8rS2gAAAABJRU5ErkJggg==;" vertex="1" parent="1">
          <mxGeometry x="139.8" y="525" width="50.4" height="50" as="geometry" />
        </mxCell>
        <mxCell id="0Ma6VZtYf2KCyxoi-4m5-54" value="Travis CI" style="text;html=1;strokeColor=none;fillColor=none;align=center;verticalAlign=middle;whiteSpace=wrap;rounded=0;fontSize=14;" vertex="1" parent="1">
          <mxGeometry x="120" y="572" width="90" height="20" as="geometry" />
        </mxCell>
        <mxCell id="0Ma6VZtYf2KCyxoi-4m5-55" value="" style="shape=image;verticalLabelPosition=bottom;labelBackgroundColor=#ffffff;verticalAlign=top;aspect=fixed;imageAspect=0;image=data:image/png,iVBORw0KGgoAAAANSUhEUgAAAZAAAAGQCAYAAACAvzbMAACAAElEQVR4nOydCXxcZbn/f+9smez7vrSlpVAoLVD2fZEd2UEEQUUDCsgagauIeNF7VXL1evV61bhewQWu/r163XABFAQUKN0XGtomk6RNmj2ZmSwz7//zvuecyXvec9JOp0kmy/OFfJqcOXPOc97l2d7l+DjnIAiCIIiDxZNuAQiCIIi5CRkQgiAIIiXIgBAEQRApQQaEIAiCSAkyIARBEERKkAEhCIIgUoIMCEEQBJESZEAIgiCIlCADQhAEQaQEGRCCIAgiJciAEARBEClBBoQgCIJICTIgBEEQREqQASEIgiBSggwIQRAEkRJkQAiCIIiUIANCEARBpAQZEIIgCCIlyIAQBEEQKUEGhCAIgkgJMiAEQRBESpABIQiCIFKCDAhBEASREmRACIIgiJQgA0IQBEGkBBkQgiAIIiXIgBAEQRApQQaEIAiCSAkyIARBEERKkAEhCIIgUoIMCEEQBJESZEAIgiCIlCADQhAEQaQEGRCCIAgiJciAEARBEClBBoQgCIJICTIgBEEQREqQASEIgiBSggwIQRAEkRJkQAiCIIiUIANCEARBpAQZEIIgCCIlyIAQBEEQKUEGhCAIgkgJMiAEQRBESpABIQiCIFLCl24BiPTy4g0Xp1uE2c4dAL6ZbiHmK2c/87t0i0AcAhSBEMTk5AF4EkB+ugUhiNkIGRCCmJxLAeQCuCzdghDEbIQMCEFMzvXmv9emWQ6CmJWQASEIdzIBXGT+fqn5N0EQCmRACMKdSwBkm78HTSNCEIQCGRCCcOdq7e9rahqb7kiTLAQxKyEDQhBOMgBcYTvC2Lv5+PiTNY1NNCOLIEzIgBCEk3PNKbwTcJ478vYWmpFFEApkQAjCyfVuByMb3gTNyCKICciAEIQdryN9ZRLZ+CYQj19a09hEM7IIggwIQTg4B0CJ2wfxcBgjzdtpRhZBmJABIQg7+uwrG+ENb4h/rpkxaQhiFkMGhCAm8BzIOEQ3rQU4v7ymsSlj5sQiiNkJGRCCmOAUAJX7OyHW34/RXc15AN41c2IRxOyEDAhBTJDUDKvwxrWgNBZBkAEhCJWkDEhk/evin6trGpu80y4RQcxiyIAQhMEaAIuSOTHW24PRUEuhOWOLIBYsZEAIwuCgFgiaUch10yYNQcwByIAQhMFBjWlEjXGQK2sam6gPEQsWavwEAawEcMTBfGGscw/GOtoqAZw+fWIRxOyGDAhBHGDx4GREjCjkqimXhiDmCGRACGKSzRMPhDkOktJ3CWI+QAaEWOgsBXBMKl8c62jD+L6u2prGpjVTLxZBzH7IgBALnUOaSRXZQFEIsXAhA0IsdFIa/7CIbKBxEGLhQgaEWMjUATj5UC4w2rIT4309R9Q0NqWUBiOIuQwZEGIhc+VUXCRqRCGHFMkQxFyEDAixkLlhKi4SMd4RQuMgxIKDDAixUCkDcNpUXGhk5w7EBgdW1jQ2LZuK6xHEXIEMCLFQuWbK2j/n1tYmtDcWsaAgA0IsVKZ0zCKy4U3QO0KIhQYZEGIhUgTgvKm8YHTHVsTDwyfWNDbVTeV1CWI2QwaEWIi8G4BvSq8YjyO66S3QbCxiIUEGhFiITMtYRdhIY9E4CLFgIANCLDRyAFw4HRce2bYZ8Wj09JrGpvLpuD5BzDbIgBALjcsBBKbjwjw2jpGtGxilsYiFAhkQYqFxUK+uPVjCxhbv03oPgpgtkAEhFhKZAC6ZzhtEt24CHxs7p6axqWg670MQswEyIMRC4mIA2dN5Az46gujWDb6p2meLIGYzZECIhcSMLPSLbHxrxu5FEOmEDAixUAgAuGImbhTdvBZ8fPzCmsamvJm4H0GkCzIgxELhPAAzotDjkShGm7cJg3XpTNyPINIFGRBioTCjC/zC616f8XsSxExDBoRYCHhnKn1lEdn8FhCPX1zT2JQ5k/cliJmEDAixEDgbQOlM3jA+NISR5u3Z0z1tmCDSCRkQYiGQlpXhkU30qltifkMGhJjveNK1Mly+6pbzK2oamzLScX+CmG7IgBDznZMAVKbjxrH+foy07MwDcG467k8Q0w0ZEGK+c306bx5Z/0baZSCI6YIMCDHfSesYRNR4R8gVNY1N3nTKQRDTARkQYj6zBsCSdAow3rMPo6GWEgDnpFMOgpgOyIAQ85lZMQMqslFGIVelWw6CmGrIgBDzmVmxEjxqjINcW9PYRP2NmFdQgybmK0cBOCLdQgjGOvdgbG97JYCT0y0LQUwlZECI+cqseitgxBhMnxUREUFMFWRAiPnKrDIg5mwsekcIMa8gA0LMR5YCWJ1uIVRG21ox3t21uKaxaU26ZSGIqYIMCDEfmVXRh0WEohBinkEGhJiPzEolbRqQWWncCCIVyIAQ843a2TrbaXT3O4j19R5R09h0dLplIYipgAwIMd+Y1Qv2zC3eZ2WERBAHCxkQYr4xq6fKRoxX3VIai5gX+NItAHHovHjDxR8z9306WAYAxKdBpMmIARicxusLh+iMabz+ITOycwcGfv/L1b7C4q+M93b3TtNtcs3X+M4UotzzUvjeGwC+Og3yEDMEGZD5wTcBfBbAx9MtCHEAOMfAH34lfrsn3aKkmSfNdkvMYRjnPN0yEFPEizdcfAGA/wZQkW5ZCGIS9gC4FcAfxB9nP/O7dMtDHAI0BjKPOPuZ34lOuQrAb9ItC0G48Buzff4h3YIQUwMZkHnG2c/8rgvA5WaKZCTd8hCE2Q7vMdtlV7qFIaYOSmHNY1684WLh7f0EwIp0y0IsWLYAuBHAercPKYU1tyEDMs9obmm1zciKR6Penh81nRTdvH55eiUjFhrBo1ZtL7qp/u+eYDCWxOlvLK2rpRlZcwwyIPOM5pbWgNuMrOjGteh59geIDw+nTzhiQeDJzkbR9e9HcOVxyX7lSQCPLq2rHZ1eyYiphgzIPKW5pdUxIyvW34veH38H0R3b0iscMW8JLjsChe/9ELz5hcmcLmdkLa2rpUH1OQoZkHlMc0trKYDvA7g0cTAex+Dzv0P/7/9X/k4QU4LHg/yLrkTuuRfL35PgNwA+sLSulgbV5zA0C2seY3ZO+4wsjwe551+K0rsega+kNN0iEvMA0Y5EexLtKgnjkZiRFWqoJ+Mxx6EIZIHQ3NLqmJEVj0bR9/OnEX7z1fQKR8xZso4/BQXX3AxPMJjM6XJGVqihPjEji2ZhzW0oAlkgLK2rXW/OzkpsHyE6fdFNH5I/LJiRXgGJOYVoL1bbSdJ4iHa3RjUexNyHIpAFSHNL61UAvgOgyDo23t2FnqebMNqyM73CEbOeQN0SFN1cD19xUinQHgAfCjXU/8LtQ4pA5jZkQBYozS2tNQB+COAc6xiPxTDw+19i8Pnfyk3/CMIGY8g99xLkXXQFmDepzX5fAHBLqKE+NNkJZEDmNpTCWqAsrasVnfpdAD4pAhBxTCiF/EuvRulHHoQ3Pz/dIhKzCNEeRLsQ7SMJ4zFutqt37c94EHMfikAWOC/ecDFqGptOAfA0gMOs4/HwMHqe+R6iG9elV0Ai7QRXrkbRDR+EJys7mdPfAXBzqKE+qZkZFIHMbSgCIWB29uMA/Mg6JpRFyQfuRuE1N4P5/OkVkEgLot5F/Yt2kKTxEO3nuGSNBzH3oQhkgSMiEJWaxqb3AfgvADnWsbG97XKAfaydshELBX9VjRwo95dXJXP6EICPhhrqnzrY+1AEMrehCISwYSqBYwH83TomlEjZPZ9AzunnpVc4YkYQ9SzqO0njIdrJsakYD2LuQwaEcBBqqG823y3+eQAyRGU+Pwqufi9KbrtbbpZHzD88OTmyfkU9J5G25Gb7OMNsL8QChFJYCxw9haVT09h0LgDhXSbc0dhAP3p/8l1Et2+eCRGJGSC4/CgU3ngbvHlJzb5rB/C+UEP984d6X0phzW0oAiH2i6kkVgH4pXVMKJmS+vuQf/l1yW6cR8xWPB5Zj6I+kzQeoh2smgrjQcx9KAJZ4BwoAlGpaWy6E8C/CYfVOjYa2o2ep76F8X2d0yUiMU34SstQdPPtCNQsSub0KIAHQw31X59KGSgCmduQ+0gkjak8TgCwwTomlE/5/Y8h68TT0ysccVCI+iq/77FkjYeo7xOm2ngQcx8yIMRBEWqo3wTgJAD/aR1jGRkoes8HUHxzPTyZSW2sR6QJUT+inkR9iXpLAlHPJ5n1ThA2KIW1wDmYFJZOTWPTuwF8D0CxdWy8Zx96f/RtjOyiiTmzjYzFS1F404fhKypJ5vR9AG4LNdT/ajplohTW3IYiECJlTOWyCsAfrWNCOZXe+RDyLrhcbr5HzAIYk/Uh6iVJ4yHqc/V0Gw9i7kMGhDgkQg317QAuAvCwtSkjPB7kXXQlyj76cXgLitIt4oJGlL+oB1EfScyYGzfr8SKzXgliv1AKa4FzKCksnZrGphPMtx4utY7Fw8Po/Z//RmT9m1N2HyI5Mlcdj8Lrbk12H6sdAN4baqh/ffolm4BSWHMbikCIKcNUPscC+IF1TCiv4ls/isLrbgHzB9Ir4AJBlLMob1HuSRqPH5ibIM6o8SDmPhSBLHCmMgJRqWlsei+AbwDIs46Nde5B79Pfwmhb67TckwAC1bUovPl2+Msqkjl9AMBHQg31P55+ydyhCGRuQxEIMS2YSklEI69Yx4RSK/3YJ5Bz1gXpFW6eIspVlG+SxuMVcxPEtBkPYu5DBoSYNkIN9TsBnAXgswDikJsy+lBwxQ0o+fC98OTkplvEeYEoR1GeolxF+R6AuFkfZ5n1QxApQymsBc50pbB0ahqbzjLfelhjHYsNDhibMm6jNWqpEjziaGMTxNy8ZE4PmW8L/Mv0S5YclMKa21AEQswIptJaDeBn1jGh9BKes/eAnjOhIMrLiuSSNB4/M9d2zBrjQcx9KAJZ4MxUBKJS09h0O4AvA8iyjo22taLn6W9hvHPPjMsz1/CVVRibIFbXJnN6GMD9oYb6b02/ZAcPRSBzG4pAiBnHVGYnAFhnHRPKsPy+R5F98pnpFW6WI8pHlFOSxmOduQnirDQexNyHDAiRFkIN9VsAnAzg361jLJCBwutvRfGtd8CTlZVeAWcZojxEuYjyEeWUBKJcTzbLmSCmBUphLXDSkcLSqWlsusRczFZqHRvv60Hnlz6DeDicXuFmAcJ4lD3wafiS2xamC8D7Qw31v51+yQ4dSmHNbSgCIdKOqeyOAfCcepyMh8FBlIMov2PmivEg5j5kQIhZQaihfi8AEQ49CGA0uoH2zlI5QHmMmuV2sVmOBDEj0NxJYtYQaqjnAL5U09j0fHjt318GkJlumWYLkQ1vIufMd7l9tB3AjaGG+rUzLxWx0CEDQsw6TC+aXm2oMLJzB2ID/fDm5auHvwPg3lBD/XD6JCMWMmRAiNnItQDobVQqnCOy4Q3knH6e+KsPwO2hhvpn0y0WsbChMRBiNnJdugWYjZjvVOk1V5ST8SDSDhkQYrZRBuCMdAsxGxl5ZztiQ4OF6ZaDICzIgBCzjWuoXU4C59ZsrGvSLQpBgDoqMQu5Pt0CzGYi6+VLA69NtxwEATIgxCyjBMA56RZiNhPdsQ3x8PDpNY1NVemWhSDIgBCziSupTR4AzhHZuJZRFELMBqizErMJSl8lQZjSWMQsgQwIMVsoAnB+uoWYC4xs34J4ePjMmsamsnTLQixsyIAQs4UraWFrksTjiG56y0OzsYh0QwaEmC2QMjwIwsZ0Xkr5EWmFDAgxG8gHcGG6hZhLjGzbjHg0ck5NY1NxumUhFi5kQIjZwBUAAukWYi7BY+OIblon+u9V6ZaFWLiQASFmA7T3VQqEN8jZWJTGItIGGRAi3eRQ+io1RrZuBh8ZOb+msSmpd90SxFRDBoRIN5fTuz9Sg4+PIbplvc+cwUYQMw4ZECLdUArmEDAXFdIMNiItkAEh0kk2gEvTLcRcJrp5A/jY6IU1jU356ZaFWHiQASHSycWUvjo0ZBpr68aAOZONIGYUMiBEOpn16StfSWm6RTgg4XVvgGayEemADAiRLjLNAfRZCfP5UHjNzah45F/kv+Lv2Up08zrwsbELaxqbctItC7GwIANCpItLzDGQWYe/vBJl9z6K7NOMV5OIf8Xf/orZ+QoOPjqC6LaNwdlskIn5CRkQIl1cnW4B3Mg+5SyU3fco/JXVtuPib2lUTj07bbLtj8iGtZgLKUFifkEGhEgHGbNt0NeTlYXiW+9A4XW3gPndd1Vhfj8Kr30fit//UXn+bCK6eS34+PilNY1Ns0swYl5DBoRIBxcCyEu3EBYZS5ah7P5PI3PVCUmdn3nM8Sh74NPye7OFeCSKke2bgmZqkCBmBDIgRDqYHakWxpB3weUo/ejH4StMajeQd6xffAVF8nvi++I6s4HwetrinZhZyIAQM41/Ngz2egsKUPqRBuRddCXgOWA3GAFwV6ihfqn41/xbfk98X1xHXC/dRDe/BR6LXV7T2JSZblmIhQEZEGKmOR9AYToFCK5cjfIHHkfG0uXJnL4FwImhhvqviz/Mf08EsNk6QVxHXE9cN53Ew2GM7tiabS7QJIhphwwIMdOkLcXCfD4UXP1elLz/LniykppB3ATghFBD/Qb1oPn3CQC+ZR0T1xPXLbjmprSuGQmvo72xiJmDcc7TLQORRl68YUadVaFZO9MRgfjLK1F48+0IVNUkc3ofgNtDDfXPHujEmsamawF8G0AihzXW0Yaep76Jsb0dhyr2QePJykLV418egMdTFmqoH5lxAQ6Ss5/5XbpFIA4BikCImeTsdBgPubbj3k8mazz+BuDYZIwHjGjkZwBWA3jZOibXjNz3qLzvTBMPhzHSvD2P3rFCzARkQIiZZEbTV57MTBTfYq7tCGQc6PQ4gM8KIxdqqN99MPcJNdS3mMbxs+Z15FoScV9xfyHHTGJu8U57YxHTDqWwFjgzmMLyAugAMCO7E2YsXorCm+vhKyxO5vQ2AO8LNdS/cKj3rWlsOgfAUwASS9nHe7vR+3QTRnY1H+rlk8KTk4uqxxp74fGUhxrqx2bkpilCKay5DUUgxExxzowYD8aQ+67LUHrnQ8kaj18CWD0VxgNGNPKCmdL6pXVMyCHkEXLNxJqR+NAgRt55u9Cc8UYQ0wYZEGKmuGq6b+DNz0fpHQ8i/+Krkl3bcY+QK9RQ3z2VcpjXE897t7pmRMhV+pEHpZzTTWQjLSokph9KYS1wZiiFJbR5CEDldN0geNQqFL3ng/BkJ7Wj+VYAN4Ya6tdNlzwWNY1NqwD8BMAK61h8eAg9z3wf0U3Td3thpCoffbIXjJWFGurHp+1GhwilsOY2FIEQM8Hp02U8mNeHgqtuRMkH707WeHzbXNsx7cYDRjSy3lwz0mQdE3KWfOAuuSZFyD8dxPr7MbqrudAc3CeIaWH2viWHmE/cMB0X9ZdVoPB9tyNQVZvM6f3m2o5npkOW/RFqqA+Le9c0Nv3RXHyYD8aQc/p5CCw5HL1PfQtjnXum/L7hda8jsGTZ9QD+NOUXJwiKQIgZgAG4cqovmn3SGXKtRZLG4xVzbceMGw8V8/7HmvJIhPxyzchJZ0z5/SKb1gKcX1PT2OSd8osTBBkQYgY4GUBSWj4ZPJlBFN9yOwpveH+yazv+BcBZoYb6XVMlw6FgynGWKZexZiSQIZ9HPJd4vqki1tuDkZZdpZTGIqYLSmER082UzQTKWHwYCm+qh6+oJJnTO8y1HX+eqvtPFeag9ifNlNZTAOS7cjNXnwh/7RL0/qgJI7vemZJ7Rda/joxFS64GMOvKgZj7UARCTCdsSgwIY8g971KUfPShZI3HrwGsmo3GQyXUUP+8uWbkV9Yx8Xyldz6M3PMvnZI1IxFjVfq1NY1N1NeJKYcaFTGdHH+o6Su5tuP2+5F/6dVg3gOm8kcB3Avg3aGG+n2Hct+ZwpTzSnNNyqg86PEg/5KrUXr7A4e8ZiTW24PRUEulOROOIKYUMiDEdHJI0UfmimNQ/sCnkXH4imRO3wbg5FBD/X+EGurn1OImIW+oof6r5njRNut4xuFHyucX5XAomFEILSokphwyIMR0kpLSkms7rnwPim/7GDzZucl85bsA1oQa6t9K5X6zBVP+NebzSMTzi3IQ5ZHqmhHTgFxV09g0O969S8wbaBCdmC6EIjzsYL/kK6tA0c23I1CdVOZrwFzb8dOUJJyFhBrqhwF8qKax6TlzzUieXDNy5rsQOOwI9Dz9LYwf5JqR8X1dGG1rqQ1U14kI59VpE55YcFAEQkwXB733VdZJZ6D83keTNR6vmms75o3xUDGf61hV4YtyEeWTlcKakejGtaA0FjHVkAEhpouklZUnI4jim+tRdMP7wTIOuLaDA/i8ubZj5yFLOYsxn+9MAP9qPrcsH1FOorwOZs1IZB2NgxBTD22muMCZps0UjwGwPpkTA3VLUHRzPXzFSe303gHg1lBD/R8PWcI5Rk1j0/kAfqjuKTbe3YWep5sw2pKcHS1/8HH4K6tPCDXUvzGdsh4MtJni3IYiEGI6OPDeV4wh99yLUXrXw8kaj9+Y7+1YcMYDRjTyJ3PNyG+sY6LcRPmJckxmzQjNxiKmGjIgxHSw3/EPb14eSuvvR/5l1ya7tuN+AJeHGuq7plTKOYb5/Jeb5SHXjIjyE+UoylOU6/6I0DgIMcVQCmuBMw0prCMBbJnsw8wVx6DgPR+ENyep6bnbzfd2rJ1SCecBNY1Nx5nvGVluHYsNDaLvp99DZMuGSb9X/tAT8JdVrAk11L85U7LuD0phzW0oAiGmGlcPV67tuOIGuaYhSePxPXNtBxkPF8xyWWOWk0SUq1wzcsUNk64ZMdNYV8+gqMQ8hgwIMdU4xj98RcWjpff8E3LOuiCZXP0ggJtCDfW3hRrqh6ZNynmAKB9RTqK8zDUxsnxFOYvy9pWWOb5Ds7GIqYQMCDGVLAOwUj3gzcv7VfmDnwkEquuS+f7fARwXaqj/8bRJOA8xy+t4s/wkorzL73sMWSecajt3rKMN491dR9Q0Nh3a/igEQQaEmGKuU34X0cP7Kh/7t3VJru34IoAzQg31zdMr4vzELLczzHKcWDNy420ouunDYMGJOjDTWNPylkhiYUEGhJhKrNTI6+Yq6qeTWJG+B8BFoYb6h0MN9WMzIOO8RZSfKEdRnma5SrKOPxnl938agdrF8u/IOrkM5KB3CiAIHTIgxFSx1EyjPAngNADNNY1NR+opLY3fmms7/jCDcs57zPJcbZavRK4ZufsRuWZkNLQb491dK836IYiUIQNCTBWnmp7vQwCsSGKywdpRAA8CuCzUUN85gzIuGMxyvcwsZ/uakdvvx+hu+cZDGkwnDglaB7LAaW5pnc7Lb3CJQHYAeA+AWbEOYYEgIsOfmpMcVDaa286kjaV1U/a6fCINUARCTBeOGVnmXk7HkfGYcd40y/2H2vGVZuqRIFKCDAgxXThmZAG41fydmHmGzPJ/n1YHlMYiUoYMCDFduM3IItLP02Z9vG7+TQaESBkyIMR04JiRlW6BCBvNZr08adYTpbGIlKBX2hLTgTUj67l0C0JMypg5Y+6PAE4hI0+kAs3CIgiCIFKCUlgEQRBESpABIQiCIFKCDAhBEASREmRACIIgiJQgA0IQBEGkBBkQgiAIIiXIgBAEQRApQQaEIAiCSAkyIARBEERKkAEhCIIgUoIMCEEQBJESZEAIgiCIlCADQhAEQaQEGRCCIAgiJciAEARBEClBBoQgCIJICTIgBEEQREqQASEIgiBSggwIQRAEkRJkQAiCIIiUIANCEARBpAQZEIIgCCIlyIAQBEEQKUEGhCAIgkgJMiAEQRBESpABIQiCIFKCDAhBEASREr5UvnTqZTcmfS5jyh9c/m8ct52knMJt3zkSwLEAFnGOIxhwBIAaDgTMcyLgCAHYAGArBzYwhhfEByOjoxgOR/D1LzyGE45dha7unsRFc3Oy0bWvB3f/0xPyX/G3Qxw2IY/8nZsPwOABx9kAW8mYlGclOGoBZJlfHwPQCuBtMCnXFgB/4pyPGOXBEmXROzCAZYvq8JV/fRRLamtw36OfxbO//B0W19WAc+5SlhPfVYo0UV6JslMKWb2M+Mzr9WDL9mZ8uuFu3PWhW9Db34/WUAc++tCnEYlGkZWZ6axE7Xp63XGzbJj6ia1OOTzweIbC4XggEIDf77NfyFbGzudSD3LlC9azJs61PteuxZT7eDwMPf0DUob/+e5/oLiwEB+862Fsa96FosJ898fWrqeX7cS9uaOO9Guol5moN25ekiXkFx+F2jpw83VX4NGGu9DZ1Y14PA4dr9eLvJxsfPzxz+P5l19DRVmZ45wDkXgO5bmYW92wSfqw3n/NZ9vZ2oYvfeYRXHP5RWht70ics6i2Gl/8j2/ia995GksW1bq29QnBmO0eB2rjUOsAQP/AIAJ+H77/tS+iurIM/QND8nhmMIhodAT3/tMT2LGzBYVa3dtIqo079YYlps/nxfpNW3Hv7bfiMw/di3daWie9VXFRATZs3o77P/UviMViCGZk2EVhzLXdQdEPZhkdD44TARwFhlXgqANDNozThS5q4cBGBmwGsA7AX7lahuaD7AqF8MBHPoiGj37IVd6UDMg0cwqAWwCcD44jOHM2VGZvb0sAnGl1Oo/Hs3tsbOxHO3e3fmLFEctQUlyEsbGxqZDreAZ2F4ALwVAjjyjtW2s4wqCcpjT2PQD7OcAbAezULyw6kDiturIcY2Pj8DCGmLNP3QzgfmDiI3FtWRamHA6Fq4gmdKfP6w21tu25urK8DCevWY2BwUGMjIyipKQQ5WUl2LTlbWRlZuma/PcAisAQh2Zc3ZSqfszDGBuPx0fauzrPKyspjgvD7vV6LvZ6PE9w8LhejJPUsXYbZit3qwwsQ8I1kawbeDwebyQabezYs/cnt910rVS2IyMjyMgIGG1kQkF+nQEnMiAOTVklfneRTzMe4o9x6eQAwntpBrAbRocV2nQXgNHJnzJ5PB6PvHfMpdEkA2P4OID3cI4Y0wzuxEnKvy4GP9EGRTvzeTfsbAndVlNZgZVHHYGBoSHHPXOysxE3NeEk9qMAYL9mgB+WjmSa86I/h6n6TEfBOzo2/v9CbXs+d+uNV6K2uhKDQ8OJc8djMeTn5SAvLxvhaARFngLwuKsgdwP4gOh3tueH9uza71Yz9vt9/rb2PZeVlhS1n336yRgYdpbFFJIL4HYAQtuvSDgDuhNg/L6IAWcq+nUnOP4fgG8B2JbsDWeLARFuUz2A9zKGo9UHZYrXkQgCmN3CM6VwxsbGF4Uj0Wtvvu6KT3zsw7egID8Pvf0DNq/kIHkXOBoYcJHtKNe8UPOw2vkSyguoYAx3AuxOAF8E8LDtUpxjYHgYN193Jf74l1fxzq4WqdC1Bl0NYI1+D653eCGTi9H1eTzo3NdzTGZmEN/60hM4btXR2NUSAmMeLFtUi4vPPROvvb5OGlylR5zHwC60rse1yJGbyptBCxfMX4Vii0SiCLXv+e+rLj1/7OGP3Y5v/ODH+Pmv/3BlaXHxCUz3Hl08S1u1MaVMVaWuPr/qCSp1JIyyiLA6OruG7qm/FZ+476My+iouKsS5Z52CV15fa2gp+T12E4B8aFGNbjxV2TiUjqoXBbd75uYX9gB4FcCbAPslwNchBeKxGLKysnD4YYvxmz+9ZFz64OyIjzF8kXO7sXUYzckiACjRFjci3M7uniNKS4pv++a//TOWLq5Fa1uHjJQs+voGcM7pJ+On//tbDA4OIyc7y02uas5wGrTbJIpPMyZMcTxEXx8bj4n2/dPb3/8ePP7wPRgaCmN0dFS2SYH4vaKsBNe8+2K8/Po6aVA8zJnRZ8JhBNYwW+VrHUHtH0q5+Pw+tIbakZeX2y763Oqjj5RlYcnghmiDlkNwcLAGAA9xjlJVHyZ+55p8SmBn1v0SMDzAOB4AY896wL4Ui8df7Wjfg56+/knvmu4xkIB4aADvcI7Pco6juZt3A5cOaKL/vaezC2eevIZ99XOfur+yomyNCGF14vE4gsEM+H2+hBfkQhkHnmLAHyzjwa3O6YysHdiuatO6eAgc68BwmHqK8NKqy8tw49WXYkB6SnxCGRk/Ldz14hMKyjU9aB4MR6Liebu+/Nl/OvLU449dubu1rUQ0VI+HYTASkY27sqIUo6MjRmRj/FwLpQEyXZHAqTChlNH4+Dj6Bwf5xz78vl987QuPLz+srnblbTddX1NaXBwIRyKOUBwutsH2HKpxUe7F1XJW5FGvMz4ek+mMRz5WH/jMx+9Z3j8wePTg0HD2wOAQzjvjVCxdUieVDDgyGYPPlhpRHBl34SwHh7u2W+g2zijHCnBcBY5/ZgxvAeyvIgrAQcLls41JhyA3J0uW+URhJfVzFbirfI4UDbSIzl4ARhlEjHYW+/cnPrH6uKNXHN3atqdYNR6C/sFBrFi+FGefeoI04pNQpzhgCeEmKX6bjHEeR09vH+pvub7rycceOnwkOnJ0X/9Arqq4hYLu3NeNs089Caccvxo9PX1ad0vco8i13Dl3GGo9au7rH0BVRfnL3/73zx128rGrVoba9yzen2EQ1/R6vDJtNWlaz8kKgL3KgCcBlE4IowrmPDRxU7tzbpzHrh+LxV7Z19O75vJLLpDGfjLSaUA+KMN6hi9wjmz94bjWaNlkXqb2pZGRUSyqrT4cwJc6u7pf93g8j6qVJoxHfn4eunv7sLerG8FAwCkZw3UAtgO42aYz3GpAVy5c8U7thkNN6a6S4zZ8wsMSnayjqwtXX3ahTC+1tXcaXsjENYf1qAJaZOA2ZmAdGxwexpHLltSceNyqLW2dnRsYY/fBVHriHNGpZfrM453oPpxdDzUtpDpgejpHU7ZC9o69XTj5uNV49P47f9rXP7Ctb2hww1A4fHUsFhvymp3Z4cUzzX+wl5ta7ND1HFMvpEWmw+EwFtVW4forL/lZ3+DQtv6hwY0ej2exaA9jQukyZsl9LCBzxY7rHsgptFJrHFo71evE7bsMZ4DhJwDWyvTtQdA3MIjlhy2WRlA4IqLsk/4Bu8O1jWuRoaPtwcV54MbYY2VpSUFtTeVbnT09G71ez8cdRcA5/F6fHOsTnr+r5mZGtJ2IAidxIOEyJjIyOoasrEzceM27vzcWj23f19O70efzHqHLEYvFwTwMmUE/YvGYW9GK0Gi1I23JjLpO3FZzKq1n2NfdgwvOPvXUE1etbN6xu0X0uS/tz4AIZzYvKxuv/ONN7O3chww33WTnNjBsAnByIjujlAvX5XYPHKE7EMIA7+vpEQb4jl/993/hlBOOnVSAGTUgZhlXMOCnYPguhzGWoGc/uBJ+2SISRw7F/m9cuI/BDFSWlWIslmgQ46oMIuoQyuupZ/8X+3p6ZSSi8QiAZ8GRb/Ow1ZBPKW19ABLQ3E1mfx6FrFg8/nJGRuDY7Ows2ZiHwxEU5ubiluuvkJ6kOKbYpD5o6Qnbdc37qIaMK/cTzzw6NoZ+mc6T1e6xzhMeT2uoA/39g/D5fNZ1TgVDqa1hKlGCrmBsmIZpdHQMF5xzmvjUL7yx3Jwc/OPNdX9s79h7TmJwUKlXm25SO6uLAdOf29ZhXLwv8eyF+flmOQ8b6QqGViHT1rebEerYK5UOoESGzBnsYTLDqXzG9O8zFy+Qc8czmUryWAb8EcCDk8e3diLhCGqqK7F6xXL09w8dTPqjDAzvYvtr4+qzqahloLRx0X6GIhF07euWvwPI042WiARGxsekkvRp0YnCIrV8E3WNydu4pS9E38nPzUE8bkSdMgJiaNWNVHZ2JlpCHdi+s0W2TRcjVgUgx/a8eplM6sUYAgWDGZ5xbhgqc+zLFWFUy0uLsentHfjOj38mJ0bsL9UFyHGr75j+n/3eapnBHqHbxgi5vX1ajxEdGUVBXh4uv/C8+tHY+Pq9nftunUyImY5ArpMDNAw3QPdioXrt3NWL1CspocjMv8fHY7IhVFeVS0/IvMCfrXxMPM5RW1OFP/3lFfz8//6AqvJSW6jIGL7JgH9N3EPJItkUnZvSsxS4alxUcTUvXfyaFcxAqH3PK93dPScUFeZLWdr2duLSC87BScevQnvHXngnGlG77Vqw5zeh3otNyMm50wOxdCoUr19EILFYLBEBMLOOXDuOdVurHriz8fYNDOCIZUtwxiknoLOnR+aDI5Hol97asGUL87BVavSkNmi1ftVjTFUa3PncXGtPegZARFf5udnIygoaXi/wCjgGRPEODg0jNjYub8w5Sm2RZBLRUOIzl0JWZ8hBqRvucpFE+zfu3ciBzwvl5/GwA4xrMNl2jjnqSDkhQNSjkWLZ/48cbFUdIL2Nw+mkQZvpprdxOZg/HpN90XRUfPp9PV4PhofD2Lm71TAgan1O/JRPXNj+mVsbVyOoSCSK6opSlJWUIBKVkx+3gGOvfo+A3y/TTMPDETlTyqWMyjnTHAEcoG9bXnycIzMjIGecydlzxuevTFqDjCE/Owc/+MnP0dLahsLCgknTWAx4HOBf5JqTpZ6gCqNnQ5gyvmgzKOY5IyMj0gkXbam7p+8Yj8fzg8nknjkDwvFpxvAsB/KUY4l/7Y4cm/hYj0D0QlOMSmx8HJmZQeTkZGNs3JpVw7sslzojGJCF84NnfiG/ElBCRMbwbXDc7ua9qhXl6uVCCbHdKpU5Q0dxnpCzbU9n8N+/8f3XPIydLGQPR6NyiuHN119pDgYmAqhOcAw77q01DGgRAoMeHsHW2kUHHhwcxvbmnfAH/OpHV7p60+rQDHcpCvncHnR39+HsU0/E0kV1ckwnOysTrW0dT27dsTOrID/PJp/Dg1L/Zs6cvOqN6tdIyKg5JyIaqqupkrN/YjJtwuRsOK/Xh6HhYYyOjUsvkTEco8vh5jBwblcqXC8ntai5XTaHXnCLaJhMJTzs9Xruy/RnSG96UpgwgkM48vDDUFpSJD3IpOD4wH7buP6vy331Nu4x26wx205+6JwXbhoar4hQnF4/zPzQMW5e/WRtXFWgMo1WXoa8vBw5PgRgq5v4Gf6AnIk4JAyI1+cmyGq3wALM7tja+rZZh+OxceTk5KCitFRxZrHV9XkBOWnmb2+8hf977gXUVVcabdSdewB8mlnT2Jl2b6V8uC74JPVoczQZZF/IyclCVmZQPodckjAJM2VAnoSwmkrHdgzUMc0DgjZoq3m9CZROFx0dRWlRAUqKCq1O1MOANmaOfdRWVOCXv/szXnzpNdRUVSTm1TPgc+bUt4nLcpfOb4k5mbVnWgfUvwf74LO4f3VlOX75++c9z/y/37xUU16+VHzWvqcTl5x/Jk498VgZ5nsMxRYGw4BDOanywhkVOZSy5kKLRtK2Zy+2v9Milat52ZXm9OiJa+iejNqRtWceGR1BUUE+zj/rVERGRuSHebm5u7c179zTvqfzarnWROtEqkLg1tx23TuGuzJRsXnxibbG4fUwOUnA4/GYdcu7mccjZ2Y172qRys68z0rbfZh7O2VqihVwX5OitHHGtEu6pOb0Nl5aXIjf/ukvX35t7bovV1aUua4DsRBOwOLaaqw8YplM2zDmrpmVn2MBLNc9Z8Du4Tusszrm5/I90VZFtCcMtkzBMGS5XUucZ0RWrlqtAsBitVC45lA62rhyGaF8c3OzZbravPxet5t4vAxvv7ML0WhURvrK5BHrZ4Wqk/YXBaoREDOzIVnSmc2S5WEWaqdbXYgyyAlm4rd/fEGuS8vOzp5svOoscHzF8cxc6Z+KHLpjDkWvMU1w9bui7sqKi5CTnSOjyXQbkK8BaFAfmsM5WGdrtPqDKx2W6R6c4kFFIhE531sYEBFpAFjLGRvljEmvfmB4WE4d9Pv96rTCO8DwCV1ovTJsSgx2T5K7nA8371xXeua0x/y8XHz3xz/zhfbsfSkvN1fKnpURxIXnnCFz9yIc5lzOQx92hKpqp3Yrfa67a8w2XSQQ8KOvb1B64YGAz1J219quzyeMn+5BM03Ji4a+t2sfTjlhNdYcuxKd+/bJYwGf76vrN23B4PDwKYm8t9IB1AZtKFhmj0B1T0uNXt0MpVJG4nyf349c0SEsJcywye/1YmhwGHv3diHgD1jPWQrYlYYt5+6IlrWixeRt3P4l7VeXNp6Xk4OdLW345vd/fJ/X4/2GOabgivD6C/PzsXLFcpm2OdAkHsZwl26M1WdJzDJS2ji3f9+1jYvoUyjwWDxmTQLJZJxB/RH1PxyOYGBwCH6f3028MmhF55hcoaLUieEseGQEwqSzID/Zoettj9eYYi4MiIyU3NtPiWrgHTqAaW1XOR4dGUFpUaGcFh+VThT2gvO2RINSfgoL8rFlxzv4019fk5GIHPt0npYNhuccDrQqi8shppWPrn+4Fj1DOtsxLF5Ug8zMDKO/MPbGJHedXgPCgEfAcRfXcvFuuXs9bHbzJF2VsqJAhdUvLMhDICNgrKHgCMnByngc5eUl+NOLf8PrazfA8uaYXByIb+y3r2kVwxX96zYf3tbpuN09s63fMI/HOUdZaTE2b9uB//3NHypKiwp/Irzvrt5enHHKGhy+dJFMT5gM2557Eq/MkYJwRCETB4Qx7RsYkB1ahvGGzNfpRWwrbqYobu0EYeziMY7zzzwVmcFMOd7g9/t4T19f09vNu5AVDJZwVQtzrZ6ZvWM6Ii592qFu3LXUEsxB1dycbNk5R0VkangrG7w+r4xah8NRS5EVMYZq6OUHpQ73Yxj228b1MRLNe3Rr46LsFtVW4eW/r8Xf/v7GHWWlxZMOZgplPTo+hsW1NTJduL9oxVz/Nel2ElyZZXSgiE9v41YKa3g4bI3f5XLY/xORifByR0bG5LRVcOg/y6yycdS14jAmyk+RLTYel6nhRbXVGDNTR4yxNxns//m9fjn20T8wlHAeXH6WA/b7WL9P1rctXSeMU211hVxZPmJkQ95KLEZUEPVUnJ+P3z//V2nMhDPpBjNm6GUw1ZHTnapJZAWbZGGuHl1yo/8KR6VIjsFYbYi3uAqVugFxL237D64EMwek3QTWjunKWF9vYWsvWqOyriMeXlhzZX2HHHgWDZnHOH77pxdkTs/n9VhXeo5D68S6bNyu3PROxZlzFhmYJq+uPBQDaSm/3NwcPPf8y+js7n5PZjB48dBwGFUV5Vhx+GHSUzPLJww9AmDOarHJ4OqxTFwgIxCQCxcHB4fkQCKY7Lwr1ee2hfVwPqt6oLe/X+bi5eB5d7fsrLm5OT9r3tU6sOXtnSgoyDvMrR1MZsT1ab42b1D/slW22t/CA6woKUZ1RTnCkYhZTrwzOzMTofY9aNvTKQfXARzLOQJqRMM0ww/deLADpzdsbdxN7v208WAgIA38y6+9gcyMjB9YU4zdGBsbR15ujvQcjTGTSfvnVYnZRZO1cU3OSaMpvY17DAPS1z9opbCKHedzLvtowO91NXQcchsO97a7nzYuZ2DFx6UBzc/NlUbKvF+7PkAuIv9wJIp+EQX5XaOgfDAc46gzl37FtXISPzG50j1PDtRzRRfpZGYGsXdfN1546TU584o7ln/Jn/MAXK6XvSPaVSJk177P7G1OTWcl2hzncmyoMD9POuQmk84eS8mAJDG/vIoBP7f1MWYPyTDJA1oPcsBITfPg4rE4srOCWGLNLTdOXiv+KS0tliuN//aPt1BVXiYjEsbYD/TG7Tq4qSs73WO0DvEJ+W3rV5Tv6QOvie9zjpLiQqzfuh3/WLseZaUl3xRec1ZmEGtWr5zoZAz9gOaVJS4O+001Ge0PMOEtioa+t2ufmou+zim8S5kzOFIcou57e/tw7mknYXFNtfRCxXVzs7Of3LhlO/Z2dedmBDJWuSlbhyFUPU1VaXCtKvTn1mVlxhReYaCzsjOtTjEIoC0YzJAz3Xr7B6z0XS3TvTXu8vj650p9cze51O/rU3snST1YXxCOUE52NjZt3SGnnfv9/s84v2EwNm6sf8jKNCI/3etW/rvDccNJyi7RZrUZaJO1cXF1UcbCUEsDwkVUx3yqfhDKOzpiRH4iCnQ8P0OVWpiMTVLXLgbdMKK5KMjPlfUu/Ac35S0U957OLnTu60Ew6LreoooDfs4n6dtaG3AobG6MYclp8cb+XCE3XVlSVIi3Nm3Bxu07pA6YxBP5ttqfJ40MFafHKjuufWY7D84ZWjL1VlIkB/KFgZWrI8DWuwmFaUthcfwvGDy2B1W9WU33OZSc7n2oA7jqFhdK4YzFYnLQp6y0WG5TYJbydlF5OcFMvPDSq9jb2W2u+2BnAJDpAH1w8yCeMWHomKbcmMu0OqZ7d9z+uc/rlWHvK/9YKxR7ncfjebeowOVLl8ioytzPq83x/FxpQdoDuN4rUYjG90ZGR6UCNaYxynOvdUtN6V+HrvTNvG9JcRHOO+tUDEWjllHZ7mGev2/fsVN4hFUexoKT2aVEo9/PPV2fkTlTClAUufBEC/JykJOVhTFjVonoEBGh4Izpy+PWtNoK1wLk9ghC9disH4+HyXzx4NCQLAcZ/jP7c+0varJNKtG2ccnOysKern1yQkVmMOMjk21BxMwBWbm3GmOuriyYHON5l7PwXeD2/srgXHukltXExIK4nJxgOiV5nPMc1ftnzFiTFDW3FtHjI3PbHltZwCX6B7R+B8hUbG1VuXDCjAkcxkarju0oMoNBtLR1oKevT0bh3NwCyPoBQxWDc2zItW/DLnwsFpcR7eK6amNnAGMix5t6FCQcQ+Htr92w2cgAeL1u8eJlMLYZ2X+Uq8inGhnXNoeJfqYPqsu98YoKUDSReusA55Pu/piSAXEZ4FEHGz8G4ARdGXC1st1CK0zMUOL6w5oHZX7d8sY1qy8qSkQgwluTytYonb1CaTS3hPDSP9ZKyyrHRhh+Ak3hyD81uRJy6LIo58kBbkzEnZMqRzcnjymRSdyIQv766ht4u3kXcnOzHxHKbeniOixdVIuBwWFxrmsYrJehflPu+lDGAsJ9+3rlrqlCScn8P3AC404Fp9YDXLxBD5hUcGeevAbHrT5aLiRjhqf31VBHBza//Q4KCnKruFnJHNxWBlAUqGOAlquePXcMZKuTGaxOwZUzRHtYVFdtbOA3LtvPLpgRU09vH8bGYlJ+AMc5Kkqrb0t+fYxDtAPhWZeVFCPg88ltMna1tEkvzlzIZo9UmL1smaqguf25hdMjrtfa1iEijGzo+7IlqoonPNv9bIVxux5FHKiNqwbIdfxSu4GHeaTyMdYVsYCyU3XiG8zDnJGY8eMHx7Fcu7rDGZ2kjYu6FnUgIjGhyMGww60QhMEfDoflXmLcRQxu7junPr/efxNdSTMqcgpvdjaKi4qsKEic8I4+xcsf8KO7rx8bt7yN7MxMszy47YcB/wzdcYFL2at1qhtZxuTOwz19/TIdKpxGo50406qi/HJzspApo1jpbHW6lZ9FSpspug2mmeSC4z/Uiram4uohH1MMBjQPg5kPLYxFT0+/XOjlYUwOjjNznrfoIPl5eTJXB3Px0BFLFsnVnObioZ0A9hYVFODV11+QA1SVZaXi3DvlRm3q80Abg1E8bA59AIrJKaGiMnp6++XKdxE2+/w+VJaXGjM/JlJOYG6dTX9u81/paXbuQ/PO3VhcV3Nax97Oqoqykva6mkq8vm4jigsL+uGyxoG7bDo4cTO98qzggyGYEZBKqbunVy4aMset7N91qWtuk8H4I2623PPOPAUZfr+5OR0bL8jL/d5fX30dbzfvRH5uznE8EbGxiVtonr7qZFhtxMs8iPEYOvZ0yVSNHHyFdr4qc8LQcbS37ZEra/3Sw5MX7BJKfWhoGO/sakVGwG995wjHM2sdMrG9jBLliOfp7u3FsUevwOc/1YDevn65ffn6jVvw7K+eQ/vevXL8RabPuCa2tkW+Y3YiNzaljI6MykVv5gy2MwH8Wq8Xv88v04bhcES2y0mMyAetLVccaUPtmYWSt8YRRBnFuSY8d7ZxbobjY+Mxy9iKQretBfH5fFJO0U99RppLpQpA6UT/YBO6gtmnwTvkZpBRYF5ujhxjMT2JLrdCEB/s7don68TjotAYsFQrDnvZaOtluNmJGbcWNGfLH1l+xgPs0e+Rl5ON5p2t2Lpjpxw856pHbHA4GI6H8vy2aMfm2Djrz+vxYCgcQcfeTtRUlGPFsiWyX7a07UFzu7Fhq5AhpjjlQt6aqgppRIaM3Yu37k/hT/VuvF9yeC7K71zzJGyVohwQnaRjb5dMBZx47DE4ZsVymcYRoZVo1N09fdIj+/vaDXILclEQY+PjqKwsk0ZFvvuDYQPnnIuG9Ma6DYhGRkTnFxHXFxz3Zsr9uV0hW/Jybk0t5di5uw3LlizC+2+4CkK5j46N448vvoK/vva6TKFJjzM+0dlcFQQ0T8qc0jsUDstFfRe/62xx6PpAIPAV650JHHzYSFMo8mseoW2BE0vodxtWqkN25LDoyKPynQnguFotC5s3zCY8YlskaYZtPX19cg3CKSceJwcFzU75TEZGxvCGzdvkYGVRYcEyXclzJcfNmFYlSkQ6OjYqUx933HqDdBKEZ+9wtlxcNPGckWgUx68+Gnt7eqxzNvvMBYRCbmUQtRS6kppEUdmcHhgOTFV5CQ6rq8FgaRFWr1qBqy5+l6zHBx/7vExBlRUXS6co4ZS4vXsDikedUBhGQYk2bp5yKlzw+bwYGg7LvaBE5M2c1v84MCx1U0DQ3x3DIafiZmVmyusODg/btx1x+a4hqxEBCU82Jmc6yj4T1AVJrIZ3KqdSW1tzcTzh1sbNawb8ftRWVSbuYe4VZS8nWfdh7NzVioDP75oaYkCJTU/pCls1/qZQ1qOItnnkYYulLjCn8Da7efJZmVnYsXOXjILLS4rc9PQt6qA6FDm4tjeY/lXRt4WBFOd/+KbrcOUl75KzT0WdtoY68Oe/vIKf/+YP2NkSQl1NtXnpuNRvNVWVZrnIgnlrf7mzqTQgteD4sO2I6kUyl0bL7R2UmQuLtjXvxFHLl+GeD9+C004+Xm65DXOBEDcNjKCzax9++Mwv5ItpevsHjBlYfh/MaaJ783NzseXtZrz4yhtyOh3nuIcxbfaJKgvUTmsXz2N26l27Q7jo3NPx2U/cj5qKCozFY/B7vLjl+qtw/6Ofw//833NYVFeFOLMvhFTLw+HBKrIIxdvR2SVTcgy4aDwW+4rwXkVIyTkftDwyVX6bR6Z4xY4pj1anMgkGg9jd2oa+vn7hIRcDOFf15pkuN+C4N8zBeOF1f/DGq1FXWYkdu1usPY++EDYNYsBYw1CqPj7TVre73C5RH4NDYSyqrsRd9bfIDedEuU/WnNT0hygtn8crjVpvbz/8ASnHJuGdhcMjGJIDuXLBWS0DKh3l6WY4MFGuVhkL73xRbTXGeVw6NzyON8H4upOOXVXy1c9/6rQP3/fJYmGsMzODzqDJTYHZFLoRrRkKWf5Z4RYaCkMYau+Q3r1wtlwueyfT+pza/vS6HRgcxomrF0ll9OqbG+T7M3Qjp7dxZkZpwmjHjckq0FejCyXfK7cQCcv+qinOo3Tl6BZ1ONq4OY1feNSJrYyMzxwDwEJ/iChtYGhIppFc/WuGoxMXZk5vX3cEVSdgZGQEVdKZzZULA8HYBr2Smflys83bdsiyYjKi1r0f+XoL5b4TL3piTKs/pQJEme/r7pFl8eTjD+OcU0/CUDQiF5j6vQGZYj7jpDW4+vIL8S9f/jr+/NLfsWRRjYx0RRsS9RybmB3niJxsZbm/DydjkrflfVHvdFzbS8rh9Suep9xDJx6X76g4/4xT8W9PPILK0lK0d3WZ761gajjQyYGBooL84MN3315RXlri++DH/kmG7f4Jy/lOcWEBnnv+JezYuVvOjwfnn9Tv75b2SFSE0jmYxyP3qDnr1DX41pc/i1ic4+3du2W+V8hdVlLU/5lH7u1uaes4bOO2t+Wb7tRGzrmLYXLZS0tUYHd3rzGP3us9i8d5VkZGIGw2kiFHY9fSPYAzT22bZmx+aP27s6VVeovMwy4B4NWvqXqrNl2hXFN4XJVlpTjvzFMxGA5bN9yYk5O1fneoA1ve3il3QOYcK1ynAsNeBzbFZP4rOlldbaXMa+9qa7e2etjnaIg6ynP4Az5mDo6EcnKyZbsSxjorM0OIvDIxJqgbY2hRKibahxGlGbvLCgfGWuPiYexfx8Zj/yMMXWFBfl5mMPPZvoGBC3WxJlWSsKcJmRk5muSAc48xQ2biesLpkFOnbR0tgZcxdqOjjSu/6886OjYm3zPSvmevY6t6dbzS1sbN78qZkIm+xWw7loo2Pjg0LGdqFQcL9BpbrZeDqqH318bHY+PS0crNyZ54iRx3ev4i0hcOycBQ2Jwl5aDUfPup00PRHD6mv7TJdHRzzDSaoYu4Qwa5kDEaldkSZaqvylIGcz1M4rmdqyn1GVgwB/GHhyP41AN3SuPxTmtowpgzYTvDfwHH9iMPX1r7/f988pj7/umJZb/43Z9k5JGTlYnSkmKZVTHZ5Swe5Tn29+HkMP2nEpzfaPtYt4yYUJKcuU+Ha97ZgisuPBc//EajnHa5becumRowvZi/yu2LOV9hvivg8J7e/kW72zvqPvCea67/zy889r+LaqqVN36xN0WH2rTtbdN/49eCoUQvbEcoDm2A2Exd9fYNyO05nnjkfvl5a6jdegHNgId5PjQcjtRlZQWX5uZkPRIbj7mumeCaxwfunKYq94zq2Iuu7l4EMwLZ4WhkSVVlOUqL5djOgE1GxQiq6Wn1F+7Q+BMFPjo6Jr1Mw+jKt665lonuotlkZkyO25xx8vE4duVRskOYp38lT0SA23egrWMvsjKDxYmXhU2yIaJ1P7eUq6hL4RAEgxnWRIpXYbz50fnDlN+5+aN8HovFWnIzM2Xb2Nu5z9rSvyohi1aeXH1uXVxm7AKdkRGQBsSaQs7Bh0uKi7B5+w7cdu8nB7q6e76Xl5PjGLhOpAnZJFGPgs/nsT7PMN+lk8Dj9Uql0d7RKRWSC9dIw8Ncyl3ti+bvooyFMhFR1eBw2BirwER7cEudWG3c4zFmFAoDZIwZ8Rx1po18H09GwFDe+joQLncItteBGaoeqI2PjIyhuCBfZizkVkYcvcJZ0AsiOzsbLaF2q126lVW5o3xcIhHd0bB+hF6oKis11p8Znb7ZdgI3xjtbWtuxefs7cszGhUv4Afq2I3QyzxscGsJRy5fi9JPXoLOn14hc5HZI7IsM7DAGdglj7N5draFrwpHo4V/9wqevvvWGK1vaOvagpLgYtVUVCEtHUL769i034SxSXAfi+HnY5iFwZ+Havqt2IuNVo9gdaseZJx2PL3/ukzIvLyrXZ8xe6QFwAxjOAvA9c2M0OUru8bD42NhYx+72jv+54epLrzrhuGPu6umRu54jEPDv7Onrx6ZtO5AVzBRy3QcOxxYNCTmUSnJTYPt6evDB914j37vQ0tZuzF9n8t3nqzxe9t3qsrKBrzb9EH9++bXvl5eVuC4DVqMxh0dvniC3wxbe0eCg9NSikZGjKkpLUF5WjGh0ZE+iDBW5ubpCWtF4VnqE63kSxuS1BwYGpXeZkRGoYMYrhG3YykkfF0h4W3HpaYnoQ3hVpnKPAHhKeOXrN22V6QKv11uhFrc+DdRRJcyZLhIGxO/zWjOsXgEQ5eDRrMzMaF5uTjQ3Jzvxk5+XGw1mZEQ551FzLYD4iYi/iwoL0NqxBz/5xW+MwUtDkFpbVSjRTyLFo0fYluKKjqC0uEhuoyOeFQxxxthG4Ql//8c/w6v/WCs+H4lzvr/xSKc95RNOl8/nlUonPjGaytS6kAvSuvZhd1sHsrOzHCs/AHbHpIoQWiQuospwRK6pWlxXg33dfdJAYRIjais3maLyyb25RD/2+eX3StVz5EvMhoYxLveI8ti1L8NiZ8fQDNckbTwstzKqkFPJrdXfjLFRfe1FRsAv04wiyvf5fU53mBnTZq0buNaLJpoVkcbixgB6XU2V6sU7tgIJZmTI6Lent0/+7tCpwAlqlOpoe8pz63UyZu68IPrl6NioVV4fM9+EmtgXzOv1yrUwPo/3F5dfeN4xw8ORUGF+rlxHY85kFcZ3YH/1PRXTeL1yaiC3d7LEM+3Hs+KwvPt+FObl4nOPPihzkh17u6xxjt3gMhf57GSyMHMxnIgQYvH4141Xx0IohpHmXa3Y3SpfKVlpvrDH/V0JqnwuHrGQb8XhS+XLnvb19Rsd0jj39PHx2O4lNTV4/m+v4cvf+D6KCwr2MsaaHQ8KZ6dg+lbKfGIrCOFBiVA7Fo8fL7zbvGz5trkOUxHaWrwj5Fe8Qz0SsuTJDGbIgd1Qh1yFfTXXrsH1MRSljCzjJT7v7u3FqqOW47STjkdnV7dVvj8MBPzRvZ1d2LJjp9zYjnNepxe3/gebxFjFY3GZZlqyqNaYmmk4AnKDt4rSUjlQKRyOrn09iZ/Wtg7pLBy2qE4qV2t3U7los6AAP/3Fr/Hm+k1yIZcZGq6Bm4JUlS63K3WLqDl3Xhg40/NtZ4y1RqNROZOluFBEJuMxt5lyqp1kLmksmK9fLS4slCmGiFzcZc5TVhSv8Oj7BgZkP0jMKpv4KWcM53P1mbQ60D8TkenSJXUoLytF/9CQ/T30NmdEOWT+Lpyr4XBEKnFztpzNgAhveEAYkJixA7IiZyY4Em8vcnRV7l5+loIVUWpRYb4sC+nIGA6e/RKcS93SPzBo7MBs5SfUHz6xDAEuyhuaEVM/i42PyynEBfl55hRe+WXH9HsR9Q8OGmuGvG7v/WBmmbm8k4YrEavNmTTlzAoG5e4KfQOD8nXBnPPXwPA1PQ1pbea6afsOPPr5fx/w+jzvKy0pNDaANBbc7nf8A1M0iH6zPk0P0MYP1A/4hNLjZoV29/Th8Y/fjRXLDpPjCj5jdWoHuJzC1nMgAawpv4aHx/4rFh/fkJeVNbRl+9vSwh62qO4mdeoSY8qAlDYmAU1WY61AP9533RVYVF2FHbtbzR1d+UMAWgvyc9G8uwVPfOnrUu5cY1pcpzkFz97oVM+Vu0Q7zPAKRMeTDcsrt3ooD/j98trxeGwQkKvRg7qcUD175XpcG6C2opFAwC9nIYWjURH1XKtPpXUbpNOVjCgHobDOPu1EOV5lDZ4D+JLoQOs2bsXW7c0oMKYornHTB6r3Zr/JxP0NjypH5matKdw+n2/v4uoqPPfiy/jcl78hp/YG5dRV45qR6IhMZ1x7xUW46LwzpVc+HInIGVzbd+2Wm2pWlpUas6KM+y+GOoFCM6BMm1ShRiji3jnZ2dJQmbtA7wsGA3Igs31vp7w3gGKHZ632j8m8bhHhjI1JWYVylItkOcJWFG6RkZEhZ9T09Q+irLhQN4QfZm7b8KgLzhSj6IGxwHT1UUfKbVFGRsfsKSvO3KMYE7kodmTE2NLdUI6FesVn+P2J9SrKu1GqE5Nc4GwPrtFboo0bs7oK8/ONRbFG42nnDvULc/eFLvnmPbdrcm4uZIR2bxeDYclgtV9hlIRTIiJbw/vnowysTb+e3++VCxnDkShKijwOx4UxMyJWx5rcImGmGBnzXNEOW0LtcvH0Rz9wE/Z19/42UVZmQxZ9V0Q+wiH51L/+O7a+/Q7KSkteHBqKnB6JRj/p9XovjcVib+43ZE45hWX/qU+Up9KpuMtWF47rmDu3nnz8KrznmsuwZ193QqkzsPOSMR46ohEVFxa8FNq7p+fZXz4n5/8D/FZLtonxDed8/sQvitIfHR+XGzSeduJxCJvvC+ec72OMPSlOKSsuxgsvv4Z1G7bIvavG5ct8MKReDrAvdoPeGbR8r2jgchaW0cEKPV6PVKByR14+saEid9kd1nKhwJX7MP2+DMFAhvTaBwaGCvw+3/luqUebnPpMKQa5R9eyxXW46Lyz0Ds4aJ3wOsC3ZQaD2Lz1bWPmh1QWWGSVqa2clbLWozGr04iyEJ5UoenVBYNBLK6uWvuL3/0Rdzz4GHa1hqTHq0YgkWgEW7Y3456Hn8Djn/+KDOeFZ5abnYMf/PhnsoMVFuRPiMQmVqG77W9mk037Xc6dryyTdWS8kxxbRefs7u1HV3efXPXMGDvD0QbVNqJ7uUrZjI6MIjc3S46PmZ5ht96lhKLetGW7fG6P16unZG7j3P4CMK7vZqB48sJgCwdg5VHLZR0Lr9qjrNfgsN9db+Oi3YpyEI6QR+47Z19IKBe2jYzIiShaRqDM1ia0hciwjZ3Z23iMc1nOi+tqElEqY+wtPX0l2qJok827WpCZ4XgbqXW9SreInLtFqLDruHA4grrqCrm0IBqVU3g3cs4H3F7oJSJUHrfSmrYYKMA5Kh19G872l6hLpa97mEdOWvnP7/4Ib6zfiGWL6nxCp3iZR+pDEXWUlRRLZyrUsQct7e3SQRHlMzA8/LdIZORauV8gY0OuBaSQ2iD6ROssA8zUkPaAejjOlBbNlRYnLOB1774Ihbl5cvDHbFAPgfOtVqXvD2v2Ql5ujlwAs6SmBsX5BfjOU/+Dv7+xHsVFhceDy3eQK1+akE2dKca5U6/19PRi9VHLcfSK5XJ2lPmMT1hz2MfiMZlyC5oLt8yMc2+iOJjmJbiUFbQ0U1wONBrXisfj+dmZmfJdD6Py3d2mAeFaekpVeoy5G0TlZh6vh72zu1WU/7vdXp2pKxxoCtXjMVaeX3D2aTjmyOVyMaJZV1/1eIwoat2mLeriqDL1AhzOgWPndETj18HhYRxWV42jjzxcepjV5WUbvvvjn+28++F/lh5yXXWVVK7W4i3xk5WZKTtKcVEhXn9ro0wl1ZSX46lnf4Hv/OhnWFRjvCnO7IDLwVGiKy+t1JwBaiKNy+X4R2I2DWNvift3dHahr29AREsipL5Jr3auRDW6g2Hd0IimonLdUVFhgTW7yDYwLKLJfd29crZhTlaW6dUnqn4NgMOYa1twLkDjMN7QuKS2CkcdsUxmB+S7wxmzyWRrD1ob9zBjPyxhRMyJJjYDIj7v6x+QYyAeZUW0ORPOYdSgtxVobVymjmLSySgtLTZSR8a5jvdYyOgoOoLh4ajxyl1H/koGM8cwrQ0w2McibDvhKr6XqJ/S4iI5XmVOqHDIIJ5ZRCoD1gamplFVfrJEJKYaBZvfpcml12NcRmJ5Mrvw0Ycex6btO85bvmQxCgry5TKEl159HZ/4bCP+63tPy2hJ9FfxnbHRURTkZos2FB0dG/86OI+5DrKo5TnpJ/vBCgsZ2OW29A+3K0Xn9+xpm57ePqw6+kice+apMvowFdk7AJ7kSqlYC/h0hFUtKsiXBbN+01b847nn5fsdoqMj8s1ei+uqRWe6Ckql6/PgLVnVmVdW4xFyihDzhONWoaSwUKaqGGMiCvgezPer9/b0YfPWHQhmBNVyjk6SjbClzGxlx5znmuVULK47JvO18kthzlzPs12YafdiSi0IwzQ6OhYz3hftuc5hULW8L1OnW5sXHBkdkxvWnXPGSYiYkRkgI68fCWUuPHy5fUl+rrio+Noq2/RH6/JcCwYdWhpyUK+nbwCP/POTUjn2DwwWvfC3f/yksDDfn5+Xa75hUCkLI0T3DIXD3x4KD//6A++9SraRyMiITC1km0pWaVJHJ4qOOacQczYx/15t41YqVHi1eUKOeGKcZU/A58dbGzZJb7ekuPAazhF0KF7levYUkT0yFv3iyMOXygVw5j5XG9UikuudtjdjW/NuOXtRy698xHa//eyobN1WzuI5YhkyfH45EC7XnzC4NSYbieubUfSYGUU7Uq7mM8lhHHu3PlOdlmqboQZtqrPWxuULnLIy5doHufrbGCZyTJ/1+X1yTLOnv98w+M7HqAKMTTUdD8ftTmfiI+Wz8XhcrqPw+7zWsX2OAjP1WXzSqYgIA2zYKjdXtarrK9gvI8q/uqIcu0NtaHjs86fdedtNl/355Vd//bfX1sqxkXd2t+D6d1+CW2+4GuWlRXj9rU2yPFYsXyYj86H2jnvBWKGzeLTyPNAJbrAJ83sJ0w2Hhl7piYc2p8Z+4MYT5TL7t3e3yEbFYAyCO+6JCSNizaQS4arwkJ5o/Bp+9dzzMnUhwkZh1asqypGTk4nx8fhlTH8tqqYE4JJX5GYl5OVm45ijjkB0bNR6Mf6vGZjcnC3g9xlbQg8NSS9QIWuy507cA85j5tOZi/Cs7UGQF+dxlp+fy/1+uU39oIdp88H16cHKtW1vdeSWchUe0Fi3iBq8Xu/FYM6UhE2Rcft8cyFfZ1c3zjz5BJx0/Gq5o6lZaP8t+rKIAF5/awPaOjoNA8KUN8zB3Ug4UnqK95WXk4PQnk6s3bhFfuzz+arLioveIxS3OVhqb1seYyFbqGPPt++5/RZ88oE75RYowuu94JzTcdE5p+HXf3gR1VUVVu66DMzl+dlE29PltQ4JLzMrGJT7mI0ZESIy/P6W/sFBbN7WLNsPOB7Xn9vK2+s5ZlvZA3LcRrTllSuWy0Fy47t8h3qdnOxsbNvxjtytt66qQr2ml3O81+axQJdBaS5sYjxRRNww03PG1vD6roouxtZ8Rvm+jzEjheX1mm8lVOva44Hby7EYw5GO+ufudTLxJUOGyEhURqml1gucIAfQHWMPwrl5bXcr2vd0yXfkuyjvsv1lPfRo3O6EGtvU11RVglv7kTHmWAnPzAhtaDhsRmiO+41yjnZmjpu5OujQZFAdE/Nc4dAsqq1GaM9ePPDY538ei8cvysvJfkE4UaJNZWdnyvGSr3z2U/jAPQ/jr399TRoPcwLTODDZNjATpDYLa6Lczrb+TlS09i80T9YqaBFmFhfm46TjViXGFsD5Zs75793yhZbHKBq3eMDDF9fJrc+vu+1j+Np3npJzwKsry7HssEWy0ISyHR+PlTBgVcLrVZWkmqKBvaFavw8MDcsc/+FLFknlYx7/b+vFODk52Xh75y45BTknO3NiEzQgxxEVwOlROaISy7vxsIk55AxBzrk3GMywZrR02JwWNuHBOspcrbCEQmZysVVrW0db865QXW5OdgBa2oa5fNd2SIa7Y7jgnNOQm5Wd2C8JwL9BbicRkAPog4NDcv8pcJS52U498rGVhXLyeGxc7pgqOmZtVaXM13p8XjkICr3uzHTG4OAwPnnfRwofe+Dukzr39ZwejkazhScdCARwwTlnyO/LN78ZEXVi3yN9Z+WJZ3beR/wilFV5WYlMowlvfXw8NlJbUfHWS6+9gVffWIfiosK7wXBU4pq28QfmzA6wiR9h6Lv2dWPNqhVYsXypjGbMyvmrdbqxNfoIXnvzLfvIv8EVjBnvD+Gq4ldupRsWodRE/1l9tKHLh4aGE+Nx6rNzzYFRQ0rRfkWdyX2mjLGTTCScF48sp10tIals1amr+mwtVS6m14PWxqOREZnCFgrQ2H9KbkHuaL3inqIvj42OmmNFjv+O0GWwdAJn9rQxV5xNzg1nQkRAQo7EjuCcr9OnrRrfjZvjZWxCoSo//5+9946XrCjzh5/qePvmnNPkHGCGgRmGnAeQjCIKCi6K4K6KIuriCitiBJFVF8VFFkURHQHREUEByWlgcr45576dY72fek6d03XqVN/x17p/vfWdz53bt/v0ORWeelI99TwEoE+kBdH6sQ8IOAZJXEtY3re0hI2Lr6Gu5vniQOAmN+s3dx0GwxH01Dz0/W9AQ1MDKiL5xacT/0g697W2CRcYGQipS4iCqbHGB4MhTFW+dPFCjHIyo3fmeiAWO/H5sNbE409vg2tu+jz09g/A0oXzDU0PQD7ReRpaWQrt1nwNUuix6HOdnTVMeaapxmIx9iZTxf5kfp0x9d7+QQgGZ7FkqpVEE6BcHBPzNREFFHG6DgD9l1k0JRmjQ+2aoiZAM+msafIOmPdTMmN716xnm5XGGMNhYzgxNe2angl+gL0W20JUwQ8Sk2ELcOmi+XDSxuNgbGoKa0sDwKsA0OX2ePAMy8Ej3eD3e8EoDEkXOawwmfZF+lD0gUjv24hc+jAUiWAc/lWXXfjITDj0RigcedntcvkxRJrH5ufOk+DdjlXeWBYiEo0DbnCncMOyrKwUEvEk1NdUj8yEQtP3P/hzcBFyttvtvt/RRqnpomARO53OZtFfftrmE8Cytij0AsBB8/tMixwYGoadew/hxrdd6YJbzT7li6Sz95XgXta6Vcth+ZJFmJaF0b21ByKuD1W+MP4G+8cYV4IxaYPjWkWwmABhczAdDFo10flPHXcfqdsLkrsGcowbXUeMeZeXoifAUDapsggSJhiMRIxDjmpWuZaK2ZwFK0ucK9l4ZC/TKcONVlZamjsJr8pmSylaHj6sgqnQ0AwcsQ0AUfQb7ALMrijalWEPF5bUKDH+eeC8ks1rd98AzG9vgwe+eycqD7ORSL42OVBwFBYAHAeqqnf5zCwJTAs5ZvVyTDjG65ezGf2FTepKP0xyVlSUwf3/8wjc+Pmvgtvtgc72NvTRqjOPknVWm0AQciBoPSKDp5LWQwA6Wpsxrp3f/kVCSQRdeNQId5wJhszyuOJqKgOqoA3VmQ2wt8Nk9GwhZI2EjFEshUmomb92+qh1kc3AANH6AYrjx6wYRkwzwdljY/HEFiZQqFQsSCVQwVIMjGSWp564Aea3tWI+Id5PFP5M22EW2b7D3cjQjK6RY6j9No5+qxYKERgsBScTdoQ+8t9s8VZXlKNLKWyUVu0zI/r8Pi+enI9E4lb8PSHQ6myc8ByQmJdwTTQWg/amemhvaoS2pkaoKi9//c5v3w/v7trziZamhmccdCnfRxTewpgwRjs4NAInn3AcRrkNDY+aG9lPmt9h966urIR3duzGw63MIhY2YlcSgBNk4U+IpNRRURkx/l+1Yila8IyujZr8Wbt7VOySYtkZJWvTqFi5DKu52mxzFt08boyYkqoRMoXUq5pQqrR0cuNlGl71tUYiU878HWVYsexvKgVHevqtsVAo/02cZpV9VXIZ3rdkKol0Z5SxRQESVLUDy/q6XVAU8ON4KNrAfp5SDS+R6ER8T15LqnBfbkF9iwL9OlMe2Rpg83WouwcVwg9ccoGRhPHvRIGb6NiIteYfJnGJ2g0hyrVofMwzwS5ZOM+KpiAUngXCD8nlgZnu/MGf/wbD0epqqnmFubwSa7O4gKiDqToXs0msWWb6lZTAvM42dNfwhj9j9okx4dlQGA4e6TJToZs3I5RiPLtzoZHcM4S1a/mSKeQOOrHJNTaHyYwtzAUgQgRzGmgemS3127ivsbfC2Gb/wNCWUDiyqKbKkYsodwuJANkzk8kUnkc4ZdMGiCTi5rNmgMJW9pJpgbueO4ApNVoa64waFUCabRvlonUDznBSmenJTFe8h/W2YIExJlFVWY7+bsPtQ7qBBw+kM2k8fW/+TYF6gUKTbQDlLAEqGuef4zxls3goMRyNwguvvtH6uz8+93RnW+v52WyuoxLvy59ok4Np6Wz+r7j4PNzjYIvaCIklD5rXMMsvm8nCS6+/jTRquT0NfBSE4Ie8tC8oDcxiqK2ugtXLl6DgLS0JoAWJYbHSFylVNFvQ1NNceLuMfUNrM5a1MZ5MYvQl1uDP3aGFUuc+HpEVDJDGjBpJJkt42hUeRs2wXb7cg9ZxGAaHR/AMhGy1c7TKjJiKslbOoCxcEInFoJWfhEe6A9gJBJKKlhv7vXy/yQzGkPAiAJkF05sB0nPFtuVjf3OskWwm+8XqyoqZipKSb41PTqE7bwYFvgtUUZn5UNgmuvHf8SBl2VUtbItIhZQb8UQCS8sumNeB7g5+zZNHe25ZWQmWpsUkbNVVnLDnaCeB+WYjRE3WoQFKBMsGmjGh8vIyFFK8vgjDc+aLQKAIz1Ec6RmAkmJbmeoVhECtg8gkzUkcG3Fvhj23ub4W09IbZjC1QoJ5SGzIobUL/ZEJymQcRh1oN25gMszMho6RV5DIFGRmDzz8kDGyM07cAOvWruJ5r/Cqh4wM8RRjzfcdOIxWJSNKvnfVAnLCPeHRVNqkt/ogpnunCmsIpHHg7zPm29nWggrH5DSmtnmXvc8syWAwhP53v9/P98DICkqhHORoMEHrtUWPSVpxY0MdvLF9Fzz/8psonJKp9IkN9bXIrLIyfZrMWsUMhfXBtPaunn4474zNcN6Zp8DA8DBf1GQnULoLuBZbU1WN0Vfs+cyStwSW0c5r5UdTaT3K9D8zE8I9yQXz2jHNTXGgKBEMhQYowAJVsIxN6xX7h4lRMxhGyl1fVUDRjRXBTLiRGEZ6GRvp1uQ1AVd0zImw5kFi1jKNZ9JGAafqygqMDuSdciQB9LiNQlfxeFK5ic/zi60xn2MbOFAE3Ej9zqQzmI3Ab56Ez5OIkFkdPo8HeUvW3N91Ik0p/TEB8jlbe6RnOoQE2HkygN29ZX6XKQrb/vryNy84+3T3qhVL7x4YGgbqcuUyNqhapMA/sgfSRqUFLXZMjvAAyGUvjUTj0NrUgEIkGo0DXw9/ymfLmT8+rwd6evvN3Eq2DTjFz3zULME+cBZR5tFkAXLhu031tbhBGoubtYFz1c0Ywfb0D8LgyCiUBIrEPbIloNIU5EkEYSNSMEVj0RieKairsRLCRW0HBoxQ2dzitRknckcEjSNLkQkVBwIwMWOEHvMT0lY7RVOYKOeU4iI5+7STsIKauZ8AFL7Drg34i2BoZAz2HOxCVyNWa6SopKwVn6FopvEoYczEIAexjaIiTGVmxgmJMYf6+lrhQmPPwDwDEI0lxDMASwHse1/i+NpoXLaMeCVJdt9AcREK/cb6Ohxn0T1j65vcadEa45vMYxMTGL322Ruvx/tgXie8nv67dc8shcrSUnj2b6/AwNAIzqtww/OZfKFUcMsqfPZU/IMQiEQjsHrFYqirrsYS0dFYfHf/4PA2r9devIvKKVdkGueuzng8gUKUAGGExjfzDUXGZOA5lxscYwwxsZOzLKAU42hUIw2gwmec1McGjUpXotUxNjGJRwaK1IcIW4BAjfwskWfYJlVaz6yvleXluWSWFMby8bJ0JoupeQLIO6hiMeNTvyF11TbejrbJPE2yEkVLv7S0BC2x7/7op1/PZrN3snbY++fc+Feh0CishdbBMGp/JsiajmB9mD1hmnVpaTFOIi97eQSIFHUg/TCii0RjeOQeCzYdXUaupeA8KCUyIADpOcJYMRN7XnsLSmokSiMhmpVYDKNJIlHDZLbPYqVaK5MWAJG0Qf46mUqjdRUIWFlng1K/QiLBUGmxEVlYWS4Hg9GVlxhpzA919WJ4LFBnZAeVtBXzXlMzQVixdCFsPmE9pg03i0aZuX4qykvh4JEeONzVi2cTeHdbMK8Pcfo8qPwMKk0JlYhfmkeZyZiH+rxeDx4szWStuuS4kcnenw2FYSpo5Iviz6kVfeG2/su/BUZv8U6KCcyQaXj4CXB5PIlq3wOc2rzb7cL2MSvpjlv/FVYuXYw5jbj1sRsAfm9eX1lRjmntn9z2F6MqJ82NHAH4hIPOQaAZefx4pFt5WRmsXbkMQ9aLi/wwOjb+fFfvwG5myTmYlggFjVtFpYza8B7Mc8VDrNm8iJFdvG2LbTeXhQWx04dI45FYHI8CNJgFnAD2qlL9B4ox+hAmJqYwX5YCdp6mEBL52sSUpaIiH5ZOxj1Z44N3VQ8B9MLEUYE2Up6k8mjNMEkBbhefS0UmK69bUKwvmlMIxa4wvtve1gIvvvo2bH36mdubG+ovyUI2L//Nh0I30ddQKvrtnYtBHFxqWh/8DWbeVpWXWaYeBfrq0Z6JVdFCEcyK6/f557RU+E8TyZNIUF48AE6fLh7EaW5EIcddAzvEwWRa2dTMjBFpgv5Mi8nNVxGgQ4iLbSV29aK+thoDBDixjJsN45eMiYRCqCQwRGIRnk1p1ijeA4DlfbESn5l0T4RqbLimODU9A6eduAHam5vwtDK/8DvACZtpwbv2HUBBw57FUW98ThxjImqxosVGpfaI7bDmT+43vxT3aCoqcEM7Houb1+9lH5aUlGAW3pGxcUwmybEMxCmQmb9I47JgVbm8VItNEubyeAM1FCQshTswDHfc+il4/0VboHdwKHcCnFLLJcUYVF1VFTz34isY7WbuY/EmMQXmAlCsfVsUGdjXaCgURtfVssUL8PQ8W2OT0zNPzgRDsz6fz9FvW98UNE64MsQDTIhZVMrtMtxIkVjCFoVlO4tzNN1QYojsfo2NdRgJx8/i7FUroS4MzTfP61DnvxVUTp8CaoEvzysTwGWlpWiB8nxlDPvydWF2NoxRqCvZeAdnVeHEpjX2NaC5+1ib+/kUYeE1kdppmzZqzAWzPB5/YhtMTE5tDQQCpXn5aR4UaoE0ONqt8FGL1+BvasQeZ9IZaGio4wIEZ+ytowkE9J3GYlgExuvzHFV+WBt3ssagWOCyu83c5GdaXja3KvrMm6N2lUxhPh3z75z2R46TO65iMqo5SfOY7YXzOoz9D0OTe1tM6UKBMm0/6egb2C0olYA0GQFjOvFE0kwzkdena96TECM5YWNdHYaUCkWjDgKBt4BbiNFYHPc/PG4bWS0Hld8YnFYfSCfSqaJfebUhPgXxeAI10fq6WmPvisAEAbKfvfD7vVjGlCki6EIxvrNa1uZkPkYEkib52iBYQWr3n/1yarmCCC9nMIibzt+760tww7VXwcDoKCZp5F+/GwjZbgacVFdVwuDYODzy+JNo6UmJeT+kapsouyjY20R4NOHqZYtRaWLrjK2xaCz+WjyeaOZlFYTGK/ot0jiOgQv3wbLWBjwpMjm/KTSQro1/HQDQ4LCcheeJ4yfTeDZrHPj15tyS4yqG4ALCrCpep0TF+sgqQpzuTOthikVrvoUn4QMBDLxJ5c5F5T2IxxTPmsoKOH7dWgz/PgrOxoN9R7EIZAEhKjkOJZPzucb6Wjyg+7fX3oLGutqf5dmPyYtC90CqidhquRCT3BtRi6SGL768rJRLU/zSUZMmGkVghtHHXlJUlNfSEsbXOKMia0gyVxBArX4YJ0pLS4rF0o5W+giv14sLrn9wBM+CSFiSV1ORrTSwM9F0ytBikPkZpjhry37WHrYQea6tICGGW8u0RBzuMal/JrGUBIykyT19A6h5iCtClSrG0mT45vnG9WvgmNUr8MQzZxb3mpeyseobHIK9h46gS4XXcGd3XS13mkqczHEGRFis1tARaQNbDsPmFyfNzLjFRagVAsAIpUb5Pqa4DA6P5vYnDHpodDBHVfXFv2PR2jg0yWNt0ZxQZhrxzOwsFp2a19EGP/v+3XDtlZdggrtYLI4CngD8igD5kjjFtRUVmNNrz/7DGLoqrflPqBroWI7CwV48e+TzovsKOK0U+X17+gaGMsFQqMOTC2O3buCgFsXaZ4zaFBRAKRblIdy6T5kJGk0hLvIi4hS8eRUQHtzBlBszPQoBcljeEHW7DAWnu7cfN7AJATn/FHuvXtUnJUsVx5UrLvW11VBbW41RZnjgV5HG3fo671DEOF92NKNrwCo3rbC65fbaxovmIV8emMLGjPG4l41IvsvcbvfSuZtiR6EFpVoswUGlRubRIKyX1DgNyhhvhmbMt+csWoLV0QIB9BuGwjbtca6fBhvjpgqGk+uP1U7CD92xBcWYuRmVIMZz+7weDNOb4MVghL2mBUCg3Sa0VI+Ux4ZrBMFQGBZ0tEFHaxNWl+NcvR/TpgeDZm4hpt5ElOYltWuBNouHZjFiaHx6Gg4c7oEKXgXN3DcQD1XJ7hrcgCcEzjh5EwpPPiasHQ+bz2EKwb4DR4wqb8WB3KJkglzS3uQoJNufUtJJm8Yv0Jpjb4v/nUwmobG+Bi05HuLdbd6TLZRYIg5ut5lGnJZRsJ8BoeI4Kmjc+pzXbTEOy7nsWQZIri+219ZeoPFBd+8AhgF/+dMfh8d+ci9s3ngcHO7rxz7wAk6PUoCrzG6i37q1GV575z1MFtrS1MDnznrUKsJreVOQmLCZuVWmRcwgG8cT/quWL4FgKMRT9pAn+/oHIZlMlXJBlmfCFMIWcuNjZQsArKJohK4KkUfcGmkA1RkpKllNItPm422EbFfAogWdhsWJY0y3yz4JYw81iu4iRsMOC8VoznwV/5L7Zl4vWsixeBxamxvQOuRBD+/h+S0FWJ+bG+vhnV174OeP/x7qaqut27K1zmjKdI0LeBkInGWzykGyjGyKOh9bYv+MSkoNzVJcuwe7+1BJ9Pt933EK1jza0z9ggTRbg07sZqzQP3uHxM8x15Nb7PhQPkGA2hC3OP760uvW96l8ctdJDLXiw20Wkuq7guuCaa5MW2dM1ow0IkCmTYO7uLgY6zxgOVTcjLNudDyAU3uymiEydBD6aSZujEZh3doVUF9bC4kkul/eAYBpN88dJFS0i1Ap4SGlTk1ZfDwTAo2N9RgeOjI2iWGsZltsxYKEcFazvVPT05hx98Tjj8UoFk5QP+eVB7nF5oXd+w5gNUU3r17HbzffppGDk2YIzK1VmbnPctPF/7fS2ef+ZTJZPA8Q8PsN5kXpdraKGKOempqB3r4hCBQFzEasJgSKZGFPZaK1javB1ZhFyJSH0tISQ7CLc6wS7uZYUyNqKBaLwQ0fvgJ+9ZN74ZYbr0eB0d3XbzzKhYR/P9base5LeZRRCu7+3gMYUMIUHOkg2nXiGMrau3yI0JrfmSCsWLIAc8uFQhEUiLFY/InJ6RmmLHnN7L4i4xTDrEGaL+BnLsKhqHHew8g4iy5lH5uH6RlUBHFPzmBQHc6J5200257HjYmaf10tCtMo0+aNxTUk8wMP1iBPQFCogy79lACFNSAxXLsEs7cN3+a0wYR7RXk5+HzW3qXyJDzweugBfxE88usncD+uVIiGTKaMVPrMWo7gORqXOLbPEYD3OaITpVRAYCVEJY7EoJYRLEh9v9+HYdtsvv0+3/kAudIGR0OhAqTKYRpj43JqGpEYpp0pUDyoxz9IAoWefIKADUJbYwM8/Ovfwa+f3MalNbWenVd+UCPqw0aE0kCqrBGgucyepajFogCJUqBjJpPy+7wwMDxqWEMYsmc8iBBygsgkibjZJ4XG2h7NCDBLMUfVgo52SGbSpkWwmzETpo1MTk7lKpdRwQIRx1di0ETQoNk4Fvl8sGf/QWReZn0HImjdNiZOckTItLZTTjwOWhoakKjNtO3mtYwpjE9Owd7DR1Dzz1KLuRcRM64enAJOnBNqJw9j0Xs8aHn19A3gqeyBoRH8zawc/DH/HjJe9w8OwcjoOLo7LR83IQPsmUUBPx5CHRwZw7nlmOeYDOKMo7fTuPFXOBqFhR2tcPzalUaeNCFiw5xvKvbbdn+jCufJmzbA4nmdcLCnB89D8VxngwDwfiDkXyWyhIbqanjo0d/gWajOtmZcQzZ9i8A1trVjH2pHdJkpWBjzW71iKdYHZ9a+3+87PD459dbhnn6mLHlsa1uKfpNp3PyQCYdQJIJuI65QoHuICfLJqWkIBsOYyoPTyTE2+pP38uTnCu+lUimoLC/Bs1hGRCSWMHa4jpgSOj4xCeOT07LSZ/40mxv9IM+bSgGC3JSb2n5tdaWRMRkoEEoGVJo8G9+O1hZ44bU34Xfb/oIh++J5NtbGjevXwi03XYflANCVabdEfu8i5GxmTadSqZycEwQeFeZblnsAdncwu97n82LgxNj4pFmW4iJHHsI8KLQiIYZ9UJBzXdmdx3KVOfMSw/RPGZk6KfrzQ6qHMEa+ZH4nPPfSq/DFr30Xy3r6vV5xX2IuQeAxn227Js9v8aAa09aZmcskM0/R3Weev2CD6XN7cBHEEwmr4D/HBSCZ4CBog3k35Qhgfp72liZYtmQhpoDg33+NEQ/Tsqwa8cZ3IvKBtjmsTLwRI4zp6RnYd/AwCkax0XKIrBjmyQi4qaEeN89noxHgrGQ3EB6iSAHPLOzedwj2H+zG14KLqhXMCnPUOU8i/UgKPmJ8chJO2bgeTjphPWZuVkIYRya4EokkrF6xBManJs0HYO4wr8eDLgwmjJk2yvtcD9Jz5fF00rhxDVu8ZWWlsHrlUvj9sy8AzWZNl11uWiVr0PyTMdRUOgNbn34GNh53LGM6bJkOECA/opR+DyjExLFKZzKwoLMN3npvF5ZNbmqsB8eRbcDIq+p8SlE+pYlZNLU1VbBm5TIIR9GgZJbVUxOT0zAdnGVrwGt1nuZnqjKN45mbWBzH26A343wFswqZteX2GKfmXcYtOm3jK4/dHO5nLCtQXo45wUJGWp0d5loVwYRjT98grtt67jKS0GQ9XBo6kEPupaHPZjNYh2VeR6shxAw3mqMOOnufKS+Mb/z44ccwdxazlEV+lqEZVEg+fPlFyNDvvu8BtAyLinyQzRgPzWQyz5aXFJ82NRN8foL1p65WdLXbD+rKfE5ojmmdMIszyd2xXEndAAAPqAZJRmEChBp56h2uBoVmbb5parmGDzSLzIxLNqV4YwPS2twAR/oG4ItfuwfdBcy04xuj5iOV64U/m9iuky+W/rZrndR+nXAoCdMhRMJwpLsXtSlLblK6lFIyT/jb5jskcltA1HAJ7qmcfPw6aGttwrT0HH91uYzEdFme5ZR/dVSWgw6IXUAmX4EBCAcO92C6EQDBOhG+I7on2PNGxyfgonPPQA11eHSML2x6r/gotiiYZTM1PQNtzTbrtyFfm2SLTCZ0ppUxBnTpBefA2adsxsJdlIsvKvVa/Itp8SPj4yhwDF833Qm4b+VD99tsKIxne7igWO1og8QkbSQj7PWleYLBxQvm4aZ9KpNGNx4ohLltjDl9VVdVwM69B3FTt7amqn82HFnI95Wk7xo+6lgsAV///gMYPdfc1GAWKxLH9kYbw5CsUXEKxObNzM7CulUrYdF8I+M05tcqL//9uzv3ILOtLC/zUjH1js1UlNaQ8L6LECzFa9RFR6ZUDpzWGZOlucFkw9Uo3o9IQopIGQzEZ2LWgfZWtHxnghhb0qUaQ3SpRSKQxuhGl0rhWqPiYQQkoSGvGWLQQklpMSq4CR6BRYB0yw/I0Cy01NfDQ49thef+9ipGW2bs+cAM92E8jhvxt9x4Hc7Jo1ufxgPNJpKpFPveC5+78brTtz7z3F937TmAZ8doVkpzoZgr2xgKE4a8ymWVzFjmGJ08KNQCoUotAfJzNCKYU163B3oGBtFn6Xa7izOZjE9cPGxQq6sqwefzw61f/SZG9yxZMI9viqpa45RCVmCDKHlF7XIOjd2oS55ABuauQW3FSk/p83owAqu7f5BHMpn3JJeC7RnE1jZHaKCkCmTSGThmzQooLgrww5WuXkLgsJvXl2baMzOP+ff7HcJTYBjy3LA3SooDsHv/QRifmgExrt/hrhG+l81kcfGfecpGLMSDhYWAJIDCI0K/MWxx194DvDaHzSLLpYVQCQvIvS9r/kxRYDRQVFSE2UHHJ6dyF9s0wdyNMbcVJzQjpJMyy3GItavI60WNjjGRhroa8yvLbe2QmCB1uF5z17I5YtZhe2sLHgZjghZdMvL1MkPkKC0pxkwGO/fsg0svPLdxNhQuogoBwp5RXVkB9z3wMLz02tuwdNE8gz7sl1VRAltsG6TEqUQ4+ofnPyJw3hknQUNNDWSBWQTk0HMvv/bCV7AMsBe8Xk/c5HEyY7e5nCTaYe1mgoJZOPwgZJEZeRYOR3mYOgYzLCeE1KjG2CbIFdYr65TbRaCBl2Pl/NN2At0MiHEDwRLDzPJzgdLSWCof+HSsI7CPrTkMrJ/lpSWYaknIwjuSG3uKa6e9pQkLWf3sV78zDtqaNUMksPcYnUbjMbj9czfhvuUb7+3E8tkmmJJ55qmbnj//vNNPPOV9V78SicawLo1tfubgcfJ4s7a4gZjeh9K/78uFC5CoXb1XLBJi+zhnBlLADdzx8WkkJK/XU5rNZtsAYD/wCS8JBDDL6L/fdQ+8/OZ2rMlh5c5XALNsJhN4+M7ILour31QFLOGlWlTymgAUEl4038cnJmHxwvnMOrDMnkAgAAcOdcHY+BSanyYBECBXU8EnaglTVR4uYtdootE4tDQ3YBilEQWDhv2fLdrKGkTKE9MB1sQWiER2j8nWllmj+lB3HwYvcNehcEHuNxUIamJyGtasWAYbj1uHzJe76x4ShX1xoAj3IPYd7sZNRGk9LCOq5yjcAKLyQfk+VFlJCTLaZDplduwEnh6CqDQtKmoSBEOjUPAzIRQMR7B+DG5Y5mi0HsTCSAJd2MZRQeOpdAqZQGNtDZYX6Orpw/Y6PUvq/qPbIJmCd3fuZQLEB4RcB5TeJzeCCf7e/iF48k9/wQODNKv0SX+Ip+pWW3XiMFFxnClG5u07dBh+8otfo2slGo0nfvHb338xFIr421qamCBfT0CyzsREqVRN40hzmSwqAki3hBabDzYjs3gzrCJSYkNVzgDxS+y5WbMaZFlJTqgSsAo4UX46vK2xER75zRPw6G+fRutNFbJOgNTJz7Fl5xbmTq4LEo3GYNnCTgx+iRtnjw5QSq0zIKbwYFbxv33pTqzW2dRQL8+jHwASYqqXmVAIinx+qK6uEGvuIH9iwv2zX7mb9efVqoqKL8+Gw3fJQl3F3MR9MHNe2VpjdFZZwfPvUfDnJ2I7ChUgM1bDQGqkxOMdC4oYIZ8HjnShG2jDurUwMDS8gBCy37y+paEeHvzF4/Cjn/0SFi7oyNmweWAUy/fhAijxBsw4/5DYRpX5m29T2+02zMiZ2RCeOAdCjLAiSpEBdfX2oTukqaHOtDQ2ADWKBlGg6lTQxG6Fic+bmJqGc047EWuPGJo2fvdp9itQ5IfDXX0wNDYpls2NyHHeKkK3nstDk5mAxcWsYODynBEXgeDsLJx20vHQVFcLh3r6jLofhNiYXEVFOby7ay/WRWEEaL9Rrl4MlequgGRxyIjG4rj/hekpjGSWR4DCG+qr84Mt3rbGBvjFb5+CP/31ZZjf0WZ+VI9JHgXrWJRJuT4CyH3At7KAabsZGut5Cg1JqFFJCNl5JMWMwe/t3o/pNYoDgcujsdh98sOY9h7jSQn9fp91+FDCjSITt1toCuuKg9ECs56e+NNfcVPfyI4LKxvqa7/e1tJocxfLN7AJFZHWLGXNCOO1LBAKJWYZV4/bbVol7F+9w5oWxo3mWbvA3VeM5loaG8wUJuw6TDbJBEppaQk019XBjx7+Jdx+9/dwr6C2rATdfwp2skRpKcsKkCKJJ7oVGxtwLBlfAJoTYowXzW9vw5ot13/my7BzzwFYNK9dRffrKIULM9nsF5cumo8MnfEfDOlN2EN6MdiCALz+zk4M+W5ubPh6kd9/azabrTDbSSW+QKVcd1b7qXGokfHcutxamztLrYDCBAiBfqsBUgiZY3PX/j0EMykHhmbhry+9hvUOzEN/bGKXzOvECIX/vOeH0NbaiPsMUt0AG9xuF+kfGKYfvPwCLK360uvv4KYgzVJHaS2HVqNY8MD3aRKJFEYr+d1YyKfaRYwcPl6XG6OvjPw1xPze3TmCkCWo+k+RoTJi33TcsRheyrQBQkgcAJ4FFCABDBmenJpBVwZHGKR+OE5ASyCccqicMQDs3zU/ikSiWAvl9M0nwEw4bAqedwgxLEXzBkwb2r5zL8yGIlCX21swsRgkDRVUbiGZ0RFAF2JzUx0KKL4ntBt41bfqqgr8SZuRfMJDMVVGMgVjk1Po764oK8XXDz/+JG60EpflNljDeJltKFTmqMjIwHS3Gfm2SkuN8MuOthaxXrnxNcGqsYISJLorKy2Fwz19sHf/ITjztM2bo9FoDVqXkCMSN9+MZhak2zx4Z8dq9FnL7ZT7IWrQwnynU2m0bKy0/vw75h6LwxpTWe5im3g/sWxyPCm4sHKpTIKhMIarclfyIlV9ElGxo4pMzgyxeAI6W5vRimIKB//eaAZppBIPtN71vf+GHz70KDJ4priy9aVwTVUBwApLGAqCkarqwEjzmM0aGSQYTXDaMtINUQqLOjvgvb374WOf/jIKl8ULOnlhMMdCTVCavc3v9T7T3Fj/QpYHETGFtTgQyM0H/58ZcbU1uWCATCZ7kBCjRhMoFPd87InyU/Hl5SXGKXojzUtcRWgqFGqBHJYb49j4khtMRYFDMf301j88B5ddcC4sWti5uad/8Gedba3QNzwCX7jzO0hoFeXltugCGYTATbF44g/pbLbnyovPRyn/5La/4CaplXpEIAZbm6jCQjBfU4JWyDs79sCVF1/ANKaFmUzGW15amgqGw/Ds86+gm433mZn4p8v9ttGYrD0JbZmdDcPCzg5MUDg5PW0yoD+aZywYwwuHI0bYc+4eoZzbxnQZ2P9WLQIbTVHF3Fl/Exgbn4D3X3QerFi+GPMz8W/fI5rdZsbVvoFB3BuSlgSTdivFRlGqrqEtzom5uNkiKy8rw70Mfg5hlNIszOtshf0Hj8Avtz6NDJwAsQW1M229pbkBizAxIcgWxYM//zW6ihbP77RSnhOAVuV+lDxXKjcA96tXVxgCfcH8DjzMxjRizMQq0oEpmBWmJ9PEw5EoFoTactZprBsXEAIPi4OI9TMSCdyQFoSfOAf/IrZdSeMKAa00hVV/K9Y2yM8AaY45bWSyGWR8POlmEW8vnncS6vgcMxc95HkLX6dSKRQKjMFmjPtNZrKZodraapz3L9z5bXjw54+jBcCUBwx8UHYEI7DcqrmWa6iA5Kam1LAImhvr0fXMD6geIcQFC9rb4LXtO+BfPvNlDN6Q6pXIcxnA9ZRIPE4pPcvv9rxXUV6KZzO6+watLBL5QIz15ngz9zD1lwg/S9PcYFhQ3AMyM5fHR0RhBaWokd3U2hh2XKCQdBIjZxK7u7cf7vnRT+Gh73/zkoWdHR9jJtunv/Q1ZEiLFnTm3zQHKCYAz7rd7lVHeo48eP3Vl8Ha5Usxr8vx69fCgUPdUFdbNQmKzVlZA89ZHfYHMOn+5xdehQ9dcQCOXbOirqdvoLqxtmb0vgf/F155azvM72g3I0l+aQ2C7C7IMwe5ug8u1EouOu90WDivEw+SGZNKHgUwD+gZGqiRv8daQmGQfd4ScxBDcUUtzvTrWgtRYqKUb557vV445cTj8Q1MiOciMaDwmNgPxjR37z8I23ftMzRYe3+bgILXIazFsc/DWE03TUNdDYZ8mrUVTG3uhltuR7deZTnPJkxybkM2Toy5n3XKC/DFT9+IUUY/ffS3eH5Imo5GkOdIFm4gzSdHIpmA2upqjOFPZzMY/19VWc6TSHpt+ykqzc9iPoRiRNyOPQdgZGwMiop8lyYSSZsAwep1vMgPLzBmby/AB0Ha8FXSuKxYgIL2Vf1WCAzbfpt9THPTi6VrM7gZ7DJyaVWY1n0gUASu3J5So9QfG8OWrSmxD2yua6oqUJGYmp5h1tR7bS1NmEfkXz79JXj62Rdh8cJ5GHZ/lNpBLcq5B7sCoYquy2TS+Pz21hass56lWab0bO9saYFtz/8Nbrr1DrxHZ3urTXgYt7bdEK2HQKCo9qltz717yZazP1lXVfWjT99+F7z57g5Y0Nlh88RI56dagOSsfUdov7ynZOsTQSG/cH4HCmL+DEcxrnwoNJVJl9kA1YDb3hKEhniAhTGp9tZmePZvr8Pn7/hmdSwW+8jX7/0hvPjqm1hoag7hcR0h5KDb7d40MDj8+NpVyxKf/eT1MD4946+vrSEfvPQCswznYRC18zyEITJY8Zoivw/N4gcfeQzdVos6O5r//OLL8L0HHkZfKsfjALDQpumJ/ZaeZf3JP2P3r6muhC1nnoopNvgmcJBS+oRZI4CN09jkpBEznzuQNC7fllL7bxA3NhV9lyNOrI+IcZjp2FXLYdOGY3Ob5wAPAAHr5BprT1VZGUZf9fUPoc/WGkzjpwUkXkdEq0hmrkIb0ui/LoZFC+Zhn4uK/LCwo/2lv77yOnzw47fA8MgYZo1tqK/Fuh9sPswfpuXVVFfBj//3MXhy23NQWVaG9/CYxa1y7Xs0wWEAAC3ySURBVDlGKeBtJ94lGue/E4kk1mthz4kmEkxo7PJ43O9YpY1VdCD8JoI5yKzs/Ye6YN+hI0wgn21q6rbpMk8Uyz8AFwKFaoA8+3kijSsEOSFzNFX9PMdYgfQssc3MIpsNhgwLhEK1meIds88aIaNFyPxA4Btz9EOkcfYylU7DooXzoBwLuhFYMK+9i1l0H/3UbfCH5/6GTNfLMzg4mm5PbbBOvL9y3qSBMqcwhcWsinH/gA1oWWkpdLa0HH7syT/CJ2+9A12Qrc2NDuEh9pkaSuUi9qKxvg5efXsHfPmu7/7g5799asG2v/wNWpua5jzMBwDft4+9MF6qsaQ56yeZTkNleRksmt+JPIh37PBcDxNR2El0Cq8RgKQ8xgDqcwVUvoj/ybSqlqYG2PqHZ+Gy6z5138uvv3PpwvkdfsVgdVIgHwGAtwghPwUgLRjTnc384j8+dzM019XdNjU98308VFRRbhy6ydI3sJ64WC5SVdBIIa3xO1mK51D++JeX4I7v3A8TU9NX/fB/HjXN5jWU0r9QApcbXxa6R6V+gzMFg9n3oeEROGPzCWg1jY5NmKm7v23m0PF43LiRtv/gEVvoLaZJIOAsHSZGfzlcHfY2KBcIPyXNFuEZJ22E+upqnh4CtaX7xSTTGOqcSuHBRNZOubYzABxrtUAkaPM5wmu5Gem04Zqora7ChVdZXg5PP/d818dv+QpaY53tLbwUKEHmJP6wuQ4U+V1maG1NZSWcdcpGFDpCFBt7zmL7ANmZBCHOYTKt6GTSqIDHNOlMOsOE/I5slr5IJI6s4r1UeqbP40HL5b2de6HYj3GYZ9nnzcrbZTF8khMKnzDvI58ydzxQxeypkznna6ftGovGc7mWqKBEUa5dpzNpTBbI90BqXG63LxqNYQ4wr9sDhJKVAFAmjjk9SjvBch1RdJuahwKrKyugu7e/5yM33Ypp7hfP78xFZErjydozMDSCVovXcL3Oc/RdspQdk8k/N8oHlGNm3axRWjf0458/1v9v/34XKqFNjXVKZdjD6xvNhsJGqhdqlj2gaNk+/eyL5M7v/ODNyoqKC43gCaUA8RMC9xMCl9rGC5zKgRPGp8HgLCya14Z50PCwrtHHg3N+VezH33uhCAoQIgT2EK7FOSKCiJMxy4dvTCJgjKihrpZNaHlJcfFvfV7vaDaTHQSCCRYDeIKVwkLbfQmFiamZ6Zuvv7r71I0bvnGkf+ALHo/7M+yOZhw2IRCjBA4SStdap8VV6lYeIgXO5Jn28OjWP8Bzf3v9s7F4YmNHW0tJJp05xqbhz5H+wnEAin+PWR9lpSXw/kvOx5DQTDZjplf/gdlE030VDEfRLSNgis09BabV8edJ9CXWDSDU2UUQTGBRew1FIzCvvRVO3Xw8TM3Omov/VfmAFjN3+waG4L3dB5DBK4SzrQwqEWuUyKa1dKjQ5/XhovrmfT/GKDgCLti+e++fvF5PprGhjhiBBvbemvC43b7B4bEry0vLdp+88TgUbKedtBEef+oZFP480gis+hOKdWnOK5HdF/zaZDIJLU31OH+MCWQp3ZXNZncTQj4rDrRIAxahSGPAmHBxcQBrqk8adVQuS6czvxfbY+YCk1AFFLZYZEzkCRb+lkPI5TZQ6WyD6l4KJcukMRuN2wJpKG50c1dvKQCUuNzupLDZvEjFF2SBJes+wAVBfW0t/PqJbbDtuRfR0jjY3ffxweHRK5YvWUR4BgnbpLoIcafT6T8MDI3cduVF52GanDff3c3otx7MPHOyS484vYYmfQCGWRdDPJmCf7/rXmDLN5VOe9/dtf/txrpad6mZ0NPGFwi4PW7fyNj4x2tral5i1kv/4DBTlpbjgeGs0Y7qqkqgNFvtdrueymazr/DCbUcAIA6AY7kOCOY+awHV1Ct4saisEX4CPTg7C8cdswbDitGFzpRugJcc1JYHhW6iswb+mRC+AQbqVB1ip/IRJfCobDMENJvNNliZdOUFzl+HwxGY395Kr7xoy5vT4VAtTyPxBOXpiQl/OKHwNyBkrWOxSLeUm2RpILxcaVVlOczMzrqLiwObbX0zCTyPmQsKzZ/yMLz+wSG45sqLYfPx66G7f8AMdXzICpHGE97FGKEzxMvmCkjwSKxquRMOwpGZICjGgeasj/HxKbj6sgtg6aIFWKOC3+ceWQMqLy+Ft97dAX2Dw2J0mIh6eUwcQlVcjIIFgOnDsxR27D1g5PtxEUYfqwJ+vxGlJrebv3Z73DAyjgkudz/wnTsw19TQ2BicsH4tnLB+Nbz02nZobsJmdVAKjcQx6XJDnZaJmQ+tvbUJrcJgKMyY/iGfz/eMEV2jZryU18KR285QVVEOew4cgcNd3bBsyaLzJyanXGYoJWaRjURxo7M4UCTygqute89FAwLDEJ8rMkICioWQj1bk8VFZtxyMppmwzRin9n0EaIBms9NmVgUM885rngkWSR5aZkrV4Z5+jJakxpmZ9pamhnbGiM01LG6Cs/npHxz+0/lnnQL33vkl+N22Z2Hbcy95K8vLVjmklHw+SKZXDp/Xiwd939yxyywbXVRVUX4ss46sPQuh/Yy2R8cn2Zi89p07bkXBd83NX6iLxePLWH+IFSUnJJwlcCIAnAhyNJpqDoQ14SBFau9DLBFHN+zpJ2/EQ4v8CMKrmJ/w70TBNdEJGBuqlCqYkchY85XUpTmNR+yc4xrILWIz82UwFIHli+dX19VW1wYNf+o4Js0zj+Ln7vW8dRsKdi2ZCNqZSKRUMP/MlCQuF2qbWG8gK6nzxCk48rorqVHUZmp6GmPXP/ahK7E4k+E7x5t8Uby2tLgYGfT4xBSeypfuFbHt7ciEZHZnjgUKUk0NxpwDgSIkKKbB8X2YKSDwW7mvRV4fHO7uxU1SPJhIHOOxHEAy+yWNUmyH+LmZ5qKqssLY56ipwYWaEfYYVPs6s7Nh9p2eB++965gzT9q0aWBoZC2z4EoCxXDJlnOQaWGBIwprLF4uMg6pkqNt2MRMCh4P5sEyNMYs+H2+SCDgzzhcFTKN5+mz3+/DUOPtO/ZAWUlJLaXIMBBM2Ygnk2ilulxE3Ee82WJq1P68PIaVba05FBuF8kNFi4Ko59LxHGp/E6sSUqRvt8ftKQ5Houg24WlflhNx3IldaZTDhWVNmo09W5cNdbXQWFeLkVc4v3JyUT4Ho2MTcNWl58d+/N271kfi8ROXLJxfvmbl0qLZUHiBdZ1c8ldKTih3mPXN7XJhHfmG2hrcG2NKZyYrS0Pj12w4AqWlJd0/ve/rKzetO2bTcWtWLTv/zFOaRscnrOsI5Dn6Jq130SXsEMSqSFhh/brcLqw7c+ZJJ2BRK2uvk9gDZY6GwgSIwczfBYBes7MWMzb7IDN/mkezQyKhtu/QPMzZXChMq6mrq8ET7Tws8zWgNM2YcyqVxsgYgofe8CxFyja+igF3TJZEeJamRoWwTHBenzuVnmdieRlNRsj/8qErYNnC+VghjafvfkTMuWVcm0UmjQe6HFyXZ+Qlds1TbI9tbmSNRVqUTICNTUzCutXL4Phj1+KZGp4c8AG5yCZbIKFwGHbs3m+ErQKAlL2zFqNCIFekyzEOcwhZ5VuyJigrADyv09rlSzo3rFuzvWdw6BVK6WMYDZRJY6y+K1eFrl7+Lsg0S+2pxE1hy7TpQFER1FZV4QZqOp2GspLicFUF1rbeMSeNU8VeBV/obEzf3b0XIrEo01IvzrXJKG4mpsgHgJUUYIm47wASjRNFNI6ThKTvSWHWohVjExhC3/IGqHAtOplKWpo4IcTPrA9z/wportiYucZEPiHOsXy+TKmMKGg8pxyl0WK57MJzbycAb03NzLxcXlZaVVwciMuCX17bhM+DuK6prDiCgq4VtDwxNQ2nbFzfcerGDe92Dwy+Eksm73G5SLVs4VOqpnEQ3MHK+ZRpQRpT8z7oQi8pgSsu3mLUbTGsZ/bv15YSQJ0KgYxCN9HNm/63vGAcxKogREd7iKAMqsIKhcFjA+33eWFBZzsfELwhRg0wU7a5oR5qqivMMpERANgGc2i9tvaKmhBIC5EopLqpsVifEaGdzjFjTKCnfxAP51171WUwPDFhpB03xuTT4uVufkbgUFc3amuK9kdlxmrTukAaO5A0bDl9BzEy755+0kbcEEzkKiL+t5zaubSkBLr6BuBgVy9m3zXG0Za2utEaRVVWUHlexT8FRYSohLVsVQn9ZhZBfW01KhFGXi54A8/eEYCdew8YqbENRtwhzq+SYRKn0AJqHF6rr6vBjc5oNM403pTX692PtfMzmZ3mdUejcbFTWb4JvHv/Ycx7VFZa8j7xe4qU2tebt6TyOAiDSWSrQsV1FHt0VkNlYSita8f8Sf02DuQm0SrgqcyLmbZunu3h2QBsTZSFgK3N+WhctKCIQvnkZbSxCiohMBMO4ZmHIz19vT19g0tLSwK5+8tMW17bNA9NCo+3MXG5rVkKxYGAK55OGZbnxMSO/Yd72tmaMu/tSLWiiKh0KLBEEjKSwDGvI9z66B8Ygku2nAmbN6zHABOhxs+cxf1kFOzCAoNg7sOIIZkwiVMSWn2Q/MBEQbBUUW3LCt3j6QvmdbSZNa9Z518ytJ0U+vTKS0vRdDYmhN4rLwYqa1OgsBbAqeWovueIdpDDmPmHbrcLo4Kqysvhq1/4V0xnHQpHePU3uA0ITImEHyjyYy6q4dEJDJGVmTilMC6a/yLx2LREyBG9rNWA8DoUCmOaj1NPPB4mg0GToF4UKzECF9iVleUYfdU3OISbiAp0WvMLEm1Q50J10AJIeYike8h7OcAtO7bIm5saceM9a1RZfIdQApl0Fg/jub0us1HHgjSnFqOg0iOpnfmmUilk9hVocSRZYwaz2ewUPytzAFQ0DvZn2MaCI1AcwBLJ7+3cw4TyQsO9QzCQYmBoBGLRuFX5kFL4CJHbCHMoaeYfLiMTQSyRQA2UCdRY3PiJ898x/r75OW7quoi9/bKWKyhjsmsMT35zmnS73X42D+FYnFlcFUCgzbaWTJLIM+8iX5BpXA5zlt1NjDdUlJZiyGoimYIivz/cPzgMM8HZs7xer3W9LfRVZWGAWvWXo/ZIniSa7LtG3RAXZtkYG5/cPjY+Uc7We24ciZLGlTyWSroBdSoD4ni6kA9N4hGKT3z0g5hZXDhfcpuzZ3PjHxIgeFqawl1KC0dkvoIQsDHjPNqGLWZdJE7MO5PAQ35M02QEb9yL7sSMl3gAzoPlbzPptFmT+wUAeB1kEzCP4LAIWNaSxXQfRKmA5a6XvusiBEKRKDLpO277FKxYvBAGhkZ5UkPKmM437cRPjUN6+w6iC6ustARkNxIx6iTbGBQV2ykICSr1W243YxDjk1Nw0sZ1mJ58ZtZSQr4jd48xsWwmA/sOHuFFwRzuK/azTiTifAxBHH8q0gVIi1W1EKUJYN9jc28k1svyvtIJt8eD1dYGh0exlgzXfDtE+pSZjSqk1RzbZDKJCoqQXmLM7COl8DKoaFzVZ3G+wNgbYwv53d17zXQ2l1GeZjsYChlVD409kAsJr8fjsBoUNC62wcVdSux3wO9HBubz+fA3/niF1/wzIobBC4NBZeElDxi3otkaTSVS4CaEMa9S1o94IslerwYAnyq8XKl0gF0TdyhCAq1QsO/tAXfZtLY0Ql1tDQpLt9v9DmtbJpM5DaRbOLok8wL5feFvldAxb8osZEY3xon0LLp/w9HYdDyeaHV73E6hr2AyRPqcCrzRsV7EPlkpmhIQmg3B5z55HZ6UZ8KEKwg/m6uGez4UHIUl9OM/CIGbMSJI6JCsFAFI2okkIORID5OI5A36UDgKmze0YW6byZkZ9t4oAPQCP9RTUVaKaZUZkZoZSimFTxCA9xxarGBRiNEauQHPPdfWMDnKRSZo82sEcOEkkkno7RuA22/5JFx+/rnQPTiEDINfe5FjTCng6VnGpKNR7nZxbhqMgZCwz7HohDEjUr8ppbZJSmXSuGF/xkmbIJXJmDmdJsyEjiJ8Pi/6cXfuOYBRYur4dNKmZPqisCC5PSUCcwh1kUYUCSnNvmWyRkbR+poanqcM0c00u+HRcegbHIFAoBi/QSk0glwkSGqm+UIOM2X3bmtpQDfebCjMlIDdwDdTCcAhByeiTiEqu3nNMN+a6krYsecg9PYNMivv4lA48p/Akw8SXsaZANxob6REq465zvVhaiYIHc2N8JXPfwoPZ/LEebYxMMmiyOfDvn79nv+GQz29mJMMqHOeqMzUhNeMQc4GwxhF5vVjbZZ6rK9u1FqYp1w3csobYX2q1phMI2K/xd/McqyrqcaQaabIZbKZg0Mjo0xozyNS5IlIFxQUxxQU/EEeByrNNZi5rUqL8XwTU0TYHIyOjftmw5G19XXVjueCROMyKDjXtsjTQBCk5keHunrh49dcCVddcgH0Dg2baWYYblI/ZW4UJEAc/aFwORD4KwipMpQMjQoMOI/gsD1EET6YSiXxtCYz+bNTmLflNfPgXZpn4Fy8cD789aU38CHEoPYdQOB/gcI18sMctCgQquhvpLL/VSZkRZpnlPjJFHT1DMAnr/sg/NvHPwJD4+NGanZjAP4VCByQu14SCEDP4CC89MY7GOKZZ8c5rBovG79WtBG4P9ccd6Z9jIxMwKZ1a+H4dWuMaAyDM9yvemhlZTm8+c4OONzbj6eoFZlhwVbdjagrU9p8uSSnjtuKcBGndQiiEBEWsFUbu7kB02sDxXj2HVhaNRRGd6fXg+mOlpjV8SBfsrx8C5Zrcc1NjUaosdGJ3YRwv76hwR00k0iqGI84LjIDLikuhu6+AXhv9z64+IKzjw2FI22EkH7jK/gs1u7zQGJctgFSMFOT00xNzcCl550BG9ethaDNdeH8ImNugGWWi9BtrFQEJSFIpDeZhR3lxZH8AT94vN7aUDiC8+NxuxsIOK0oqqJbScmjksCTBTWRvQxmxFZZiRWQMBsKD3T3DjArq1k92QLtikqP2EUqNZ9INC71j/EnLFFQWozCubg4MNHV0x+OxxPHCAEeeWkciH0cjlrcS5h7Nh4HDnXBOaduhi/fchNMzMygEOPHB67j5z/+n1GQC4s6/z1PKdyt2jim3ASQNVGZgag2zkWTjC3WLG6g+2DhvHbxnrlTkzwb6pKF88CDfvAs5hvCH6DXA2D5XPNS67mmgACJIEU/pngYL0fsNPcdsBO9mYb7cFcPXH/1ZXDnFz+DB8UwN5ARA/8rrCtO7eYqzVIMS9y19yDs2X8IKirLLS1S+gkDSOcAINcfRwy9MCcg7EFksxQzsp57xknomkkkE+aVypKWxUUBTF8yOTWFwQzW6sn9uHiGWNt82wicSM2yGDmxtdE2V9TOKGQGwRZDZXkZppJgDI+b4xGfz4eaNxt3JkyAwEbbOIBzXsWxEqPYKM1inQas+86ZL6V03O1y4Z4VD+jYbvbR4bqT6MZmrfIMtvFEAtPjuw2iwmgs1NqNy65WWTOEqENM7ffPYhuPWb0CqzuOT07D1HRwamo6+JupmZmtU9PBrVPTM/gzPjm1NR5P/DYWj/82FA6HPLjpLcwVCGtbnmehfVgWIZmwSqV63K7qSNQ40+J2u9eAoERa7c0bVk8dQ0nk6E6wK3nm2GR5JFtbcxN+5Pa4IRqJvRIKRz0+r7cKFDRAQdxfs9+bKpQakcYpEWkrt0mB5aHra6GuthZPsCeSyb3B2dCsx+2ul/mAisZBIZjyzYGlgLuMFwcOd8Om9cfAf33rP5A3TU7PGMKDwDMA8JBiHdt/8uAfdmHlQL9ECGmyNvgES8M8RGXrp8RUqGyViFkv+Q2ZGcpM6Y72Vmv/AwBeFu87EwzB0oUL0MUVCkVwsXMwrnIKALwH4nzLC0MgTvENqnifSKqYSWBMwxmfnMJJuu1fb4DP3nQ9vg4GZ41wTAovE0KuUk2MWVf71be2Y+SIK0/VMqPeCbHaK76wtRUkBi5oVOzzyelpOGblUjjn9JNgeHzC1Ei2gVTZDfiZhFA4DLv2HUB/eZ52NWMtdJCEAAiCmtoZgJJGxeg2FWOUIuKSqTRUlJWgiyIcibKbjwKmu/BirZJwOGoeeFxptUVQYmzmP1XQh6VBFmPSzgR3k9Es7TLq0XiNYk8Ah61hJ5JmDGa7Sa4b0n5CVUUF7NzDa4QUBy6llN6fzhqZawnAJ0GaVzlU1waBbpnmP7+zHVNWMIFq9Jl8hQL9gShoMpksHhKtKiuD2791Hxzs6tlZU129ynZbQQMW16oMJviYMDc1XbfbXcQEJNO+i/w+q2yqOU6Wlq8ShlIHHetRonUq7Flm0HVUCi1Njci4McIxHH1lNhxZjkqFqMwqHmezcuyKvV1Ii7ybCquTXxfHEgX1qOiwdZfJZPpmw+EWfqhSreiB1C9V28CuKJrjyAQ4e+aRrj646NzT4Htfvx0riw4Oj6JbFAAGCZAL5xIQR8M/uoluAyHko4SQn45NTGKKB9wkzqOhi6DUOUnOewNufjXW1mCWViv/PxgFZEyEImGY39kG61YtR4ZN7IS3AwAuY8/ARSnY3TITBqnJIsNRXiAIlK7ePrz4njtvgy986gas5TETDGIEBC94c7p6HChmjX1v9z74w59fxHBR4KxD8S9iM+6EMSagIEaxf/yHCaeZ4CycvOk4aKqrwzTb/Nv3qNpXXFwEI2PjcKR3EPcA8lhGdQ7rAeyWnINe5TdEDYpK74Fa80rh3kQzJrbDrLWU7iK8hgsT5pRakSb1OUZuf74lsIhzobI3Eomk4SZraoRYNMaujTGaMvMr8Ta+4hhzkOaC2hUm0copLytlTBv2HDjEBN6pyVS6KhTCeixMY18i3jsvPcpaq4tg3qc1yxdjVlhmjRmX0q3idebBvMaaGrj7+w/Ajx76JVRWVHg8bpdyj8UxRiBYbfiZC5m3UU0TBUgxnqrHAknuOtl6AMXhPfOecmCLjcZl5ivNbRo3r4vQdcTopLQ4AANDw/HR8YlOjH7KZ4GK1q9Ie9KlDiFOBetDsGSwREFpKTJxv8/P6PJI/8BIa3EgoBxbVTCHStGygdOvx+XGKM7eviG44cNXwA+/+59oeaHw8GCRPEa7J6vq8P+/4J8qQFLpNPi9no9dfN4ZP2YSrrvPCBQi4q6hzMwkCe7QDoURY1rUvPYWzNvCzEGgMAQE+kSmiPWvi/xw4gnr+SQ4VtlWj9dzUTwWh5GxCeN5XAMgeVJNiIvSEVnDf6NZODUDB490o4/5Vz+5Fz58+UXQOzSEQs1tpCV4hxCyId+ksbaWBYqx0Nbw6BjfpAaHdct/JlVaJwV7u6zX0rXszygTyHV1cNrmjXging/8CCHkOelcB36nqrICN/Z7+wahpFQZvsuwKH+jJDcBdVp6ILkHqHQPKgt8Pm6sjU2N9ahd8jnfx/7LpNJoNXHLij2zQ3wAITkpTOQBkubacJOVcEaEYeKDeNbI7hvf7xhoyZKlsuYowIP++Qjs2LUP/B4vZGl2C9OaCSHXUXCOD5GZuDzP1HBTetwedF+5cgkGdwCFYfN+bN0wRtZUVwvfuP/H8O0f/BRDPX0+LzGz2Yquk7wKivhsniqcWYcuo5ZJMWNiLhepBaBNNsVSsGgsz4U8RkR63Bz9Fq9jQqOKWVUVFehO8/l8s0MjYzAbCq/xeHJ1bGxr22ZtUKfwEuhDdjVRwcSWLZVaflLd7/fB6NjEwZHxiWbD/SlZYQqjBMTnUqnfvC0ul2H1HTjchQr8t7/6OfjmV27FQAbWZ255sCedJOe3KwT/RBeWEaY2GwrDDdd+4OMf+cBl/q9+6/vXvvjaW1BSUgz1tTW5il2CqUXE0DzIDYiVZ4rX856emYX+3n7U0EuLi43SkQQ30G2J/rGW99Q0HLt6Bea4HxufxENDVhuzWYiHI0/dfP3Vpx3q6n3+oV9uRcbI7ovRIdncYiH5ksyZzwKC+yxT00FMN7Jk4Ty45caPwgcuvQC1jEO9ffgdvkH2GwC4Yq7xq6woh+6BQXjqmecxYoTS7FzW5TDwNrE2Y+oEIbKJjYoctWTTzIDA0PAYXHHhObB21TI8a8BPB9+bN3U0pZj0L56Ic4GovG69+cLMDWWfIGFjMt8mpbC3a3NtZk2ftn0RG+V63cbeRK7uw7jX64UgD+Et8qOmWUxILnW3mX7dnHGbKyXXBOs5sXgCykvLcbObKTOWm08U8hT6iJEtuYnNS9ZsNLuN1C+aJ+Eds6Le3rELRiYmGB1sJi7yC4Dc2Y+MdbLbnJccvYLs1qKAGXGtmvvBkOEMI2BZH6ydjKG1NNTDvT/+GXz3R/8DnW0teOKeZrNu857GCXJjHmzNNrXyrNUcq2HMakskEkgvLkIC8XiCzdExAMQDXPibCQRBUirkjXnbPkw+GgfBgqQGrcyGI7Bh7Wr0XAQxcs79diyOVR5Ps1pKs3kVGkpyg+ywWqnknbBc7znfJOUhvGw85/G6IH6flymcI6FwZFV1ZYWRUDWdwfr91iASh3yQCBNswTDRWBwPBbK5vOrS8xkfhuWLFkLf0DAkUklTeIwDhXOB/P01P+bCP1WAYL7/TBor2J1x0saPPPj9u8O/efKPN/35+VcwMd5McBYXR3l5KWpEhouLmDlYjEXFmGEmg+k7grNhiESjePhu8fwOTPJ36YXnYH0MBIVDqnYwk3/RvA446YR18MDDj6GAEIuxTAdnYdnihS/c8OEPXLpgXvvW3/z+z7DvwGFsR1VVBTIbo4gPMRebQT+sbTSL7YtEYsic2GQtmd8J11x5EVx58RYsYTk4Pg6RSMRgsgbuAoB/n0MY4CMqKsrg4V9txQ2vhfParep5eTDuJi70JzOBaR4+kq23fLLAqFedhLNP34zzwJgSjwx7UHU9G5OR0XFMX1JaXJL/xgDHMq1ueiZojI/PZ9PgRKajbKv4vhkxJmoc5j2QcRjcI85POzMGkTLrLhDoKi0JYK2Nw8bpbnafRS7iKmb3mZqZRuaGdUKEOQBpv8LQuo1WM0HU1FCDPuyZIMZj7DBplzFGapy4ZoS2h2nYkzNY5MhWz9rGEeS/+Ws2Fy+88ha89e4uuPCs0zYFg7Ofj8eT5UwRGZkYx4OR6IYAah8/kFVWY7eld3AQPnT5hahQjZg5lyAnQJiyw9blDx76OXzrvx7EEgvFxQGzkBhG1E1OTSGtmaV71eqxvT9sDYdCEXRnM+XR7XYHRscnIRqLrmhqqEPBNjk5w/sCVtSkwiuD/2PhMIWQVJNibvNsaGgUSkqKUJGdDYchFovt3bX3AJuXE70eD7o4GfPFjNfZHJGpniG/BpA28vN4WDBwwOOGShQWRq34lubGTHVVxX8e6e7rr6mu+mBlRdmm/oEhXMhM6S3y+zCE343nf1w5PoRCP4sVFs36Kri/0lAPl55/Jrzv3DPhrNM2o5fmcE+vlcIeKOYGvNpUPv8Z+KcKEBDcVcFwGKKx2M3XXX3l65decM7P3np3l3vP/oPw9nt7sA400wDYpLEBMKqFUWS4jNACgSI0pzeuWw3HrlkJyxcvxM2/Fn72gzFMNvEA3N+saEMinYJTNm2Ax5/8E06WRaQ82yvTuCnA7z5+zVUbt5x16hOvvrG94bW3tsPbO/eidhmPxdHcZW0zq8KxxRMI+JGZLuhohfVrV8GalUth3ZqV0NHSDJOzs3CwpxcjTrjw2AsEbsB2zikLAAklGonh/gfTTiileeO/eR9j0Xhsy+TkTNEnr7vqsjUrll6N+fwJqM0lsLsfGBGXFAdg9YpleAKaC48neKp4B9i8jM0EYSYUBr9walaGx+2+41BXzwMLOtsTX/ncTf/hdrmOTSRTam6j4hSyO0vxHJtQAaOud1GRH/37jDaAYJ4wPFzK5gGt2GwGXC73YDKZvKKrtz9z6ZazF1z+vrO/zZQJmqXO58nPpoC1UVYuW2zsqRjv7sM6+W4PJn3EHGxGxOBnevoHF1975UWnnXHyppt5mVD1XIBTmLD+hSNRrPueSCVXb9qwbtmvn3zmkh179pEbrnl/1VmnbPrpzGzIpuU6OLolpSm6L5YvXYR0zZQfAuQIUNhtXhrw+2FqKoiVG4sDRRhqmsma6UfoZYe7e0qvfN+5iy7ecvY3JqemcwqBYqzEuWHNSyVT0N7WjO7dyoryklYmnAKBbYMjo4OZTDb12Rs/cvHCee3XMmVRHAPl3DtoQ3QP5B/faDSOChm2HU/Wu8LctXbF3oNHvKduWu/+6AcvfzASiZXZ0sDb7ptPYsqNlr7L32LP83m9GGE5PR1kz86uWbGk77QTN0SDs6Effus/bv1Ne3Pj6Ds79+AB4vf27MeAoCjfM0I+meV80u3GezE+yQT/hrUrkRetXb0c1q5cjsPSOzBoBOEY+67s378B4VGf/0T80wWICcZwmdTt6u37uc/nfWXzxvVfPefUzdeMTk2iD51pp4yo2KRG4wnsdJHPB9XVlXjSnGl5jCFgUaNkAge9q6/fSC5nRE6MA8Cb+Z4/Nj6JJvv6NSvhtXfeQxeaCKMgUhL6B4dfLy0tWXblxeff877zzvjI4a5eZEJT0zPolsLTqlnj1ChrU11dLWqzTEvraG2GDKXYh8O9fUjQxuly6OF1PRwnueeCkdnVawUfHO3aoeGxbTd/7EPwhZtvqMgCXI2pNQQoeQtXoQimxcjiPhDTLN1G0ijl5jmA4b5paqyH+e3NWHK4vLTYQYtMMPcNDL80v70N/usbX4G1y5f+LJ5OOUPsRBBw+tjm0nAd3zHKpzKNjGnXPGQ0yprMFuDqFUvh1E0b4Je/+yN4vd6J/sGh3zBr8c4vfubEskAArPblfQaxfEPMWmF0gaVrPV72PpZNjsZjcNapm+Hx3z+DmuDo2MTuk084bvcdt336TZ/bc3PeZ4gPk05IMvpkNNw/PAqXv++8ulgs/gTr3y03XX9tib8I4vnmWh4fAthWpqVOTE5hGDIQeFL8LptbJgBPOn4dPLHtOcFFRqC7r+/P551+Enz7jtuai/1F35Cfm9cE4NGEWF9/YhJCkQik0qml555xMjzy66cOPPviKwce/q9vwGXnn3NpmmZyRZccCpDCr3g0EPs5Aab4MX4zMTmNa8vjdveed8bJ8D+P/vapC846De792pehranxMatvDkVGQYxiCKHDf0btf/PzTUx4jY5P4LkYFyHJ4dHx7g9efhF89IOXQ2dbK41Eo39auXzpuYyG+gaHsDJoJBKDqZkZ5H+xRIIXTCvCvRTGJ6srKzAFUWVZGeb4GhweMS1Hs7TF/1KgXwNQe2v+UfyfCRAT6NZKp7tHRsevpZR+ze/33bhwfuelPq+3gxGzy02sLKlmps40N/HCkQgc7usTD6tlCSGvAcUzClt5skQlUOL7vFBeXgKpVP5AAzbI0Vhsuquv/6MuF/nvpsb6r87rbDtXzIBqVoVj7WNtS6XSqI329A/yTvKNeArvAIX/AoBHsGLg/6O0t0zNvwNMq/3AJVvgi//2CRiZnAyHQuFhl8tFHZSu0urtD2UMl3V0H5mjkAwbz4qKMthw7Fr4y0tv4DaFrPQxhWD5ogXwwD3/Cc1NDS0He3pSbpd7SNkmyKeFywtQeGE7PKQWMLwv2I8s19gYs/j9n19A5n/rTR+DW268DiaDM8sOjIyOeDxunCfTcra5Z5TjhdaYGVu9i/09NR2ElUsXweknboCfPPI47r994/ZbGK2EevoGutxudwA99vnaTaT+QW4sKKVkeHRsxdVXXORmbR0bn7xmMB4fcrvd1DG3oGi38NqD7ca/HxUfw2iaabObNhyL+29ZXj6ZMbCzTtkEP/jWHZBKZ+oPDPUMoQAyU9OKczYXkzfqYLiSqdRwKp123XDt+7PXvP8iuOS8s6BrYLApm8kMc9efU+PJNw/y+Kmuk/72eN3Y/5GxiVeXLV4I3/7qF+CyC89hFtf6A909ox63O2MZUCoLW+1bO6orT77ObWiZ26PRGObFYvyvp39g3OVynTcxNbPM5SIfrqwov6SxoW4p8iGXCy0Jo7QxgSwYfJLxtUQiiVVLJ6anLT5JCBnk3oT7/q8Eh4n/cwEighByKJVKf3Y6GPwsUDgbAFZhoRSjpGQVVi3LEX4CAIIEyCgQeJkA2QMAr1KgfX8PY3bh5nsGmf3fw5S5hvDGbDh83mw4vAgohtoez+taMPOlwkqdC5AGCrNAcENqJx4eI/AyENj3zzYRVUA3BHHBxVvOwnbPzoZ+43a7n1QFFFCHW8P80HwP38RM+E7vsx2MaCvKy6xgCClEGs+63Hz9h5g2Bwe7e0bdbncr5PaX1e1wuIpUbjdib3e+BW64UFwUaMrsPxP05WVlRmGwijK4+sqLYDYaYVbEwx63+2FUSoSbiWNGuN/dtvdCra0FdhmqzVmaxfooHa0tMDs9A6uWLcJQ377BoaDb7V7A15mTMYkMLo+F4nIRQin1jY5PGFsclF7idruj1v1y/bbvFRHlyJvv2vKXYyLSRApDTIuK/GjNZfEgbAJprKy4GA509+zweNwdRBgNFb0Q1bklPpwu4iLDI+PZ49etQRo62N3L+reFEOHkBz36HDueJ/bbcYG4d2ZsqiWTybTX64XrP3QFWmYjY+PveTyeVnESjGwN1Pac3J6YIJ35a0e/56ZxxpBSbl7WFrgiy++zj1L6pUg0+qVIJLoSADYAwAoAciwQWgcUyoBAMRginP3ECCHTBEgfKk4EdgLAn/m5t/9zkKMUa9fQ0NDQ0FDin3oORENDQ0Pj/z/QAkRDQ0NDoyBoAaKhoaGhURC0ANHQ0NDQKAhagGhoaGhoFAQtQDQ0NDQ0CoIWIBoaGhoaBUELEA0NDQ2NgqAFiIaGhoZGQdACRENDQ0OjIGgBoqGhoaFRELQA0dDQ0NAoCFqAaGhoaGgUBC1ANDQ0NDQKghYgGhoaGhoFQQsQDQ0NDY2CoAWIhoaGhkZB0AJEQ0NDQ6MgaAGioaGhoVEQtADR0NDQ0CgIWoBoaGhoaBQELUA0NDQ0NAqCFiAaGhoaGgVBCxANDQ0NjYKgBYiGhoaGRkHQAkRDQ0NDoyBoAaKhoaGhURC0ANHQ0NDQKAhagGhoaGhoFAQtQDQ0NDQ0CoIWIBoaGhoaBUELEA0NDQ2NgqAFiIaGhoZGQdACRENDQ0OjIGgBoqGhoaFRELQA0dDQ0NAoCFqAaGhoaGgUBC1ANDQ0NDQKghYgGhoaGhoFQQsQDQ0NDY2CoAWIhoaGhkZB0AJEQ0NDQ6MgaAGioaGhoVEQtADR0NDQ0CgIWoBoaGhoaBQELUA0NDQ0NAqCFiAaGhoaGgVBCxANDQ0NjYKgBYiGhoaGRkHQAkRDQ0NDoyBoAaKhoaGhURC0ANHQ0NDQKAhagGhoaGhoFAQtQDQ0NDQ0CoIWIBoaGhoaBUELEA0NDQ2NgqAFiIaGhoZGQdACRENDQ0OjIGgBoqGhoaFRELQA0dDQ0NAoCFqAaGhoaGgUBC1ANDQ0NDQKghYgGhoaGhoFQQsQDQ0NDY2CoAWIhoaGhkZB0AJEQ0NDQ6MgaAGioaGhoVEQtADR0NDQ0CgIWoBoaGhoaBQELUA0NDQ0NAqCFiAaGhoaGgVBCxANDQ0NjYKgBYiGhoaGRkHQAkRDQ0NDoyBoAaKhoaGhURC0ANHQ0NDQKAhagGhoaGhoFAQtQDQ0NDQ0CoIWIBoaGhoaBUELEA0NDQ2NgqAFiIaGhoZGQdACRENDQ0OjIGgBoqGhoaFREP6/AAAA//9pfF3XcV9N7AAAAABJRU5ErkJggg==;" vertex="1" parent="1">
          <mxGeometry x="244" y="522" width="80" height="80" as="geometry" />
        </mxCell>
        <mxCell id="0Ma6VZtYf2KCyxoi-4m5-57" value="" style="shape=flexArrow;endArrow=classic;html=1;fontSize=14;width=3.333333333333333;endSize=4.444444444444445;endWidth=6.851851851851852;labelBackgroundColor=#000000;fillColor=#404040;strokeColor=#404040;" edge="1" parent="1">
          <mxGeometry x="118" y="489.88" width="50" height="50" as="geometry">
            <mxPoint x="206" y="559.76" as="sourcePoint" />
            <mxPoint x="246" y="559.76" as="targetPoint" />
          </mxGeometry>
        </mxCell>
        <mxCell id="0Ma6VZtYf2KCyxoi-4m5-61" value="CI / Quality" style="text;html=1;strokeColor=none;fillColor=none;align=center;verticalAlign=middle;whiteSpace=wrap;rounded=0;fontSize=16;" vertex="1" parent="1">
          <mxGeometry x="134" y="490" width="90" height="20" as="geometry" />
        </mxCell>
        <mxCell id="0Ma6VZtYf2KCyxoi-4m5-67" value="Automate&lt;br&gt;Tests" style="text;html=1;strokeColor=none;fillColor=none;align=center;verticalAlign=middle;whiteSpace=wrap;rounded=0;fontSize=14;" vertex="1" parent="1">
          <mxGeometry x="110" y="602" width="110" height="30" as="geometry" />
        </mxCell>
        <mxCell id="0Ma6VZtYf2KCyxoi-4m5-68" value="" style="endArrow=none;html=1;labelBackgroundColor=#000000;fontSize=14;strokeColor=#404040;fillColor=#404040;gradientColor=none;exitX=0.176;exitY=-0.221;exitDx=0;exitDy=0;exitPerimeter=0;" edge="1" parent="1">
          <mxGeometry width="50" height="50" relative="1" as="geometry">
            <mxPoint x="130.36" y="597.3700000000001" as="sourcePoint" />
            <mxPoint x="201" y="597" as="targetPoint" />
          </mxGeometry>
        </mxCell>
        <mxCell id="0Ma6VZtYf2KCyxoi-4m5-69" value="" style="endArrow=none;html=1;labelBackgroundColor=#000000;fontSize=14;strokeColor=#404040;fillColor=#404040;gradientColor=none;entryX=1.043;entryY=0.888;entryDx=0;entryDy=0;entryPerimeter=0;" edge="1" parent="1">
          <mxGeometry width="50" height="50" relative="1" as="geometry">
            <mxPoint x="239" y="597" as="sourcePoint" />
            <mxPoint x="332.43999999999994" y="597.0400000000001" as="targetPoint" />
          </mxGeometry>
        </mxCell>
        <mxCell id="0Ma6VZtYf2KCyxoi-4m5-70" value="Relatório&lt;br&gt;Code coverage" style="text;html=1;strokeColor=none;fillColor=none;align=center;verticalAlign=middle;whiteSpace=wrap;rounded=0;fontSize=14;" vertex="1" parent="1">
          <mxGeometry x="228" y="602" width="110" height="30" as="geometry" />
        </mxCell>
        <mxCell id="0Ma6VZtYf2KCyxoi-4m5-71" value="" style="endArrow=none;html=1;labelBackgroundColor=#000000;fontSize=14;strokeColor=#404040;fillColor=#404040;gradientColor=none;entryX=1.043;entryY=0.888;entryDx=0;entryDy=0;entryPerimeter=0;" edge="1" parent="1">
          <mxGeometry width="50" height="50" relative="1" as="geometry">
            <mxPoint x="385" y="597" as="sourcePoint" />
            <mxPoint x="478.43999999999994" y="597.0400000000001" as="targetPoint" />
          </mxGeometry>
        </mxCell>
        <mxCell id="0Ma6VZtYf2KCyxoi-4m5-72" value="" style="endArrow=classic;html=1;labelBackgroundColor=#000000;fontSize=14;strokeColor=#404040;fillColor=#404040;gradientColor=none;entryX=0;entryY=0.5;entryDx=0;entryDy=0;exitX=1;exitY=0.5;exitDx=0;exitDy=0;" edge="1" parent="1" source="0Ma6VZtYf2KCyxoi-4m5-51" target="0Ma6VZtYf2KCyxoi-4m5-60">
          <mxGeometry width="50" height="50" relative="1" as="geometry">
            <mxPoint x="345" y="450" as="sourcePoint" />
            <mxPoint x="240" y="520" as="targetPoint" />
          </mxGeometry>
        </mxCell>
        <mxCell id="0Ma6VZtYf2KCyxoi-4m5-74" value="" style="endArrow=classic;html=1;labelBackgroundColor=#000000;fontSize=10;strokeColor=#404040;fillColor=#404040;gradientColor=none;exitX=0.5;exitY=1;exitDx=0;exitDy=0;edgeStyle=orthogonalEdgeStyle;" edge="1" parent="1" source="0Ma6VZtYf2KCyxoi-4m5-34">
          <mxGeometry relative="1" as="geometry">
            <mxPoint x="400" y="440" as="sourcePoint" />
            <mxPoint x="509" y="470" as="targetPoint" />
            <Array as="points">
              <mxPoint x="335" y="470" />
            </Array>
          </mxGeometry>
        </mxCell>
        <object label="Manual" id="0Ma6VZtYf2KCyxoi-4m5-75">
          <mxCell style="edgeLabel;resizable=0;html=1;align=center;verticalAlign=middle;" connectable="0" vertex="1" parent="0Ma6VZtYf2KCyxoi-4m5-74">
            <mxGeometry relative="1" as="geometry">
              <mxPoint x="43" as="offset" />
            </mxGeometry>
          </mxCell>
        </object>
        <mxCell id="0Ma6VZtYf2KCyxoi-4m5-76" value="Source deploy" style="edgeLabel;resizable=0;html=1;align=left;verticalAlign=bottom;" connectable="0" vertex="1" parent="0Ma6VZtYf2KCyxoi-4m5-74">
          <mxGeometry x="-1" relative="1" as="geometry">
            <mxPoint x="5" y="30" as="offset" />
          </mxGeometry>
        </mxCell>
        <mxCell id="0Ma6VZtYf2KCyxoi-4m5-84" value="Diagrama&lt;br&gt;Arquitetura de Software" style="shape=umlFrame;whiteSpace=wrap;html=1;width=156;height=50;" vertex="1" parent="1">
          <mxGeometry x="104" y="140" width="640" height="520" as="geometry" />
        </mxCell>
      </root>
    </mxGraphModel>
  </diagram>
</mxfile>
